{
.appVersion = "3151";
DisplayStrings = (
"llllll/Placeholder zllllll\012nnnzznnn\012ooo/Placeholder zooo",
"HHHZZZHHH\012OOO/Placeholder ZOOO",
"nnn/space/Placeholder zllllll\012nnn/space Zznnn\012nnn/space/Placeholder zooo",
"000/Placeholder 9000\012HHH99HHH"
);
copyright = "Copyright 2011 The Metrophobic Project Authors (contact@sansoxygen.com), with Reserved Font Name 'Metrophobic'.";
customParameters = (
{
name = fsType;
value = (
);
},
{
name = "Disable Last Change";
value = 1;
},
{
name = "Use Line Breaks";
value = 1;
},
{
name = "Use Typo Metrics";
value = 1;
},
{
name = glyphOrder;
value = (
A,
AE,
B,
C,
D,
E,
Eth,
F,
G,
H,
I,
J,
I_J.loclNLD,
K,
L,
Lslash,
M,
N,
Eng,
O,
Oslash,
OE,
P,
Thorn,
Q,
R,
S,
Germandbls,
Schwa,
T,
U,
Uhorn,
V,
W,
X,
Y,
Z,
a,
ae,
b,
c,
d,
eth,
e,
f,
g,
h,
i,
idotless,
i_j.loclNLD,
j,
jdotless,
k,
kgreenlandic,
l,
lslash,
m,
n,
eng,
o,
oslash,
oe,
p,
thorn,
q,
r,
s,
germandbls,
schwa,
t,
u,
uhorn,
v,
w,
x,
y,
z
);
},
{
name = licenseURL;
value = "http://scripts.sil.org/OFL";
},
{
name = vendorID;
value = newt;
},
{
name = license;
value = "This Font Software is licensed under the SIL Open Font License, Version 1.1. This license is available with a FAQ at: http://scripts.sil.org/OFL";
},
{
name = Axes;
value = (
{
Name = Weight;
Tag = wght;
},
{
Name = Width;
Tag = wdth;
}
);
}
);
date = "2018-01-09 15:50:05 +0000";
designer = "Vernon Adams";
designerURL = "http://www.sansoxygen.com";
disablesNiceNames = 1;
familyName = Metrophobic;
featurePrefixes = (
{
automatic = 1;
code = "languagesystem DFLT dflt;

languagesystem latn dflt;
languagesystem latn AZE;
languagesystem latn CRT;
languagesystem latn KAZ;
languagesystem latn TAT;
languagesystem latn TRK;
languagesystem latn ROM;
languagesystem latn MOL;
languagesystem latn CAT;
";
name = Languagesystems;
}
);
features = (
{
automatic = 1;
code = "feature locl;
feature sups;
feature frac;
feature ordn;
feature case;
";
name = aalt;
},
{
automatic = 1;
code = "lookup ccmp_Other_1 {

glyphs = (
{
glyphname = A;
layers = (
{
anchors = (
{
name = bottom;
position = "{683, 0}";
},
{
name = ogonek;
position = "{1232, 0}";
},
{
name = top;
position = "{683, 1441}";
}
);
layerId = "2F8B9CD4-7B7F-4ACC-ADF3-B6E0F7033A19";
paths = (
{
closed = 1;
nodes = (
"400 502 LINE",
"685 1294 LINE",
"975 502 LINE"
);
},
{
closed = 1;
nodes = (
"217 0 LINE",
"353 361 LINE",
"1023 361 LINE",
"1160 0 LINE",
"1336 0 LINE",
"785 1441 LINE",
"584 1441 LINE",
"40 0 LINE"
);
}
);
width = 1376;
}
);
leftKerningGroup = A;
note = A;
rightKerningGroup = A;
unicode = 0041;
},
{
glyphname = AE;
layers = (
{
anchors = (
{
name = bottom;
position = "{1141, 0}";
},
{
name = ogonek;
position = "{1980, 0}";
},
{
name = top;
position = "{1219, 1441}";
},
{
name = topleft;
position = "{1977, 1441}";
}
);
background = {
paths = (
{
closed = 1;
nodes = (
"383 361 LINE",
"1149 361 LINE",
"1122 502 LINE",
"430 502 LINE"
);
},
{
closed = 1;
nodes = (
"1251 677 LINE",
"1859 677 LINE",
"1859 827 LINE",
"1251 827 LINE",
"1251 1289 LINE",
"1977 1289 LINE",
"1977 1441 LINE",
"1077 1441 LINE",
"10 0 LINE",
"207 0 LINE",
"1126 1253 LINE",
"1077 1262 LINE",
"1077 0 LINE",
"1980 0 LINE",
"1980 152 LINE",
"1251 152 LINE"
);
}
);
};
layerId = "2F8B9CD4-7B7F-4ACC-ADF3-B6E0F7033A19";
paths = (
{
closed = 1;
nodes = (
"1251 677 LINE",
"1859 677 LINE",
"1859 827 LINE",
"1251 827 LINE",
"1251 1289 LINE",
"1977 1289 LINE",
"1977 1441 LINE",
"1077 1441 LINE",
"10 0 LINE",
"207 0 LINE",
"472 361 LINE",
"1077 361 LINE",
"1077 0 LINE",
"1980 0 LINE",
"1980 152 LINE",
"1251 152 LINE"
);
},
{
closed = 1;
nodes = (
"1077 1186 LINE",
"1077 502 LINE",
"575 502 LINE"
);
}
);
width = 2090;
}
);
leftKerningGroup = AE;
note = AE;
rightKerningGroup = E;
rightMetricsKey = "=E";
unicode = 00C6;
},
{
color = 3;
glyphname = B;
layers = (
{
anchors = (
{
name = bottom;
position = "{705, 0}";
},
{
name = top;
position = "{665, 1441}";
}
);
background = {
paths = (
{
closed = 1;
nodes = (
"945 1294 OFFCURVE",
"1039 1276 OFFCURVE",
"1039 1079 CURVE SMOOTH",
"1039 898 OFFCURVE",
"938 833 OFFCURVE",
"732 833 CURVE SMOOTH",
"390 833 LINE",
"390 1294 LINE",
"720 1294 LINE SMOOTH"
);
},
{
closed = 1;
nodes = (
"986 691 OFFCURVE",
"1091 625 OFFCURVE",
"1091 410 CURVE SMOOTH",
"1091 189 OFFCURVE",
"999 146 OFFCURVE",
"777 146 CURVE SMOOTH",
"390 146 LINE",
"390 691 LINE",
"752 691 LINE SMOOTH"
);
},
{
closed = 1;
nodes = (
"806 0 LINE SMOOTH",
"910 0 OFFCURVE",
"977 10 OFFCURVE",
"1034 27 CURVE SMOOTH",
"1201 77 OFFCURVE",
"1269 220 OFFCURVE",
"1269 407 CURVE SMOOTH",
"1269 634 OFFCURVE",
"1184 737 OFFCURVE",
"967 770 CURVE",
"1127 810 OFFCURVE",
"1198 898 OFFCURVE",
"1198 1072 CURVE SMOOTH",
"1198 1313 OFFCURVE",
"1091 1441 OFFCURVE",
"840 1441 CURVE SMOOTH",
"220 1441 LINE",
"220 0 LINE"
);
}
);
};
layerId = "2F8B9CD4-7B7F-4ACC-ADF3-B6E0F7033A19";
paths = (
{
closed = 1;
nodes = (
"942 1294 OFFCURVE",
"1025 1242 OFFCURVE",
"1025 1079 CURVE SMOOTH",
"1025 902 OFFCURVE",
"939 833 OFFCURVE",
"752 833 CURVE SMOOTH",
"390 833 LINE",
"390 1294 LINE",
"720 1294 LINE SMOOTH"
);
},
{
closed = 1;
nodes = (
"996 691 OFFCURVE",
"1096 612 OFFCURVE",
"1096 410 CURVE SMOOTH",
"1096 209 OFFCURVE",
"1016 146 OFFCURVE",
"777 146 CURVE SMOOTH",
"390 146 LINE",
"390 691 LINE",
"752 691 LINE SMOOTH"
);
},
{
closed = 1;
nodes = (
"778 0 LINE SMOOTH",
"1121 0 OFFCURVE",
"1269 130 OFFCURVE",
"1269 401 CURVE SMOOTH",
"1269 632 OFFCURVE",
"1160 750 OFFCURVE",
"929 775 CURVE",
"932 762 LINE",
"1124 799 OFFCURVE",
"1198 898 OFFCURVE",
"1198 1098 CURVE SMOOTH",
"1198 1354 OFFCURVE",
"1043 1441 OFFCURVE",
"709 1441 CURVE SMOOTH",
"220 1441 LINE",
"220 0 LINE"
);
}
);
width = 1409;
}
);
leftKerningGroup = H;
leftMetricsKey = "=H";
note = B;
rightKerningGroup = B;
unicode = 0042;
},
{
color = 3;
glyphname = C;
layers = (
{
anchors = (
{
name = bottom;
position = "{770, -20}";
},
{
name = top;
position = "{761, 1441}";
}
);
background = {
paths = (
{
closed = 1;
nodes = (
"2858 263 OFFCURVE",
"2829 217 OFFCURVE",
"2756 169 CURVE SMOOTH",
"2677 117 OFFCURVE",
"2592 110 OFFCURVE",
"2463 110 CURVE SMOOTH",
"2378 110 OFFCURVE",
"2306 129 OFFCURVE",
"2248 151 CURVE SMOOTH",
"2130 196 OFFCURVE",
"2081 258 OFFCURVE",
"2045 380 CURVE SMOOTH",
"2022 457 OFFCURVE",
"2005 566 OFFCURVE",
"2005 714 CURVE SMOOTH",
"2005 863 OFFCURVE",
"2024 975 OFFCURVE",
"2049 1055 CURVE SMOOTH",
"2086 1174 OFFCURVE",
"2139 1237 OFFCURVE",
"2249 1282 CURVE SMOOTH",
"2304 1305 OFFCURVE",
"2398 1322 OFFCURVE",
"2494 1322 CURVE SMOOTH",
"2595 1322 OFFCURVE",
"2678 1315 OFFCURVE",
"2756 1264 CURVE SMOOTH",
"2829 1216 OFFCURVE",
"2858 1170 OFFCURVE",
"2871 1033 CURVE",
"3040 1033 LINE",
"3042 1183 OFFCURVE",
"2981 1284 OFFCURVE",
"2902 1351 CURVE SMOOTH",
"2795 1442 OFFCURVE",
"2624 1472 OFFCURVE",
"2471 1472 CURVE SMOOTH",
"2339 1472 OFFCURVE",
"2233 1444 OFFCURVE",
"2153 1408 CURVE SMOOTH",
"2014 1344 OFFCURVE",
"1938 1256 OFFCURVE",
"1883 1097 CURVE SMOOTH",
"1850 1002 OFFCURVE",
"1825 872 OFFCURVE",
"1825 699 CURVE SMOOTH",
"1825 559 OFFCURVE",
"1846 436 OFFCURVE",
"1879 337 CURVE SMOOTH",
"1930 178 OFFCURVE",
"2005 84 OFFCURVE",
"2158 20 CURVE SMOOTH",
"2234 -13 OFFCURVE",
"2338 -39 OFFCURVE",
"2470 -39 CURVE SMOOTH",
"2624 -39 OFFCURVE",
"2799 -6 OFFCURVE",
"2902 82 CURVE SMOOTH",
"2980 149 OFFCURVE",
"3042 250 OFFCURVE",
"3040 400 CURVE",
"2871 400 LINE"
);
},
{
closed = 1;
nodes = (
"1155 1323 OFFCURVE",
"1245 1128 OFFCURVE",
"1245 729 CURVE SMOOTH",
"1245 325 OFFCURVE",
"1162 110 OFFCURVE",
"775 110 CURVE SMOOTH",
"391 110 OFFCURVE",
"304 316 OFFCURVE",
"304 721 CURVE SMOOTH",
"304 1122 OFFCURVE",
"389 1323 OFFCURVE",
"775 1323 CURVE SMOOTH"
);
},
{
closed = 1;
nodes = (
"125 230 OFFCURVE",
"288 -38 OFFCURVE",
"775 -38 CURVE SMOOTH",
"1262 -38 OFFCURVE",
"1424 230 OFFCURVE",
"1424 728 CURVE SMOOTH",
"1424 1215 OFFCURVE",
"1251 1472 OFFCURVE",
"775 1472 CURVE SMOOTH",
"300 1472 OFFCURVE",
"125 1218 OFFCURVE",
"125 727 CURVE SMOOTH"
);
}
);
};
layerId = "2F8B9CD4-7B7F-4ACC-ADF3-B6E0F7033A19";
paths = (
{
closed = 1;
nodes = (
"1171 214 OFFCURVE",
"1024 110 OFFCURVE",
"763 110 CURVE SMOOTH",
"433 110 OFFCURVE",
"305 279 OFFCURVE",
"305 714 CURVE SMOOTH",
"305 1152 OFFCURVE",
"442 1322 OFFCURVE",
"794 1322 CURVE SMOOTH",
"1035 1322 OFFCURVE",
"1171 1218 OFFCURVE",
"1171 1033 CURVE",
"1340 1033 LINE",
"1344 1314 OFFCURVE",
"1147 1472 OFFCURVE",
"794 1472 CURVE SMOOTH",
"339 1472 OFFCURVE",
"125 1225 OFFCURVE",
"125 709 CURVE SMOOTH",
"125 200 OFFCURVE",
"331 -39 OFFCURVE",
"770 -39 CURVE SMOOTH",
"1139 -39 OFFCURVE",
"1344 119 OFFCURVE",
"1340 400 CURVE",
"1171 400 LINE"
);
}
);
width = 1450;
}
);
leftKerningGroup = O;
leftMetricsKey = "=O";
note = C;
rightKerningGroup = C;
unicode = 0043;
},
{
glyphname = D;
layers = (
{
anchors = (
{
name = bottom;
position = "{719, 0}";
},
{
name = center;
position = "{433, 721}";
},
{
name = top;
position = "{709, 1441}";
}
);
background = {
paths = (
{
closed = 1;
nodes = (
"872 0 OFFCURVE",
"1055 45 OFFCURVE",
"1166 140 CURVE SMOOTH",
"1312 265 OFFCURVE",
"1362 496 OFFCURVE",
"1362 727 CURVE SMOOTH",
"1362 945 OFFCURVE",
"1318 1159 OFFCURVE",
"1170 1292 CURVE SMOOTH",
"1050 1400 OFFCURVE",
"877 1441 OFFCURVE",
"698 1441 CURVE SMOOTH",
"220 1441 LINE",
"220 0 LINE",
"694 0 LINE SMOOTH"
);
},
{
closed = 1;
nodes = (
"924 1289 OFFCURVE",
"1086 1231 OFFCURVE",
"1144 1033 CURVE SMOOTH",
"1165 961 OFFCURVE",
"1183 862 OFFCURVE",
"1183 723 CURVE SMOOTH",
"1183 579 OFFCURVE",
"1165 477 OFFCURVE",
"1142 405 CURVE SMOOTH",
"1119 333 OFFCURVE",
"1091 295 OFFCURVE",
"1069 271 CURVE SMOOTH",
"993 188 OFFCURVE",
"838 152 OFFCURVE",
"701 152 CURVE SMOOTH",
"394 152 LINE",
"394 1289 LINE",
"683 1289 LINE SMOOTH"
);
}
);
};
layerId = "2F8B9CD4-7B7F-4ACC-ADF3-B6E0F7033A19";
paths = (
{
closed = 1;
nodes = (
"1148 0 OFFCURVE",
"1362 233 OFFCURVE",
"1362 727 CURVE SMOOTH",
"1362 1213 OFFCURVE",
"1150 1441 OFFCURVE",
"698 1441 CURVE SMOOTH",
"220 1441 LINE",
"220 0 LINE",
"694 0 LINE SMOOTH"
);
},
{
closed = 1;
nodes = (
"1063 1289 OFFCURVE",
"1183 1153 OFFCURVE",
"1183 723 CURVE SMOOTH",
"1183 312 OFFCURVE",
"1048 152 OFFCURVE",
"701 152 CURVE SMOOTH",
"394 152 LINE",
"394 1289 LINE",
"683 1289 LINE SMOOTH"
);
}
);
width = 1487;
}
);
leftKerningGroup = H;
leftMetricsKey = "=H";
note = D;
rightKerningGroup = O;
rightMetricsKey = "=O";
unicode = 0044;
},
{
glyphname = E;
layers = (
{
anchors = (
{
name = bottom;
position = "{706, 0}";
},
{
name = ogonek;
position = "{1066, 0}";
},
{
name = top;
position = "{706, 1441}";
},
{
name = topleft;
position = "{78, 1441}";
}
);
layerId = "2F8B9CD4-7B7F-4ACC-ADF3-B6E0F7033A19";
paths = (
{
closed = 1;
nodes = (
"1183 0 LINE",
"1183 152 LINE",
"394 152 LINE",
"394 677 LINE",
"1062 677 LINE",
"1062 827 LINE",
"394 827 LINE",
"394 1289 LINE",
"1180 1289 LINE",
"1180 1441 LINE",
"220 1441 LINE",
"220 0 LINE"
);
}
);
width = 1293;
}
);
leftKerningGroup = H;
leftMetricsKey = "=H";
note = E;
rightKerningGroup = E;
unicode = 0045;
},
{
color = 3;
glyphname = Eth;
layers = (
{
background = {
paths = (
{
closed = 1;
nodes = (
"63 657 LINE",
"663 657 LINE",
"663 810 LINE",
"63 810 LINE"
);
},
{
closed = 1;
nodes = (
"1168 0 OFFCURVE",
"1382 233 OFFCURVE",
"1382 727 CURVE SMOOTH",
"1382 1213 OFFCURVE",
"1170 1441 OFFCURVE",
"718 1441 CURVE SMOOTH",
"240 1441 LINE",
"240 0 LINE",
"714 0 LINE SMOOTH"
);
},
{
closed = 1;
nodes = (
"1083 1289 OFFCURVE",
"1203 1153 OFFCURVE",
"1203 723 CURVE SMOOTH",
"1203 312 OFFCURVE",
"1068 152 OFFCURVE",
"721 152 CURVE SMOOTH",
"414 152 LINE",
"414 1289 LINE",
"703 1289 LINE SMOOTH"
);
}
);
};
layerId = "2F8B9CD4-7B7F-4ACC-ADF3-B6E0F7033A19";
paths = (
{
closed = 1;
nodes = (
"63 657 LINE",
"240 657 LINE",
"240 0 LINE",
"714 0 LINE SMOOTH",
"1168 0 OFFCURVE",
"1382 233 OFFCURVE",
"1382 727 CURVE SMOOTH",
"1382 1213 OFFCURVE",
"1170 1441 OFFCURVE",
"718 1441 CURVE SMOOTH",
"240 1441 LINE",
"240 810 LINE",
"63 810 LINE"
);
},
{
closed = 1;
nodes = (
"414 657 LINE",
"663 657 LINE",
"663 810 LINE",
"414 810 LINE",
"414 1289 LINE",
"703 1289 LINE SMOOTH",
"1083 1289 OFFCURVE",
"1203 1153 OFFCURVE",
"1203 723 CURVE SMOOTH",
"1203 312 OFFCURVE",
"1068 152 OFFCURVE",
"721 152 CURVE SMOOTH",
"414 152 LINE"
);
}
);
width = 1507;
}
);
leftKerningGroup = H;
note = Eth;
rightKerningGroup = O;
rightMetricsKey = "=D";
unicode = 00D0;
},
{
glyphname = F;
layers = (
{
anchors = (
{
name = bottom;
position = "{596, 0}";
},
{
name = top;
position = "{596, 1441}";
}
);
layerId = "2F8B9CD4-7B7F-4ACC-ADF3-B6E0F7033A19";
paths = (
{
closed = 1;
nodes = (
"394 0 LINE",
"394 677 LINE",
"1055 677 LINE",
"1055 827 LINE",
"394 827 LINE",
"394 1289 LINE",
"1180 1289 LINE",
"1180 1441 LINE",
"220 1441 LINE",
"220 0 LINE"
);
}
);
width = 1250;
}
);
leftKerningGroup = H;
leftMetricsKey = "=H";
note = F;
rightKerningGroup = F;
unicode = 0046;
},
{
color = 3;
glyphname = G;
layers = (
{
anchors = (
{
name = bottom;
position = "{748, 0}";
},
{
name = top;
position = "{748, 1441}";
}
);
background = {
paths = (
{
closed = 1;
nodes = (
"1625 872 OFFCURVE",
"1650 1002 OFFCURVE",
"1683 1097 CURVE SMOOTH",
"1738 1256 OFFCURVE",
"1814 1344 OFFCURVE",
"1953 1408 CURVE SMOOTH",
"2033 1444 OFFCURVE",
"2139 1472 OFFCURVE",
"2271 1472 CURVE SMOOTH",
"2424 1472 OFFCURVE",
"2595 1442 OFFCURVE",
"2702 1351 CURVE SMOOTH",
"2780 1284 OFFCURVE",
"2842 1183 OFFCURVE",
"2840 1033 CURVE",
"2671 1033 LINE",
"2658 1170 OFFCURVE",
"2629 1216 OFFCURVE",
"2556 1264 CURVE SMOOTH",
"2478 1315 OFFCURVE",
"2395 1322 OFFCURVE",
"2274 1322 CURVE SMOOTH",
"2178 1322 OFFCURVE",
"2104 1305 OFFCURVE",
"2049 1282 CURVE SMOOTH",
"1939 1237 OFFCURVE",
"1886 1174 OFFCURVE",
"1849 1055 CURVE SMOOTH",
"1824 975 OFFCURVE",
"1805 863 OFFCURVE",
"1805 714 CURVE SMOOTH",
"1805 566 OFFCURVE",
"1822 457 OFFCURVE",
"1845 380 CURVE SMOOTH",
"1881 258 OFFCURVE",
"1930 196 OFFCURVE",
"2048 151 CURVE SMOOTH",
"2108 128 OFFCURVE",
"2182 110 OFFCURVE",
"2270 110 CURVE SMOOTH",
"2359 110 OFFCURVE",
"2455 132 OFFCURVE",
"2521 166 CURVE SMOOTH",
"2642 229 OFFCURVE",
"2677 334 OFFCURVE",
"2677 465 CURVE SMOOTH",
"2677 544 LINE",
"2240 544 LINE",
"2240 704 LINE",
"2851 704 LINE",
"2851 -10 LINE",
"2727 -10 LINE",
"2710 193 LINE",
"2646 71 OFFCURVE",
"2582 16 OFFCURVE",
"2435 -24 CURVE SMOOTH",
"2388 -37 OFFCURVE",
"2332 -39 OFFCURVE",
"2270 -39 CURVE SMOOTH",
"2138 -39 OFFCURVE",
"2034 -13 OFFCURVE",
"1958 20 CURVE SMOOTH",
"1805 84 OFFCURVE",
"1730 178 OFFCURVE",
"1679 337 CURVE SMOOTH",
"1646 436 OFFCURVE",
"1625 559 OFFCURVE",
"1625 699 CURVE SMOOTH"
);
},
{
closed = 1;
nodes = (
"1171 214 OFFCURVE",
"1024 110 OFFCURVE",
"763 110 CURVE SMOOTH",
"433 110 OFFCURVE",
"305 279 OFFCURVE",
"305 714 CURVE SMOOTH",
"305 1152 OFFCURVE",
"442 1322 OFFCURVE",
"794 1322 CURVE SMOOTH",
"1035 1322 OFFCURVE",
"1171 1218 OFFCURVE",
"1171 1033 CURVE",
"1340 1033 LINE",
"1344 1314 OFFCURVE",
"1147 1472 OFFCURVE",
"794 1472 CURVE SMOOTH",
"339 1472 OFFCURVE",
"125 1225 OFFCURVE",
"125 709 CURVE SMOOTH",
"125 200 OFFCURVE",
"331 -39 OFFCURVE",
"770 -39 CURVE SMOOTH",
"1139 -39 OFFCURVE",
"1344 119 OFFCURVE",
"1340 400 CURVE",
"1171 400 LINE"
);
}
);
};
layerId = "2F8B9CD4-7B7F-4ACC-ADF3-B6E0F7033A19";
paths = (
{
closed = 1;
nodes = (
"125 1225 OFFCURVE",
"339 1472 OFFCURVE",
"794 1472 CURVE SMOOTH",
"1147 1472 OFFCURVE",
"1344 1314 OFFCURVE",
"1340 1033 CURVE",
"1171 1033 LINE",
"1171 1218 OFFCURVE",
"1035 1322 OFFCURVE",
"794 1322 CURVE SMOOTH",
"442 1322 OFFCURVE",
"305 1152 OFFCURVE",
"305 714 CURVE SMOOTH",
"305 279 OFFCURVE",
"433 110 OFFCURVE",
"770 110 CURVE SMOOTH",
"1030 110 OFFCURVE",
"1177 238 OFFCURVE",
"1177 465 CURVE SMOOTH",
"1177 552 LINE",
"740 552 LINE",
"740 704 LINE",
"1351 704 LINE",
"1351 -10 LINE",
"1227 -10 LINE",
"1206 238 LINE",
"1225 224 LINE",
"1142 45 OFFCURVE",
"996 -39 OFFCURVE",
"770 -39 CURVE SMOOTH",
"331 -39 OFFCURVE",
"125 200 OFFCURVE",
"125 708 CURVE SMOOTH"
);
}
);
width = 1556;
}
);
leftKerningGroup = O;
leftMetricsKey = "=O";
note = G;
rightKerningGroup = G;
unicode = 0047;
},
{
color = 3;
glyphname = H;
layers = (
{
anchors = (
{
name = bottom;
position = "{795, 0}";
},
{
name = center;
position = "{795, 721}";
},
{
name = top;
position = "{795, 1441}";
},
{
name = topleft;
position = "{53, 1441}";
}
);
layerId = "2F8B9CD4-7B7F-4ACC-ADF3-B6E0F7033A19";
paths = (
{
closed = 1;
nodes = (
"394 0 LINE",
"394 677 LINE",
"1196 677 LINE",
"1196 0 LINE",
"1370 0 LINE",
"1370 1441 LINE",
"1196 1441 LINE",
"1196 829 LINE",
"394 829 LINE",
"394 1441 LINE",
"220 1441 LINE",
"220 0 LINE"
);
}
);
width = 1590;
}
);
leftKerningGroup = H;
note = H;
rightKerningGroup = H;
unicode = 0048;
},
{
color = 3;
glyphname = I;
layers = (
{
anchors = (
{
name = bottom;
position = "{495, 0}";
},
{
name = ogonek;
position = "{554, 0}";
},
{
name = top;
position = "{495, 1441}";
},
{
name = topleft;
position = "{144, 1441}";
}
);
layerId = "2F8B9CD4-7B7F-4ACC-ADF3-B6E0F7033A19";
paths = (
{
closed = 1;
nodes = (
"410 1294 LINE",
"410 147 LINE",
"210 147 LINE",
"210 0 LINE",
"784 0 LINE",
"784 147 LINE",
"584 147 LINE",
"584 1294 LINE",
"794 1294 LINE",
"794 1441 LINE",
"200 1441 LINE",
"200 1294 LINE"
);
}
);
width = 994;
}
);
leftKerningGroup = I;
note = I;
rightKerningGroup = I;
unicode = 0049;
},
{
color = 3;
glyphname = J;
layers = (
{
anchors = (
{
name = bottom;
position = "{409, -42}";
},
{
name = top;
position = "{652, 1441}";
}
);
background = {
paths = (
{
closed = 1;
nodes = (
"564 191 OFFCURVE",
"561 95 OFFCURVE",
"410 95 CURVE SMOOTH",
"283 95 OFFCURVE",
"243 147 OFFCURVE",
"241 275 CURVE",
"81 275 LINE",
"81 266 OFFCURVE",
"80 258 OFFCURVE",
"80 250 CURVE SMOOTH",
"80 56 OFFCURVE",
"205 -42 OFFCURVE",
"409 -42 CURVE SMOOTH",
"652 -42 OFFCURVE",
"738 96 OFFCURVE",
"738 348 CURVE SMOOTH",
"738 1441 LINE",
"564 1441 LINE",
"564 396 LINE SMOOTH"
);
}
);
};
guideLines = (
{
position = "{321, -45}";
}
);
layerId = "2F8B9CD4-7B7F-4ACC-ADF3-B6E0F7033A19";
paths = (
{
closed = 1;
nodes = (
"564 165 OFFCURVE",
"510 92 OFFCURVE",
"394 92 CURVE SMOOTH",
"294 92 OFFCURVE",
"231 138 OFFCURVE",
"231 275 CURVE",
"81 275 LINE",
"81 69 OFFCURVE",
"191 -42 OFFCURVE",
"402 -42 CURVE SMOOTH",
"623 -42 OFFCURVE",
"738 73 OFFCURVE",
"738 318 CURVE SMOOTH",
"738 1441 LINE",
"564 1441 LINE",
"564 306 LINE SMOOTH"
);
}
);
width = 948;
}
);
leftKerningGroup = J;
note = J;
rightKerningGroup = U;
rightMetricsKey = "=U";
unicode = 004A;
},
{
color = 3;
glyphname = K;
layers = (
{
anchors = (
{
name = bottom;
position = "{755, 0}";
},
{
name = top;
position = "{741, 1441}";
}
);
background = {
paths = (
{
closed = 1;
nodes = (
"391 791 LINE",
"391 1441 LINE",
"220 1441 LINE",
"220 0 LINE",
"391 0 LINE",
"391 638 LINE",
"509 638 LINE SMOOTH",
"762 638 OFFCURVE",
"824 577 OFFCURVE",
"922 384 CURVE SMOOTH",
"1118 0 LINE",
"1312 -2 LINE",
"1115 372 LINE SMOOTH",
"983 623 OFFCURVE",
"902 711 OFFCURVE",
"609 745 CURVE",
"609 695 LINE",
"930 741 OFFCURVE",
"993 839 OFFCURVE",
"1117 1094 CURVE SMOOTH",
"1285 1441 LINE",
"1091 1441 LINE",
"918 1081 LINE SMOOTH",
"822 881 OFFCURVE",
"750 791 OFFCURVE",
"509 791 CURVE SMOOTH"
);
}
);
};
guideLines = (
{
position = "{690, 835}";
},
{
position = "{740, 695}";
}
);
layerId = "2F8B9CD4-7B7F-4ACC-ADF3-B6E0F7033A19";
paths = (
{
closed = 1;
nodes = (
"391 791 LINE",
"391 1441 LINE",
"220 1441 LINE",
"220 0 LINE",
"391 0 LINE",
"391 638 LINE",
"509 638 LINE SMOOTH",
"762 638 OFFCURVE",
"824 577 OFFCURVE",
"922 384 CURVE SMOOTH",
"1118 0 LINE",
"1311 0 LINE",
"1115 372 LINE SMOOTH",
"983 623 OFFCURVE",
"902 711 OFFCURVE",
"609 745 CURVE",
"609 695 LINE",
"930 741 OFFCURVE",
"994 838 OFFCURVE",
"1117 1094 CURVE SMOOTH",
"1284 1441 LINE",
"1091 1441 LINE",
"918 1081 LINE SMOOTH",
"822 881 OFFCURVE",
"750 791 OFFCURVE",
"509 791 CURVE SMOOTH"
);
}
);
width = 1406;
}
);
leftKerningGroup = H;
leftMetricsKey = "=H";
note = K;
rightKerningGroup = K;
unicode = 004B;
},
{
color = 3;
glyphname = L;
layers = (
{
anchors = (
{
name = bottom;
position = "{679, 0}";
},
{
name = center;
position = "{862, 811}";
},
{
name = top;
position = "{324, 1441}";
},
{
name = topright;
position = "{498, 981}";
}
);
layerId = "2F8B9CD4-7B7F-4ACC-ADF3-B6E0F7033A19";
paths = (
{
closed = 1;
nodes = (
"1069 152 LINE",
"394 152 LINE",
"394 1441 LINE",
"220 1441 LINE",
"220 0 LINE",
"1069 0 LINE"
);
}
);
width = 1119;
}
);
leftKerningGroup = H;
leftMetricsKey = "=H";
note = L;
rightKerningGroup = L;
unicode = 004C;
},
{
color = 3;
glyphname = Lslash;
layers = (
{
background = {
paths = (
{
closed = 1;
nodes = (
"0 541 LINE",
"0 377 LINE",
"762 873 LINE",
"762 1037 LINE"
);
},
{
closed = 1;
nodes = (
"1069 152 LINE",
"394 152 LINE",
"394 1441 LINE",
"220 1441 LINE",
"220 0 LINE",
"1069 0 LINE"
);
}
);
};
layerId = "2F8B9CD4-7B7F-4ACC-ADF3-B6E0F7033A19";
paths = (
{
closed = 1;
nodes = (
"394 797 LINE",
"394 1441 LINE",
"220 1441 LINE",
"220 684 LINE",
"0 541 LINE",
"0 377 LINE",
"220 520 LINE",
"220 0 LINE",
"1069 0 LINE",
"1069 152 LINE",
"394 152 LINE",
"394 633 LINE",
"762 873 LINE",
"762 1037 LINE"
);
}
);
width = 1119;
}
);
leftKerningGroup = H;
widthMetricsKey = L;
note = Lslash;
rightKerningGroup = L;
rightMetricsKey = L;
unicode = 0141;
},
{
glyphname = M;
layers = (
{
anchors = (
{
name = bottom;
position = "{940, 0}";
},
{
name = top;
position = "{940, 1441}";
}
);
layerId = "2F8B9CD4-7B7F-4ACC-ADF3-B6E0F7033A19";
paths = (
{
closed = 1;
nodes = (
"376 0 LINE",
"376 1286 LINE",
"412 1286 LINE",
"828 174 LINE",
"1059 174 LINE",
"1478 1286 LINE",
"1514 1286 LINE",
"1514 0 LINE",
"1670 0 LINE",
"1670 1441 LINE",
"1373 1441 LINE",
"961 346 LINE",
"926 346 LINE",
"516 1441 LINE",
"220 1441 LINE",
"220 0 LINE"
);
}
);
width = 1890;
}
);
leftKerningGroup = H;
leftMetricsKey = "=H";
note = M;
rightKerningGroup = H;
rightMetricsKey = "=H";
unicode = 004D;
},
{
color = 3;
glyphname = N;
layers = (
{
anchors = (
{
name = bottom;
position = "{841, 0}";
},
{
name = top;
position = "{841, 1441}";
}
);
layerId = "2F8B9CD4-7B7F-4ACC-ADF3-B6E0F7033A19";
paths = (
{
closed = 1;
nodes = (
"376 0 LINE",
"376 1285 LINE",
"408 1285 LINE",
"1199 0 LINE",
"1462 0 LINE",
"1462 1441 LINE",
"1306 1441 LINE",
"1306 173 LINE",
"1274 173 LINE",
"493 1441 LINE",
"220 1441 LINE",
"220 0 LINE"
);
}
);
width = 1682;
}
);
leftKerningGroup = H;
leftMetricsKey = "=H";
note = N;
rightKerningGroup = H;
rightMetricsKey = "=H";
unicode = 004E;
},
{
color = 3;
glyphname = Eng;
layers = (
{
anchors = (
{
name = bottom;
position = "{837, 0}";
},
{
name = top;
position = "{837, 1441}";
}
);
background = {
paths = (
{
closed = 1;
nodes = (
"376 0 LINE",
"376 1285 LINE",
"408 1285 LINE",
"1199 0 LINE",
"1462 0 LINE",
"1462 1441 LINE",
"1306 1441 LINE",
"1306 173 LINE",
"1274 173 LINE",
"493 1441 LINE",
"220 1441 LINE",
"220 0 LINE"
);
}
);
};
layerId = "2F8B9CD4-7B7F-4ACC-ADF3-B6E0F7033A19";
paths = (
{
closed = 1;
nodes = (
"1306 1441 LINE",
"1306 128 LINE",
"1351 173 LINE",
"1274 173 LINE",
"494 1441 LINE",
"220 1441 LINE",
"220 0 LINE",
"376 0 LINE",
"376 1285 LINE",
"409 1285 LINE",
"1199 0 LINE",
"1307 0 LINE",
"1307 -108 LINE SMOOTH",
"1307 -222 OFFCURVE",
"1261 -266 OFFCURVE",
"1143 -266 CURVE SMOOTH",
"1103 -266 OFFCURVE",
"1083 -265 OFFCURVE",
"1037 -255 CURVE",
"1037 -388 LINE",
"1069 -396 OFFCURVE",
"1103 -402 OFFCURVE",
"1153 -402 CURVE SMOOTH",
"1369 -402 OFFCURVE",
"1461 -316 OFFCURVE",
"1461 -87 CURVE SMOOTH",
"1461 0 LINE",
"1462 0 LINE",
"1462 1441 LINE"
);
}
);
width = 1682;
}
);
leftKerningGroup = H;
leftMetricsKey = H;
rightKerningGroup = H;
rightMetricsKey = H;
unicode = 014A;
},
{
glyphname = O;
layers = (
{
anchors = (
{
name = bottom;
position = "{775, 0}";
},
{
name = center;
position = "{775, 721}";
},
{
name = ogonek;
position = "{855, -18}";
},
{
name = top;
position = "{775, 1441}";
},
{
name = topleft;
position = "{24, 1441}";
},
{
name = topright;
position = "{1108, 1409}";
}
);
background = {
paths = (
{
closed = 1;
nodes = (
"1155 1323 OFFCURVE",
"1245 1128 OFFCURVE",
"1245 729 CURVE SMOOTH",
"1245 325 OFFCURVE",
"1162 110 OFFCURVE",
"775 110 CURVE SMOOTH",
"391 110 OFFCURVE",
"304 316 OFFCURVE",
"304 721 CURVE SMOOTH",
"304 1122 OFFCURVE",
"389 1323 OFFCURVE",
"775 1323 CURVE SMOOTH"
);
},
{
closed = 1;
nodes = (
"125 230 OFFCURVE",
"288 -38 OFFCURVE",
"775 -38 CURVE SMOOTH",
"1262 -38 OFFCURVE",
"1424 230 OFFCURVE",
"1424 728 CURVE SMOOTH",
"1424 1215 OFFCURVE",
"1251 1472 OFFCURVE",
"775 1472 CURVE SMOOTH",
"300 1472 OFFCURVE",
"125 1218 OFFCURVE",
"125 727 CURVE SMOOTH"
);
}
);
};
layerId = "2F8B9CD4-7B7F-4ACC-ADF3-B6E0F7033A19";
paths = (
{
closed = 1;
nodes = (
"1155 1323 OFFCURVE",
"1245 1128 OFFCURVE",
"1245 729 CURVE SMOOTH",
"1245 325 OFFCURVE",
"1162 111 OFFCURVE",
"775 111 CURVE SMOOTH",
"391 111 OFFCURVE",
"304 316 OFFCURVE",
"304 721 CURVE SMOOTH",
"304 1122 OFFCURVE",
"389 1323 OFFCURVE",
"775 1323 CURVE SMOOTH"
);
},
{
closed = 1;
nodes = (
"125 230 OFFCURVE",
"288 -38 OFFCURVE",
"775 -38 CURVE SMOOTH",
"1262 -38 OFFCURVE",
"1424 230 OFFCURVE",
"1424 728 CURVE SMOOTH",
"1424 1215 OFFCURVE",
"1251 1472 OFFCURVE",
"775 1472 CURVE SMOOTH",
"300 1472 OFFCURVE",
"125 1218 OFFCURVE",
"125 727 CURVE SMOOTH"
);
}
);
width = 1549;
}
);
leftKerningGroup = O;
note = O;
rightKerningGroup = O;
unicode = 004F;
},
{
color = 3;
glyphname = OE;
layers = (
{
anchors = (
{
name = bottom;
position = "{1181, 0}";
},
{
name = top;
position = "{1181, 1441}";
}
);
background = {
paths = (
{
closed = 1;
nodes = (
"339 1441 OFFCURVE",
"125 1208 OFFCURVE",
"125 714 CURVE SMOOTH",
"125 228 OFFCURVE",
"337 0 OFFCURVE",
"789 0 CURVE SMOOTH",
"1267 0 LINE",
"1267 1441 LINE",
"793 1441 LINE SMOOTH"
);
},
{
closed = 1;
nodes = (
"424 152 OFFCURVE",
"304 288 OFFCURVE",
"304 718 CURVE SMOOTH",
"304 1129 OFFCURVE",
"439 1289 OFFCURVE",
"786 1289 CURVE SMOOTH",
"1093 1289 LINE",
"1093 152 LINE",
"804 152 LINE SMOOTH"
);
},
{
closed = 1;
nodes = (
"2058 0 LINE",
"2058 152 LINE",
"1269 152 LINE",
"1269 677 LINE",
"1937 677 LINE",
"1937 827 LINE",
"1269 827 LINE",
"1269 1289 LINE",
"2055 1289 LINE",
"2055 1441 LINE",
"1095 1441 LINE",
"1095 0 LINE"
);
}
);
};
layerId = "2F8B9CD4-7B7F-4ACC-ADF3-B6E0F7033A19";
paths = (
{
closed = 1;
nodes = (
"339 1441 OFFCURVE",
"125 1208 OFFCURVE",
"125 714 CURVE SMOOTH",
"125 228 OFFCURVE",
"337 0 OFFCURVE",
"789 0 CURVE SMOOTH",
"2058 0 LINE",
"2058 152 LINE",
"1269 152 LINE",
"1269 677 LINE",
"1937 677 LINE",
"1937 827 LINE",
"1269 827 LINE",
"1269 1289 LINE",
"2055 1289 LINE",
"2055 1441 LINE",
"793 1441 LINE SMOOTH"
);
},
{
closed = 1;
nodes = (
"304 1129 OFFCURVE",
"439 1289 OFFCURVE",
"786 1289 CURVE SMOOTH",
"1093 1289 LINE",
"1093 152 LINE",
"804 152 LINE SMOOTH",
"424 152 OFFCURVE",
"304 288 OFFCURVE",
"304 718 CURVE SMOOTH"
);
}
);
width = 2168;
}
);
leftKerningGroup = O;
leftMetricsKey = "=O";
note = OE;
rightKerningGroup = E;
rightMetricsKey = "=E";
unicode = 0152;
},
{
glyphname = P;
layers = (
{
anchors = (
{
name = bottom;
position = "{661, 0}";
},
{
name = top;
position = "{661, 1441}";
}
);
background = {
paths = (
{
closed = 1;
nodes = (
"394 0 LINE",
"394 584 LINE",
"703 584 LINE SMOOTH",
"944 584 OFFCURVE",
"1113 626 OFFCURVE",
"1180 758 CURVE SMOOTH",
"1206 809 OFFCURVE",
"1227 904 OFFCURVE",
"1227 1010 CURVE SMOOTH",
"1227 1100 OFFCURVE",
"1211 1197 OFFCURVE",
"1188 1249 CURVE SMOOTH",
"1115 1415 OFFCURVE",
"930 1441 OFFCURVE",
"659 1441 CURVE SMOOTH",
"220 1441 LINE",
"220 0 LINE"
);
},
{
closed = 1;
nodes = (
"951 747 OFFCURVE",
"898 730 OFFCURVE",
"659 730 CURVE SMOOTH",
"394 730 LINE",
"394 1300 LINE",
"659 1300 LINE SMOOTH",
"898 1300 OFFCURVE",
"951 1283 OFFCURVE",
"999 1235 CURVE SMOOTH",
"1043 1191 OFFCURVE",
"1062 1123 OFFCURVE",
"1062 1010 CURVE SMOOTH",
"1062 907 OFFCURVE",
"1048 840 OFFCURVE",
"999 795 CURVE"
);
}
);
};
guideLines = (
{
angle = 180;
position = "{532, 1293}";
},
{
position = "{791, 732}";
},
{
position = "{1093, 586}";
}
);
layerId = "2F8B9CD4-7B7F-4ACC-ADF3-B6E0F7033A19";
paths = (
{
closed = 1;
nodes = (
"394 0 LINE",
"394 524 LINE",
"659 524 LINE SMOOTH",
"1068 524 OFFCURVE",
"1227 643 OFFCURVE",
"1227 980 CURVE SMOOTH",
"1227 1338 OFFCURVE",
"1091 1441 OFFCURVE",
"659 1441 CURVE SMOOTH",
"220 1441 LINE",
"220 0 LINE"
);
},
{
closed = 1;
nodes = (
"978 670 OFFCURVE",
"659 670 CURVE SMOOTH",
"394 670 LINE",
"394 1300 LINE",
"659 1300 LINE SMOOTH",
"978 1300 OFFCURVE",
"1054 1242 OFFCURVE",
"1054 980 CURVE SMOOTH",
"1054 726 OFFCURVE"
);
}
);
width = 1337;
}
);
leftKerningGroup = H;
leftMetricsKey = "=H";
note = P;
rightKerningGroup = P;
unicode = 0050;
},
{
color = 3;
glyphname = Thorn;
layers = (
{
background = {
paths = (
{
closed = 1;
nodes = (
"394 194 LINE",
"394 294 LINE",
"659 294 LINE SMOOTH",
"1068 294 OFFCURVE",
"1227 413 OFFCURVE",
"1227 750 CURVE SMOOTH",
"1227 1108 OFFCURVE",
"1091 1211 OFFCURVE",
"659 1211 CURVE SMOOTH",
"220 1211 LINE",
"220 194 LINE"
);
},
{
closed = 1;
nodes = (
"1054 496 OFFCURVE",
"978 440 OFFCURVE",
"659 440 CURVE SMOOTH",
"394 440 LINE",
"394 1070 LINE",
"659 1070 LINE SMOOTH",
"978 1070 OFFCURVE",
"1054 1012 OFFCURVE",
"1054 750 CURVE SMOOTH"
);
}
);
};
layerId = "2F8B9CD4-7B7F-4ACC-ADF3-B6E0F7033A19";
paths = (
{
closed = 1;
nodes = (
"394 0 LINE",
"394 294 LINE",
"659 294 LINE SMOOTH",
"1068 294 OFFCURVE",
"1227 413 OFFCURVE",
"1227 750 CURVE SMOOTH",
"1227 1108 OFFCURVE",
"1091 1211 OFFCURVE",
"659 1211 CURVE SMOOTH",
"394 1211 LINE",
"394 1441 LINE",
"220 1441 LINE",
"220 0 LINE"
);
},
{
closed = 1;
nodes = (
"394 1070 LINE",
"659 1070 LINE SMOOTH",
"978 1070 OFFCURVE",
"1054 1012 OFFCURVE",
"1054 750 CURVE SMOOTH",
"1054 496 OFFCURVE",
"978 440 OFFCURVE",
"659 440 CURVE SMOOTH",
"394 440 LINE"
);
}
);
width = 1337;
}
);
leftKerningGroup = H;
leftMetricsKey = "=H";
note = Thorn;
rightKerningGroup = Thorn;
rightMetricsKey = P;
unicode = 00DE;
},
{
color = 3;
glyphname = Q;
layers = (
{
anchors = (
{
name = bottom;
position = "{769, 0}";
},
{
name = center;
position = "{775, 721}";
},
{
name = ogonek;
position = "{855, -18}";
},
{
name = top;
position = "{769, 1441}";
},
{
name = topleft;
position = "{24, 1441}";
},
{
name = topright;
position = "{1108, 1409}";
}
);
layerId = "2F8B9CD4-7B7F-4ACC-ADF3-B6E0F7033A19";
paths = (
{
closed = 1;
nodes = (
"774 -308 LINE",
"1429 -308 LINE",
"1429 -158 LINE",
"774 -158 LINE"
);
},
{
closed = 1;
nodes = (
"1155 1323 OFFCURVE",
"1245 1128 OFFCURVE",
"1245 729 CURVE SMOOTH",
"1245 325 OFFCURVE",
"1162 110 OFFCURVE",
"775 110 CURVE SMOOTH",
"391 110 OFFCURVE",
"304 316 OFFCURVE",
"304 721 CURVE SMOOTH",
"304 1122 OFFCURVE",
"389 1323 OFFCURVE",
"775 1323 CURVE SMOOTH"
);
},
{
closed = 1;
nodes = (
"125 230 OFFCURVE",
"288 -38 OFFCURVE",
"775 -38 CURVE SMOOTH",
"1262 -38 OFFCURVE",
"1424 230 OFFCURVE",
"1424 728 CURVE SMOOTH",
"1424 1215 OFFCURVE",
"1251 1472 OFFCURVE",
"775 1472 CURVE SMOOTH",
"300 1472 OFFCURVE",
"125 1218 OFFCURVE",
"125 727 CURVE SMOOTH"
);
}
);
width = 1554;
}
);
leftKerningGroup = O;
leftMetricsKey = "=O";
note = Q;
rightKerningGroup = O;
rightMetricsKey = "=O";
unicode = 0051;
},
{
color = 3;
glyphname = R;
layers = (
{
anchors = (
{
name = bottom;
position = "{735, 0}";
},
{
name = top;
position = "{705, 1441}";
}
);
background = {
paths = (
{
closed = 1;
nodes = (
"2294 0 LINE",
"2294 639 LINE",
"2582 639 LINE SMOOTH",
"2807 639 OFFCURVE",
"2869 584 OFFCURVE",
"2915 371 CURVE SMOOTH",
"2996 0 LINE",
"3172 0 LINE",
"3090 366 LINE SMOOTH",
"3036 609 OFFCURVE",
"3038 682 OFFCURVE",
"2777 725 CURVE",
"2784 709 LINE",
"3036 742 OFFCURVE",
"3127 848 OFFCURVE",
"3127 1040 CURVE SMOOTH",
"3127 1345 OFFCURVE",
"2999 1441 OFFCURVE",
"2595 1441 CURVE SMOOTH",
"2120 1441 LINE",
"2120 0 LINE"
);
},
{
closed = 1;
nodes = (
"2294 1293 LINE",
"2591 1293 LINE SMOOTH",
"2871 1293 OFFCURVE",
"2959 1232 OFFCURVE",
"2959 1040 CURVE SMOOTH",
"2959 856 OFFCURVE",
"2810 785 OFFCURVE",
"2582 785 CURVE SMOOTH",
"2294 785 LINE"
);
},
{
closed = 1;
nodes = (
"982 1294 OFFCURVE",
"1059 1242 OFFCURVE",
"1059 1079 CURVE SMOOTH",
"1059 902 OFFCURVE",
"979 833 OFFCURVE",
"772 833 CURVE SMOOTH",
"410 833 LINE",
"410 1294 LINE",
"740 1294 LINE SMOOTH"
);
},
{
closed = 1;
nodes = (
"1016 691 OFFCURVE",
"1111 612 OFFCURVE",
"1111 410 CURVE SMOOTH",
"1111 209 OFFCURVE",
"1036 146 OFFCURVE",
"797 146 CURVE SMOOTH",
"410 146 LINE",
"410 691 LINE",
"772 691 LINE SMOOTH"
);
},
{
closed = 1;
nodes = (
"798 0 LINE SMOOTH",
"1141 0 OFFCURVE",
"1289 130 OFFCURVE",
"1289 411 CURVE SMOOTH",
"1289 632 OFFCURVE",
"1180 750 OFFCURVE",
"949 775 CURVE",
"952 762 LINE",
"1144 799 OFFCURVE",
"1218 898 OFFCURVE",
"1218 1098 CURVE SMOOTH",
"1218 1354 OFFCURVE",
"1063 1441 OFFCURVE",
"729 1441 CURVE SMOOTH",
"240 1441 LINE",
"240 0 LINE"
);
}
);
};
layerId = "2F8B9CD4-7B7F-4ACC-ADF3-B6E0F7033A19";
paths = (
{
closed = 1;
nodes = (
"394 0 LINE",
"394 639 LINE",
"682 639 LINE SMOOTH",
"907 639 OFFCURVE",
"969 584 OFFCURVE",
"1015 371 CURVE SMOOTH",
"1096 0 LINE",
"1272 0 LINE",
"1176 432 LINE SMOOTH",
"1128 646 OFFCURVE",
"1073 688 OFFCURVE",
"877 725 CURVE",
"884 699 LINE",
"1116 739 OFFCURVE",
"1227 858 OFFCURVE",
"1227 1050 CURVE SMOOTH",
"1227 1335 OFFCURVE",
"1099 1441 OFFCURVE",
"695 1441 CURVE SMOOTH",
"220 1441 LINE",
"220 0 LINE"
);
},
{
closed = 1;
nodes = (
"394 1293 LINE",
"731 1293 LINE SMOOTH",
"981 1293 OFFCURVE",
"1054 1232 OFFCURVE",
"1054 1040 CURVE SMOOTH",
"1054 856 OFFCURVE",
"940 785 OFFCURVE",
"722 785 CURVE SMOOTH",
"394 785 LINE"
);
}
);
width = 1427;
}
);
leftKerningGroup = H;
leftMetricsKey = "=H";
note = R;
rightKerningGroup = R;
unicode = 0052;
},
{
glyphname = S;
layers = (
{
anchors = (
{
name = bottom;
position = "{655, 0}";
},
{
name = top;
position = "{655, 1441}";
}
);
background = {
paths = (
{
closed = 1;
nodes = (
"150 82 OFFCURVE",
"300 -29 OFFCURVE",
"667 -29 CURVE SMOOTH",
"1025 -29 OFFCURVE",
"1184 108 OFFCURVE",
"1184 400 CURVE SMOOTH",
"1184 640 OFFCURVE",
"1051 775 OFFCURVE",
"737 824 CURVE SMOOTH",
"412 875 OFFCURVE",
"328 936 OFFCURVE",
"328 1101 CURVE SMOOTH",
"328 1262 OFFCURVE",
"421 1325 OFFCURVE",
"661 1325 CURVE SMOOTH",
"907 1325 OFFCURVE",
"985 1274 OFFCURVE",
"985 1111 CURVE",
"1144 1111 LINE",
"1144 1375 OFFCURVE",
"1013 1477 OFFCURVE",
"676 1477 CURVE SMOOTH",
"321 1477 OFFCURVE",
"154 1355 OFFCURVE",
"154 1097 CURVE SMOOTH",
"154 860 OFFCURVE",
"283 728 OFFCURVE",
"587 684 CURVE SMOOTH",
"913 637 OFFCURVE",
"1010 565 OFFCURVE",
"1010 392 CURVE SMOOTH",
"1010 198 OFFCURVE",
"922 122 OFFCURVE",
"674 122 CURVE SMOOTH",
"406 122 OFFCURVE",
"315 181 OFFCURVE",
"315 366 CURVE",
"150 366 LINE"
);
}
);
};
layerId = "2F8B9CD4-7B7F-4ACC-ADF3-B6E0F7033A19";
paths = (
{
closed = 1;
nodes = (
"150 82 OFFCURVE",
"310 -29 OFFCURVE",
"657 -29 CURVE SMOOTH",
"1025 -29 OFFCURVE",
"1184 118 OFFCURVE",
"1184 400 CURVE SMOOTH",
"1184 640 OFFCURVE",
"1049 767 OFFCURVE",
"762 819 CURVE SMOOTH",
"584 851 LINE SMOOTH",
"391 886 OFFCURVE",
"332 958 OFFCURVE",
"332 1093 CURVE SMOOTH",
"332 1259 OFFCURVE",
"435 1332 OFFCURVE",
"681 1332 CURVE SMOOTH",
"921 1332 OFFCURVE",
"989 1274 OFFCURVE",
"989 1111 CURVE",
"1148 1111 LINE",
"1148 1375 OFFCURVE",
"1017 1477 OFFCURVE",
"686 1477 CURVE SMOOTH",
"325 1477 OFFCURVE",
"158 1339 OFFCURVE",
"158 1087 CURVE SMOOTH",
"158 854 OFFCURVE",
"289 740 OFFCURVE",
"567 690 CURVE SMOOTH",
"745 658 LINE SMOOTH",
"943 622 OFFCURVE",
"1010 538 OFFCURVE",
"1010 392 CURVE SMOOTH",
"1010 198 OFFCURVE",
"922 116 OFFCURVE",
"674 116 CURVE SMOOTH",
"406 116 OFFCURVE",
"315 181 OFFCURVE",
"315 366 CURVE",
"150 366 LINE"
);
}
);
width = 1314;
}
);
leftKerningGroup = S;
note = S;
rightKerningGroup = S;
unicode = 0053;
},
{
color = 3;
glyphname = Germandbls;
layers = (
{
background = {
paths = (
{
closed = 1;
nodes = (
"3167 847 OFFCURVE",
"3110 945 OFFCURVE",
"3110 1081 CURVE SMOOTH",
"3110 1240 OFFCURVE",
"3215 1329 OFFCURVE",
"3401 1329 CURVE SMOOTH",
"3608 1329 LINE",
"3608 1477 LINE",
"3045 1477 LINE SMOOTH",
"2561 1477 OFFCURVE",
"2410 1266 OFFCURVE",
"2410 905 CURVE SMOOTH",
"2410 0 LINE",
"2584 0 LINE",
"2584 901 LINE SMOOTH",
"2584 1191 OFFCURVE",
"2668 1331 OFFCURVE",
"3055 1331 CURVE SMOOTH",
"3205 1331 LINE",
"3205 1387 LINE",
"3048 1353 OFFCURVE",
"2936 1227 OFFCURVE",
"2936 1057 CURVE SMOOTH",
"2936 839 OFFCURVE",
"3061 715 OFFCURVE",
"3325 651 CURVE SMOOTH",
"3571 592 OFFCURVE",
"3632 502 OFFCURVE",
"3632 342 CURVE SMOOTH",
"3632 184 OFFCURVE",
"3524 122 OFFCURVE",
"3346 122 CURVE SMOOTH",
"3142 122 OFFCURVE",
"3067 197 OFFCURVE",
"3067 366 CURVE",
"2902 366 LINE",
"2902 111 OFFCURVE",
"3038 -29 OFFCURVE",
"3339 -29 CURVE SMOOTH",
"3615 -29 OFFCURVE",
"3806 83 OFFCURVE",
"3806 350 CURVE SMOOTH",
"3806 594 OFFCURVE",
"3686 723 OFFCURVE",
"3437 782 CURVE SMOOTH"
);
},
{
closed = 1;
nodes = (
"696 79 OFFCURVE",
"842 -29 OFFCURVE",
"1145 -29 CURVE SMOOTH",
"1466 -29 OFFCURVE",
"1605 114 OFFCURVE",
"1605 390 CURVE SMOOTH",
"1605 624 OFFCURVE",
"1495 750 OFFCURVE",
"1261 800 CURVE SMOOTH",
"1115 831 LINE SMOOTH",
"958 864 OFFCURVE",
"910 934 OFFCURVE",
"910 1066 CURVE SMOOTH",
"910 1228 OFFCURVE",
"994 1295 OFFCURVE",
"1195 1295 CURVE SMOOTH",
"1390 1295 OFFCURVE",
"1446 1243 OFFCURVE",
"1446 1084 CURVE",
"1569 1084 LINE",
"1569 1341 OFFCURVE",
"1458 1441 OFFCURVE",
"1178 1441 CURVE SMOOTH",
"872 1441 OFFCURVE",
"731 1306 OFFCURVE",
"731 1060 CURVE SMOOTH",
"731 833 OFFCURVE",
"839 718 OFFCURVE",
"1068 670 CURVE SMOOTH",
"1215 639 LINE SMOOTH",
"1378 605 OFFCURVE",
"1433 524 OFFCURVE",
"1433 382 CURVE SMOOTH",
"1433 195 OFFCURVE",
"1361 121 OFFCURVE",
"1157 121 CURVE SMOOTH",
"936 121 OFFCURVE",
"861 178 OFFCURVE",
"861 357 CURVE",
"696 357 LINE"
);
}
);
};
layerId = "2F8B9CD4-7B7F-4ACC-ADF3-B6E0F7033A19";
paths = (
{
closed = 1;
nodes = (
"1115 827 LINE SMOOTH",
"958 860 OFFCURVE",
"910 934 OFFCURVE",
"910 1066 CURVE SMOOTH",
"910 1228 OFFCURVE",
"1004 1293 OFFCURVE",
"1201 1293 CURVE SMOOTH",
"1408 1293 LINE",
"1408 1441 LINE",
"845 1441 LINE SMOOTH",
"361 1441 OFFCURVE",
"210 1235 OFFCURVE",
"210 883 CURVE SMOOTH",
"210 -1 LINE",
"384 -1 LINE",
"384 879 LINE SMOOTH",
"384 1162 OFFCURVE",
"468 1294 OFFCURVE",
"855 1294 CURVE SMOOTH",
"1005 1294 LINE",
"1005 1351 LINE",
"829 1314 OFFCURVE",
"733 1197 OFFCURVE",
"733 1031 CURVE SMOOTH",
"733 837 OFFCURVE",
"839 723 OFFCURVE",
"1068 674 CURVE SMOOTH",
"1214 643 LINE SMOOTH",
"1378 608 OFFCURVE",
"1435 524 OFFCURVE",
"1435 382 CURVE SMOOTH",
"1435 195 OFFCURVE",
"1353 119 OFFCURVE",
"1157 119 CURVE SMOOTH",
"944 119 OFFCURVE",
"861 178 OFFCURVE",
"861 357 CURVE",
"696 357 LINE",
"696 79 OFFCURVE",
"844 -29 OFFCURVE",
"1145 -29 CURVE SMOOTH",
"1466 -29 OFFCURVE",
"1605 114 OFFCURVE",
"1605 390 CURVE SMOOTH",
"1605 624 OFFCURVE",
"1495 746 OFFCURVE",
"1261 796 CURVE SMOOTH"
);
}
);
width = 1725;
}
);
leftKerningGroup = H;
rightKerningGroup = S;
unicode = 1E9E;
},
{
color = 3;
glyphname = Schwa;
layers = (
{
anchors = (
{
name = bottom;
position = "{760, 0}";
},
{
name = top;
position = "{760, 1441}";
}
);
background = {
paths = (
{
closed = 1;
nodes = (
"1128 1323 OFFCURVE",
"1215 1128 OFFCURVE",
"1215 729 CURVE SMOOTH",
"1215 325 OFFCURVE",
"1135 110 OFFCURVE",
"760 110 CURVE SMOOTH",
"388 110 OFFCURVE",
"304 316 OFFCURVE",
"304 721 CURVE SMOOTH",
"304 1122 OFFCURVE",
"386 1323 OFFCURVE",
"760 1323 CURVE SMOOTH"
);
},
{
closed = 1;
nodes = (
"125 230 OFFCURVE",
"284 -38 OFFCURVE",
"760 -38 CURVE SMOOTH",
"1236 -38 OFFCURVE",
"1394 230 OFFCURVE",
"1394 728 CURVE SMOOTH",
"1394 1215 OFFCURVE",
"1225 1472 OFFCURVE",
"760 1472 CURVE SMOOTH",
"296 1472 OFFCURVE",
"125 1218 OFFCURVE",
"125 727 CURVE SMOOTH"
);
}
);
};
layerId = "2F8B9CD4-7B7F-4ACC-ADF3-B6E0F7033A19";
paths = (
{
closed = 1;
nodes = (
"125 734 LINE",
"125 228 OFFCURVE",
"284 -38 OFFCURVE",
"760 -38 CURVE SMOOTH",
"1236 -38 OFFCURVE",
"1394 230 OFFCURVE",
"1394 728 CURVE SMOOTH",
"1394 1233 OFFCURVE",
"1188 1472 OFFCURVE",
"749 1472 CURVE SMOOTH",
"380 1472 OFFCURVE",
"175 1314 OFFCURVE",
"179 1033 CURVE",
"348 1033 LINE",
"348 1219 OFFCURVE",
"495 1323 OFFCURVE",
"756 1323 CURVE SMOOTH",
"1086 1323 OFFCURVE",
"1213 1154 OFFCURVE",
"1214 719 CURVE SMOOTH",
"1215 325 OFFCURVE",
"1135 110 OFFCURVE",
"760 110 CURVE SMOOTH",
"439 110 OFFCURVE",
"332 262 OFFCURVE",
"308 584 CURVE",
"1322 584 LINE",
"1322 734 LINE"
);
}
);
width = 1519;
}
);
leftKerningGroup = O;
leftMetricsKey = "=O";
rightKerningGroup = O;
rightMetricsKey = "=O";
unicode = 018F;
},
{
color = 3;
glyphname = T;
layers = (
{
anchors = (
{
name = bottom;
position = "{585, 0}";
},
{
name = center;
position = "{585, 721}";
},
{
name = top;
position = "{585, 1441}";
}
);
layerId = "2F8B9CD4-7B7F-4ACC-ADF3-B6E0F7033A19";
paths = (
{
closed = 1;
nodes = (
"497 1289 LINE",
"497 -1 LINE",
"670 -1 LINE",
"670 1289 LINE",
"1117 1289 LINE",
"1117 1441 LINE",
"50 1441 LINE",
"50 1289 LINE"
);
}
);
width = 1166;
}
);
leftKerningGroup = T;
note = T;
rightKerningGroup = T;
unicode = 0054;
},
{
color = 3;
glyphname = U;
layers = (
{
anchors = (
{
name = bottom;
position = "{790, 0}";
},
{
name = ogonek;
position = "{870, 0}";
},
{
name = top;
position = "{790, 1441}";
},
{
name = topright;
position = "{1299, 1441}";
}
);
background = {
paths = (
{
closed = 1;
nodes = (
"384 1441 LINE",
"210 1441 LINE",
"210 684 LINE SMOOTH",
"210 497 OFFCURVE",
"226 373 OFFCURVE",
"251 279 CURVE SMOOTH",
"278 176 OFFCURVE",
"337 60 OFFCURVE",
"490 3 CURVE SMOOTH",
"563 -24 OFFCURVE",
"667 -48 OFFCURVE",
"790 -48 CURVE SMOOTH",
"911 -48 OFFCURVE",
"1020 -25 OFFCURVE",
"1093 3 CURVE SMOOTH",
"1242 60 OFFCURVE",
"1301 176 OFFCURVE",
"1328 279 CURVE SMOOTH",
"1353 376 OFFCURVE",
"1369 497 OFFCURVE",
"1369 684 CURVE SMOOTH",
"1369 1441 LINE",
"1195 1441 LINE",
"1195 681 LINE SMOOTH",
"1195 425 OFFCURVE",
"1183 211 OFFCURVE",
"1027 151 CURVE SMOOTH",
"971 130 OFFCURVE",
"892 109 OFFCURVE",
"790 109 CURVE SMOOTH",
"690 109 OFFCURVE",
"607 130 OFFCURVE",
"552 151 CURVE SMOOTH",
"396 212 OFFCURVE",
"384 425 OFFCURVE",
"384 681 CURVE SMOOTH"
);
}
);
};
layerId = "2F8B9CD4-7B7F-4ACC-ADF3-B6E0F7033A19";
paths = (
{
closed = 1;
nodes = (
"384 1441 LINE",
"210 1441 LINE",
"210 534 LINE SMOOTH",
"210 162 OFFCURVE",
"419 -48 OFFCURVE",
"790 -48 CURVE SMOOTH",
"1161 -48 OFFCURVE",
"1369 162 OFFCURVE",
"1369 534 CURVE SMOOTH",
"1369 1441 LINE",
"1195 1441 LINE",
"1195 531 LINE SMOOTH",
"1195 261 OFFCURVE",
"1049 109 OFFCURVE",
"790 109 CURVE SMOOTH",
"530 109 OFFCURVE",
"384 261 OFFCURVE",
"384 531 CURVE SMOOTH"
);
}
);
width = 1579;
}
);
leftKerningGroup = U;
note = U;
rightKerningGroup = U;
unicode = 0055;
},
{
color = 3;
glyphname = V;
layers = (
{
anchors = (
{
name = bottom;
position = "{655, 0}";
},
{
name = top;
position = "{655, 1441}";
}
);
layerId = "2F8B9CD4-7B7F-4ACC-ADF3-B6E0F7033A19";
paths = (
{
closed = 1;
nodes = (
"1259 1441 LINE",
"1075 1441 LINE",
"729 372 LINE",
"671 189 LINE",
"638 189 LINE",
"580 372 LINE",
"229 1441 LINE",
"45 1441 LINE",
"551 0 LINE",
"765 0 LINE"
);
}
);
width = 1304;
}
);
leftKerningGroup = V;
note = V;
rightKerningGroup = V;
unicode = 0056;
},
{
color = 3;
glyphname = W;
layers = (
{
anchors = (
{
name = bottom;
position = "{990, 0}";
},
{
name = top;
position = "{990, 1441}";
}
);
background = {
paths = (
{
closed = 1;
nodes = (
"481 0 LINE",
"695 0 LINE",
"991 1235 LINE",
"1026 1235 LINE",
"1311 0 LINE",
"1525 0 LINE",
"1877 1441 LINE",
"1713 1441 LINE",
"1428 193 LINE",
"1399 193 LINE",
"1339 474 LINE",
"1116 1441 LINE",
"891 1441 LINE",
"667 476 LINE",
"609 194 LINE",
"580 194 LINE",
"294 1441 LINE",
"130 1441 LINE"
);
}
);
};
layerId = "2F8B9CD4-7B7F-4ACC-ADF3-B6E0F7033A19";
paths = (
{
closed = 1;
nodes = (
"471 0 LINE",
"705 0 LINE",
"991 1235 LINE",
"1026 1235 LINE",
"1301 0 LINE",
"1535 0 LINE",
"1877 1441 LINE",
"1703 1441 LINE",
"1428 193 LINE",
"1399 193 LINE",
"1339 474 LINE",
"1126 1441 LINE",
"881 1441 LINE",
"667 476 LINE",
"609 194 LINE",
"580 194 LINE",
"304 1441 LINE",
"130 1441 LINE"
);
}
);
width = 2017;
}
);
leftKerningGroup = V;
note = W;
rightKerningGroup = V;
unicode = 0057;
},
{
color = 3;
glyphname = X;
layers = (
{
anchors = (
{
name = bottom;
position = "{647, 0}";
},
{
name = top;
position = "{647, 1441}";
}
);
background = {
paths = (
{
closed = 1;
nodes = (
"579 665 LINE",
"596 665 LINE",
"1045 0 LINE",
"1239 0 LINE",
"705 784 LINE",
"689 784 LINE",
"259 1441 LINE",
"65 1441 LINE"
);
},
{
closed = 1;
nodes = (
"1046 1441 LINE",
"615 779 LINE",
"595 779 LINE",
"66 0 LINE",
"257 0 LINE",
"703 661 LINE",
"723 661 LINE",
"1237 1441 LINE"
);
}
);
};
layerId = "2F8B9CD4-7B7F-4ACC-ADF3-B6E0F7033A19";
paths = (
{
closed = 1;
nodes = (
"574 673 LINE",
"574 748 LINE",
"66 0 LINE",
"257 0 LINE",
"676 621 LINE",
"626 621 LINE",
"1045 0 LINE",
"1239 0 LINE",
"730 747 LINE",
"730 672 LINE",
"1237 1441 LINE",
"1046 1441 LINE",
"629 800 LINE",
"679 800 LINE",
"259 1441 LINE",
"65 1441 LINE"
);
}
);
width = 1304;
}
);
leftKerningGroup = X;
note = X;
rightKerningGroup = X;
unicode = 0058;
},
{
glyphname = Y;
layers = (
{
anchors = (
{
name = bottom;
position = "{593, 0}";
},
{
name = top;
position = "{593, 1441}";
},
{
name = topleft;
position = "{39, 1441}";
}
);
layerId = "2F8B9CD4-7B7F-4ACC-ADF3-B6E0F7033A19";
paths = (
{
closed = 1;
nodes = (
"678 0 LINE",
"678 596 LINE",
"1171 1441 LINE",
"990 1441 LINE",
"606 773 LINE",
"578 773 LINE",
"199 1441 LINE",
"15 1441 LINE",
"504 596 LINE",
"504 0 LINE"
);
}
);
width = 1186;
}
);
leftKerningGroup = Y;
note = Y;
rightKerningGroup = Y;
unicode = 0059;
},
{
glyphname = Z;
layers = (
{
anchors = (
{
name = bottom;
position = "{643, 0}";
},
{
name = top;
position = "{613, 1441}";
}
);
layerId = "2F8B9CD4-7B7F-4ACC-ADF3-B6E0F7033A19";
paths = (
{
closed = 1;
nodes = (
"994 1289 LINE",
"966 1325 LINE",
"100 126 LINE",
"100 0 LINE",
"1145 0 LINE",
"1145 152 LINE",
"264 152 LINE",
"293 115 LINE",
"1142 1313 LINE",
"1142 1441 LINE",
"114 1441 LINE",
"114 1289 LINE"
);
}
);
width = 1245;
}
);
leftKerningGroup = Z;
note = Z;
rightKerningGroup = Z;
unicode = 005A;
},
{
glyphname = a;
layers = (
{
anchors = (
{
name = bottom;
position = "{566, 0}";
},
{
name = ogonek;
position = "{938, -14}";
},
{
name = top;
position = "{566, 1011}";
}
);
background = {
paths = (
{
closed = 1;
nodes = (
"292 793 OFFCURVE",
"321 849 OFFCURVE",
"353 871 CURVE SMOOTH",
"395 900 OFFCURVE",
"452 909 OFFCURVE",
"549 909 CURVE SMOOTH",
"652 909 OFFCURVE",
"710 899 OFFCURVE",
"745 871 CURVE SMOOTH",
"780 844 OFFCURVE",
"797 819 OFFCURVE",
"797 738 CURVE SMOOTH",
"797 701 OFFCURVE",
"797 652 OFFCURVE",
"797 593 CURVE",
"689 593 OFFCURVE",
"643 593 OFFCURVE",
"554 593 CURVE SMOOTH",
"291 593 OFFCURVE",
"119 520 OFFCURVE",
"119 282 CURVE SMOOTH",
"119 77 OFFCURVE",
"273 -23 OFFCURVE",
"470 -23 CURVE SMOOTH",
"601 -23 OFFCURVE",
"751 26 OFFCURVE",
"819 118 CURVE",
"819 42 OFFCURVE",
"885 -24 OFFCURVE",
"981 -24 CURVE SMOOTH",
"1009 -24 OFFCURVE",
"1025 -24 OFFCURVE",
"1051 -15 CURVE",
"1051 107 LINE",
"961 99 OFFCURVE",
"951 122 OFFCURVE",
"951 211 CURVE SMOOTH",
"951 727 LINE SMOOTH",
"951 926 OFFCURVE",
"849 1033 OFFCURVE",
"549 1033 CURVE SMOOTH",
"316 1033 OFFCURVE",
"153 953 OFFCURVE",
"153 738 CURVE",
"292 738 LINE"
);
},
{
closed = 1;
nodes = (
"798 233 OFFCURVE",
"771 194 OFFCURVE",
"722 158 CURVE SMOOTH",
"673 122 OFFCURVE",
"600 99 OFFCURVE",
"507 99 CURVE SMOOTH",
"374 99 OFFCURVE",
"277 159 OFFCURVE",
"277 285 CURVE SMOOTH",
"277 472 OFFCURVE",
"409 479 OFFCURVE",
"731 479 CURVE SMOOTH",
"752 479 OFFCURVE",
"775 479 OFFCURVE",
"798 479 CURVE",
"798 305 LINE SMOOTH"
);
}
);
};
layerId = "2F8B9CD4-7B7F-4ACC-ADF3-B6E0F7033A19";
paths = (
{
closed = 1;
nodes = (
"292 861 OFFCURVE",
"364 909 OFFCURVE",
"549 909 CURVE SMOOTH",
"728 909 OFFCURVE",
"797 858 OFFCURVE",
"797 728 CURVE SMOOTH",
"797 593 LINE",
"587 593 LINE SMOOTH",
"250 593 OFFCURVE",
"119 506 OFFCURVE",
"119 282 CURVE SMOOTH",
"119 87 OFFCURVE",
"245 -23 OFFCURVE",
"470 -23 CURVE SMOOTH",
"627 -23 OFFCURVE",
"752 28 OFFCURVE",
"819 118 CURVE",
"819 33 OFFCURVE",
"884 -24 OFFCURVE",
"981 -24 CURVE SMOOTH",
"1009 -24 OFFCURVE",
"1025 -24 OFFCURVE",
"1051 -15 CURVE",
"1051 107 LINE",
"971 100 OFFCURVE",
"951 121 OFFCURVE",
"951 211 CURVE SMOOTH",
"951 727 LINE SMOOTH",
"951 935 OFFCURVE",
"822 1033 OFFCURVE",
"549 1033 CURVE SMOOTH",
"280 1033 OFFCURVE",
"153 939 OFFCURVE",
"153 738 CURVE",
"292 738 LINE"
);
},
{
closed = 1;
nodes = (
"798 173 OFFCURVE",
"693 102 OFFCURVE",
"507 102 CURVE SMOOTH",
"360 102 OFFCURVE",
"277 166 OFFCURVE",
"277 285 CURVE SMOOTH",
"277 425 OFFCURVE",
"364 479 OFFCURVE",
"586 479 CURVE SMOOTH",
"798 479 LINE",
"798 305 LINE SMOOTH"
);
}
);
width = 1131;
}
);
leftKerningGroup = a;
note = a;
rightKerningGroup = a;
unicode = 0061;
},
{
glyphname = ae;
layers = (
{
anchors = (
{
name = bottom;
position = "{886, 0}";
},
{
name = top;
position = "{886, 1011}";
}
);
background = {
paths = (
{
closed = 1;
nodes = (
"960 835 OFFCURVE",
"1030 911 OFFCURVE",
"1234 911 CURVE SMOOTH",
"1438 911 OFFCURVE",
"1507 835 OFFCURVE",
"1515 594 CURVE",
"952 594 LINE"
);
},
{
closed = 1;
nodes = (
"1500 148 OFFCURVE",
"1429 102 OFFCURVE",
"1252 102 CURVE SMOOTH",
"1035 102 OFFCURVE",
"950 209 OFFCURVE",
"950 480 CURVE",
"1671 480 LINE",
"1671 858 OFFCURVE",
"1571 1034 OFFCURVE",
"1234 1034 CURVE SMOOTH",
"907 1034 OFFCURVE",
"794 858 OFFCURVE",
"794 505 CURVE SMOOTH",
"794 125 OFFCURVE",
"921 -23 OFFCURVE",
"1248 -23 CURVE SMOOTH",
"1530 -23 OFFCURVE",
"1663 73 OFFCURVE",
"1663 278 CURVE",
"1506 278 LINE"
);
}
);
};
layerId = "2F8B9CD4-7B7F-4ACC-ADF3-B6E0F7033A19";
paths = (
{
closed = 1;
nodes = (
"1571 1034 OFFCURVE",
"1234 1034 CURVE SMOOTH",
"1056 1034 OFFCURVE",
"954 984 OFFCURVE",
"886 858 CURVE",
"911 861 LINE",
"867 978 OFFCURVE",
"755 1033 OFFCURVE",
"549 1033 CURVE SMOOTH",
"280 1033 OFFCURVE",
"153 939 OFFCURVE",
"153 738 CURVE",
"292 738 LINE",
"292 861 OFFCURVE",
"364 909 OFFCURVE",
"549 909 CURVE SMOOTH",
"728 909 OFFCURVE",
"797 858 OFFCURVE",
"797 728 CURVE SMOOTH",
"797 593 LINE",
"587 593 LINE SMOOTH",
"250 593 OFFCURVE",
"119 506 OFFCURVE",
"119 282 CURVE SMOOTH",
"119 87 OFFCURVE",
"245 -23 OFFCURVE",
"470 -23 CURVE SMOOTH",
"680 -23 OFFCURVE",
"819 51 OFFCURVE",
"861 217 CURVE",
"840 216 LINE",
"905 55 OFFCURVE",
"1039 -23 OFFCURVE",
"1248 -23 CURVE SMOOTH",
"1530 -23 OFFCURVE",
"1663 73 OFFCURVE",
"1663 278 CURVE",
"1506 278 LINE",
"1500 148 OFFCURVE",
"1429 102 OFFCURVE",
"1252 102 CURVE SMOOTH",
"1035 102 OFFCURVE",
"950 209 OFFCURVE",
"950 480 CURVE",
"1671 480 LINE",
"1671 858 OFFCURVE"
);
},
{
closed = 1;
nodes = (
"952 594 LINE",
"960 835 OFFCURVE",
"1030 911 OFFCURVE",
"1234 911 CURVE SMOOTH",
"1438 911 OFFCURVE",
"1507 835 OFFCURVE",
"1515 594 CURVE"
);
},
{
closed = 1;
nodes = (
"798 173 OFFCURVE",
"693 102 OFFCURVE",
"507 102 CURVE SMOOTH",
"360 102 OFFCURVE",
"277 166 OFFCURVE",
"277 285 CURVE SMOOTH",
"277 425 OFFCURVE",
"364 479 OFFCURVE",
"586 479 CURVE SMOOTH",
"798 479 LINE",
"798 305 LINE SMOOTH"
);
}
);
width = 1781;
}
);
leftKerningGroup = a;
leftMetricsKey = "=a";
note = ae;
rightKerningGroup = e;
rightMetricsKey = "=e";
unicode = 00E6;
},
{
color = 3;
glyphname = b;
layers = (
{
anchors = (
{
name = bottom;
position = "{639, 0}";
},
{
name = top;
position = "{639, 1441}";
}
);
background = {
paths = (
{
closed = 1;
nodes = (
"840 909 OFFCURVE",
"915 812 OFFCURVE",
"915 504 CURVE SMOOTH",
"915 198 OFFCURVE",
"842 102 OFFCURVE",
"609 102 CURVE SMOOTH",
"370 102 OFFCURVE",
"295 198 OFFCURVE",
"295 502 CURVE SMOOTH",
"295 811 OFFCURVE",
"369 909 OFFCURVE",
"603 909 CURVE"
);
},
{
closed = 1;
nodes = (
"268 1034 OFFCURVE",
"138 886 OFFCURVE",
"138 506 CURVE SMOOTH",
"138 125 OFFCURVE",
"268 -23 OFFCURVE",
"603 -23 CURVE SMOOTH",
"941 -23 OFFCURVE",
"1072 126 OFFCURVE",
"1072 509 CURVE SMOOTH",
"1072 887 OFFCURVE",
"941 1034 OFFCURVE",
"603 1034 CURVE SMOOTH"
);
}
);
};
layerId = "2F8B9CD4-7B7F-4ACC-ADF3-B6E0F7033A19";
paths = (
{
closed = 1;
nodes = (
"846 909 OFFCURVE",
"915 810 OFFCURVE",
"915 495 CURVE SMOOTH",
"915 196 OFFCURVE",
"847 102 OFFCURVE",
"632 102 CURVE SMOOTH",
"406 102 OFFCURVE",
"334 199 OFFCURVE",
"334 505 CURVE SMOOTH",
"334 828 OFFCURVE",
"393 909 OFFCURVE",
"629 909 CURVE SMOOTH"
);
},
{
closed = 1;
nodes = (
"334 1441 LINE",
"180 1441 LINE",
"180 0 LINE",
"303 0 LINE",
"321 134 LINE",
"369 59 OFFCURVE",
"449 -23 OFFCURVE",
"667 -23 CURVE SMOOTH",
"941 -23 OFFCURVE",
"1071 123 OFFCURVE",
"1071 497 CURVE SMOOTH",
"1071 891 OFFCURVE",
"941 1034 OFFCURVE",
"665 1034 CURVE SMOOTH",
"494 1034 OFFCURVE",
"401 995 OFFCURVE",
"334 898 CURVE"
);
}
);
width = 1191;
}
);
leftKerningGroup = h;
leftMetricsKey = "=h";
note = b;
rightKerningGroup = o;
rightMetricsKey = "=o";
unicode = 0062;
},
{
glyphname = c;
layers = (
{
anchors = (
{
name = bottom;
position = "{545, 0}";
},
{
name = top;
position = "{545, 1011}";
}
);
background = {
paths = (
{
closed = 1;
nodes = (
"2121 157 OFFCURVE",
"2055 97 OFFCURVE",
"1888 97 CURVE SMOOTH",
"1638 97 OFFCURVE",
"1576 179 OFFCURVE",
"1576 507 CURVE SMOOTH",
"1576 813 OFFCURVE",
"1650 910 OFFCURVE",
"1883 910 CURVE SMOOTH",
"2046 910 OFFCURVE",
"2113 852 OFFCURVE",
"2124 702 CURVE",
"2281 702 LINE",
"2277 928 OFFCURVE",
"2151 1035 OFFCURVE",
"1887 1035 CURVE SMOOTH",
"1551 1035 OFFCURVE",
"1420 888 OFFCURVE",
"1420 509 CURVE SMOOTH",
"1420 126 OFFCURVE",
"1550 -23 OFFCURVE",
"1886 -23 CURVE SMOOTH",
"2168 -23 OFFCURVE",
"2279 70 OFFCURVE",
"2281 310 CURVE",
"2124 310 LINE"
);
},
{
closed = 1;
nodes = (
"822 909 OFFCURVE",
"897 812 OFFCURVE",
"897 504 CURVE SMOOTH",
"897 198 OFFCURVE",
"824 102 OFFCURVE",
"591 102 CURVE SMOOTH",
"352 102 OFFCURVE",
"277 198 OFFCURVE",
"277 502 CURVE SMOOTH",
"277 811 OFFCURVE",
"351 909 OFFCURVE",
"585 909 CURVE"
);
},
{
closed = 1;
nodes = (
"250 1034 OFFCURVE",
"120 886 OFFCURVE",
"120 506 CURVE SMOOTH",
"120 125 OFFCURVE",
"250 -23 OFFCURVE",
"585 -23 CURVE SMOOTH",
"923 -23 OFFCURVE",
"1054 126 OFFCURVE",
"1054 509 CURVE SMOOTH",
"1054 887 OFFCURVE",
"923 1034 OFFCURVE",
"585 1034 CURVE SMOOTH"
);
}
);
};
layerId = "2F8B9CD4-7B7F-4ACC-ADF3-B6E0F7033A19";
paths = (
{
closed = 1;
nodes = (
"821 157 OFFCURVE",
"758 102 OFFCURVE",
"591 102 CURVE SMOOTH",
"352 102 OFFCURVE",
"277 198 OFFCURVE",
"277 507 CURVE SMOOTH",
"277 813 OFFCURVE",
"350 910 OFFCURVE",
"583 910 CURVE SMOOTH",
"746 910 OFFCURVE",
"813 852 OFFCURVE",
"824 702 CURVE",
"981 702 LINE",
"977 928 OFFCURVE",
"851 1035 OFFCURVE",
"587 1035 CURVE SMOOTH",
"251 1035 OFFCURVE",
"120 888 OFFCURVE",
"120 509 CURVE SMOOTH",
"120 126 OFFCURVE",
"250 -23 OFFCURVE",
"586 -23 CURVE SMOOTH",
"868 -23 OFFCURVE",
"979 70 OFFCURVE",
"981 310 CURVE",
"824 310 LINE"
);
}
);
width = 1086;
}
);
leftKerningGroup = o;
leftMetricsKey = "=o";
note = c;
rightKerningGroup = c;
unicode = 0063;
},
{
color = 3;
glyphname = d;
layers = (
{
anchors = (
{
name = bottom;
position = "{588, 0}";
},
{
name = center;
position = "{806, 1214}";
},
{
name = top;
position = "{588, 1011}";
},
{
name = topright;
position = "{1059, 1011}";
}
);
background = {
paths = (
{
closed = 1;
nodes = (
"798 909 OFFCURVE",
"857 828 OFFCURVE",
"857 505 CURVE SMOOTH",
"857 199 OFFCURVE",
"785 102 OFFCURVE",
"559 102 CURVE SMOOTH",
"344 102 OFFCURVE",
"276 196 OFFCURVE",
"276 495 CURVE SMOOTH",
"276 826 OFFCURVE",
"333 909 OFFCURVE",
"562 909 CURVE SMOOTH"
);
},
{
closed = 1;
nodes = (
"789 997 OFFCURVE",
"697 1033 OFFCURVE",
"526 1033 CURVE SMOOTH",
"217 1033 OFFCURVE",
"120 904 OFFCURVE",
"120 497 CURVE SMOOTH",
"120 123 OFFCURVE",
"233 -23 OFFCURVE",
"524 -23 CURVE SMOOTH",
"742 -23 OFFCURVE",
"822 59 OFFCURVE",
"870 134 CURVE",
"888 0 LINE",
"1011 0 LINE",
"1011 1441 LINE",
"857 1441 LINE",
"857 905 LINE"
);
}
);
};
layerId = "2F8B9CD4-7B7F-4ACC-ADF3-B6E0F7033A19";
paths = (
{
closed = 1;
nodes = (
"742 -23 OFFCURVE",
"822 59 OFFCURVE",
"870 134 CURVE",
"888 0 LINE",
"1011 0 LINE",
"1011 1441 LINE",
"857 1441 LINE",
"857 898 LINE",
"790 995 OFFCURVE",
"697 1034 OFFCURVE",
"526 1034 CURVE SMOOTH",
"250 1034 OFFCURVE",
"120 891 OFFCURVE",
"120 497 CURVE SMOOTH",
"120 123 OFFCURVE",
"250 -23 OFFCURVE",
"524 -23 CURVE SMOOTH"
);
},
{
closed = 1;
nodes = (
"344 102 OFFCURVE",
"276 196 OFFCURVE",
"276 495 CURVE SMOOTH",
"276 810 OFFCURVE",
"345 909 OFFCURVE",
"562 909 CURVE SMOOTH",
"798 909 OFFCURVE",
"857 828 OFFCURVE",
"857 505 CURVE SMOOTH",
"857 199 OFFCURVE",
"785 102 OFFCURVE",
"559 102 CURVE SMOOTH"
);
}
);
width = 1191;
}
);
leftKerningGroup = o;
leftMetricsKey = "=o";
note = d;
rightKerningGroup = d;
unicode = 0064;
},
{
color = 3;
glyphname = eth;
layers = (
{
background = {
paths = (
{
closed = 1;
nodes = (
"364 93 OFFCURVE",
"272 195 OFFCURVE",
"272 413 CURVE SMOOTH",
"272 614 OFFCURVE",
"359 710 OFFCURVE",
"545 710 CURVE SMOOTH",
"728 710 OFFCURVE",
"816 665 OFFCURVE",
"857 550 CURVE",
"857 380 LINE SMOOTH",
"857 184 OFFCURVE",
"763 93 OFFCURVE",
"559 93 CURVE SMOOTH"
);
},
{
closed = 1;
nodes = (
"571 1111 LINE",
"643 1005 LINE",
"1118 1338 LINE",
"1046 1444 LINE"
);
},
{
closed = 1;
nodes = (
"1004 1093 LINE SMOOTH",
"1004 1340 OFFCURVE",
"864 1471 OFFCURVE",
"568 1471 CURVE SMOOTH",
"286 1471 OFFCURVE",
"153 1359 OFFCURVE",
"153 1121 CURVE",
"295 1121 LINE",
"295 1283 OFFCURVE",
"373 1346 OFFCURVE",
"572 1346 CURVE SMOOTH",
"775 1346 OFFCURVE",
"857 1272 OFFCURVE",
"857 1081 CURVE SMOOTH",
"857 705 LINE",
"793 803 OFFCURVE",
"700 840 OFFCURVE",
"524 840 CURVE SMOOTH",
"269 840 OFFCURVE",
"120 703 OFFCURVE",
"120 413 CURVE SMOOTH",
"120 111 OFFCURVE",
"270 -32 OFFCURVE",
"557 -32 CURVE SMOOTH",
"861 -32 OFFCURVE",
"1004 122 OFFCURVE",
"1004 450 CURVE"
);
}
);
};
guideLines = (
{
position = "{858, 1011}";
}
);
layerId = "2F8B9CD4-7B7F-4ACC-ADF3-B6E0F7033A19";
paths = (
{
closed = 1;
nodes = (
"364 93 OFFCURVE",
"272 195 OFFCURVE",
"272 413 CURVE SMOOTH",
"272 614 OFFCURVE",
"359 710 OFFCURVE",
"545 710 CURVE SMOOTH",
"728 710 OFFCURVE",
"816 665 OFFCURVE",
"857 550 CURVE",
"857 380 LINE SMOOTH",
"857 184 OFFCURVE",
"763 93 OFFCURVE",
"559 93 CURVE SMOOTH"
);
},
{
closed = 1;
nodes = (
"918 1354 LINE",
"847 1431 OFFCURVE",
"731 1471 OFFCURVE",
"568 1471 CURVE SMOOTH",
"286 1471 OFFCURVE",
"153 1359 OFFCURVE",
"153 1121 CURVE",
"295 1121 LINE",
"295 1283 OFFCURVE",
"373 1346 OFFCURVE",
"572 1346 CURVE SMOOTH",
"683 1346 OFFCURVE",
"757 1324 OFFCURVE",
"802 1273 CURVE",
"571 1111 LINE",
"643 1005 LINE",
"852 1152 LINE",
"856 1130 OFFCURVE",
"857 1107 OFFCURVE",
"857 1081 CURVE SMOOTH",
"857 705 LINE",
"793 803 OFFCURVE",
"700 840 OFFCURVE",
"524 840 CURVE SMOOTH",
"269 840 OFFCURVE",
"120 703 OFFCURVE",
"120 413 CURVE SMOOTH",
"120 111 OFFCURVE",
"270 -32 OFFCURVE",
"557 -32 CURVE SMOOTH",
"861 -32 OFFCURVE",
"1004 122 OFFCURVE",
"1004 450 CURVE SMOOTH",
"1004 1093 LINE SMOOTH",
"1004 1149 OFFCURVE",
"997 1199 OFFCURVE",
"982 1243 CURVE",
"1118 1338 LINE",
"1046 1444 LINE"
);
}
);
width = 1184;
}
);
leftKerningGroup = o;
note = eth;
rightKerningGroup = d;
unicode = 00F0;
},
{
color = 3;
glyphname = e;
layers = (
{
anchors = (
{
name = bottom;
position = "{558, 0}";
},
{
name = ogonek;
position = "{776, 0}";
},
{
name = top;
position = "{558, 1011}";
}
);
background = {
paths = (
{
closed = 1;
nodes = (
"1677 594 LINE",
"1672 822 OFFCURVE",
"1749 911 OFFCURVE",
"1952 911 CURVE SMOOTH",
"2162 911 OFFCURVE",
"2232 835 OFFCURVE",
"2240 594 CURVE"
);
},
{
closed = 1;
nodes = (
"1529 278 LINE",
"1529 73 OFFCURVE",
"1662 -23 OFFCURVE",
"1944 -23 CURVE SMOOTH",
"2271 -23 OFFCURVE",
"2398 125 OFFCURVE",
"2398 505 CURVE SMOOTH",
"2398 858 OFFCURVE",
"2275 1034 OFFCURVE",
"1948 1034 CURVE SMOOTH",
"1640 1034 OFFCURVE",
"1520 906 OFFCURVE",
"1520 577 CURVE SMOOTH",
"1520 543 OFFCURVE",
"1521 510 OFFCURVE",
"1521 480 CURVE",
"2242 480 LINE",
"2242 204 OFFCURVE",
"2157 97 OFFCURVE",
"1940 97 CURVE SMOOTH",
"1763 97 OFFCURVE",
"1692 148 OFFCURVE",
"1686 278 CURVE"
);
},
{
closed = 1;
nodes = (
"831 157 OFFCURVE",
"768 102 OFFCURVE",
"601 102 CURVE SMOOTH",
"362 102 OFFCURVE",
"287 198 OFFCURVE",
"287 507 CURVE SMOOTH",
"287 813 OFFCURVE",
"360 910 OFFCURVE",
"593 910 CURVE SMOOTH",
"756 910 OFFCURVE",
"823 852 OFFCURVE",
"834 702 CURVE",
"991 702 LINE",
"987 928 OFFCURVE",
"861 1035 OFFCURVE",
"597 1035 CURVE SMOOTH",
"261 1035 OFFCURVE",
"130 888 OFFCURVE",
"130 509 CURVE SMOOTH",
"130 126 OFFCURVE",
"260 -23 OFFCURVE",
"596 -23 CURVE SMOOTH",
"878 -23 OFFCURVE",
"989 70 OFFCURVE",
"991 310 CURVE",
"834 310 LINE"
);
}
);
};
guideLines = (
{
position = "{727, 129}";
}
);
layerId = "2F8B9CD4-7B7F-4ACC-ADF3-B6E0F7033A19";
paths = (
{
closed = 1;
nodes = (
"286 835 OFFCURVE",
"356 911 OFFCURVE",
"560 911 CURVE SMOOTH",
"764 911 OFFCURVE",
"833 835 OFFCURVE",
"841 594 CURVE",
"278 594 LINE"
);
},
{
closed = 1;
nodes = (
"826 148 OFFCURVE",
"755 102 OFFCURVE",
"578 102 CURVE SMOOTH",
"361 102 OFFCURVE",
"276 209 OFFCURVE",
"276 480 CURVE",
"997 480 LINE",
"997 858 OFFCURVE",
"897 1034 OFFCURVE",
"560 1034 CURVE SMOOTH",
"233 1034 OFFCURVE",
"120 858 OFFCURVE",
"120 505 CURVE SMOOTH",
"120 125 OFFCURVE",
"247 -23 OFFCURVE",
"574 -23 CURVE SMOOTH",
"856 -23 OFFCURVE",
"989 73 OFFCURVE",
"989 278 CURVE",
"832 278 LINE"
);
}
);
width = 1107;
}
);
leftKerningGroup = o;
leftMetricsKey = "=o";
note = e;
rightKerningGroup = e;
unicode = 0065;
},
{
color = 3;
glyphname = f;
layers = (
{
anchors = (
{
name = bottom;
position = "{312, 0}";
},
{
name = top;
position = "{312, 1441}";
}
);
background = {
paths = (
{
closed = 1;
nodes = (
"386 1011 LINE",
"386 1196 LINE",
"386 1255 OFFCURVE",
"397 1279 OFFCURVE",
"424 1300 CURVE SMOOTH",
"445 1316 OFFCURVE",
"492 1321 OFFCURVE",
"534 1321 CURVE SMOOTH",
"596 1321 OFFCURVE",
"607 1318 OFFCURVE",
"651 1313 CURVE",
"651 1437 LINE",
"627 1441 OFFCURVE",
"592 1448 OFFCURVE",
"530 1448 CURVE SMOOTH",
"417 1448 OFFCURVE",
"363 1431 OFFCURVE",
"323 1406 CURVE SMOOTH",
"268 1372 OFFCURVE",
"232 1316 OFFCURVE",
"232 1135 CURVE SMOOTH",
"232 1011 LINE",
"50 1011 LINE",
"50 889 LINE",
"232 889 LINE",
"232 0 LINE",
"385 0 LINE",
"385 889 LINE",
"634 889 LINE",
"634 1011 LINE"
);
}
);
};
layerId = "2F8B9CD4-7B7F-4ACC-ADF3-B6E0F7033A19";
paths = (
{
closed = 1;
nodes = (
"386 1011 LINE",
"386 1196 LINE SMOOTH",
"386 1291 OFFCURVE",
"422 1321 OFFCURVE",
"534 1321 CURVE SMOOTH",
"564 1321 OFFCURVE",
"606 1318 OFFCURVE",
"651 1313 CURVE",
"651 1437 LINE",
"609 1444 OFFCURVE",
"565 1448 OFFCURVE",
"530 1448 CURVE SMOOTH",
"304 1448 OFFCURVE",
"232 1373 OFFCURVE",
"232 1155 CURVE SMOOTH",
"232 1011 LINE",
"50 1011 LINE",
"50 889 LINE",
"232 889 LINE",
"232 0 LINE",
"386 0 LINE",
"386 889 LINE",
"634 889 LINE",
"634 1011 LINE"
);
}
);
width = 716;
}
);
leftKerningGroup = f;
note = f;
rightKerningGroup = f;
unicode = 0066;
},
{
glyphname = g;
layers = (
{
anchors = (
{
name = bottom;
position = "{586, -389}";
},
{
name = top;
position = "{586, 1011}";
}
);
background = {
paths = (
{
closed = 1;
nodes = (
"2039 911 OFFCURVE",
"2090 901 OFFCURVE",
"2126 888 CURVE SMOOTH",
"2180 868 OFFCURVE",
"2219 807 OFFCURVE",
"2236 731 CURVE SMOOTH",
"2248 676 OFFCURVE",
"2257 608 OFFCURVE",
"2257 496 CURVE SMOOTH",
"2257 389 OFFCURVE",
"2247 340 OFFCURVE",
"2236 293 CURVE SMOOTH",
"2209 174 OFFCURVE",
"2121 115 OFFCURVE",
"1965 115 CURVE SMOOTH",
"1886 115 OFFCURVE",
"1834 126 OFFCURVE",
"1798 140 CURVE SMOOTH",
"1738 163 OFFCURVE",
"1713 207 OFFCURVE",
"1696 283 CURVE SMOOTH",
"1684 332 OFFCURVE",
"1677 406 OFFCURVE",
"1677 518 CURVE SMOOTH",
"1677 632 OFFCURVE",
"1684 773 OFFCURVE",
"1732 837 CURVE SMOOTH",
"1777 897 OFFCURVE",
"1869 911 OFFCURVE",
"1962 911 CURVE SMOOTH"
);
},
{
closed = 1;
nodes = (
"2275 7 OFFCURVE",
"2273 -33 OFFCURVE",
"2269 -64 CURVE SMOOTH",
"2255 -174 OFFCURVE",
"2219 -231 OFFCURVE",
"2136 -262 CURVE SMOOTH",
"2085 -281 OFFCURVE",
"2035 -282 OFFCURVE",
"1966 -282 CURVE SMOOTH",
"1912 -282 OFFCURVE",
"1869 -283 OFFCURVE",
"1820 -262 CURVE SMOOTH",
"1746 -230 OFFCURVE",
"1722 -193 OFFCURVE",
"1720 -120 CURVE",
"1563 -120 LINE",
"1564 -253 OFFCURVE",
"1638 -342 OFFCURVE",
"1737 -377 CURVE SMOOTH",
"1790 -396 OFFCURVE",
"1858 -407 OFFCURVE",
"1968 -407 CURVE SMOOTH",
"2089 -407 OFFCURVE",
"2212 -394 OFFCURVE",
"2294 -316 CURVE SMOOTH",
"2378 -236 OFFCURVE",
"2410 -108 OFFCURVE",
"2410 62 CURVE SMOOTH",
"2410 1011 LINE",
"2292 1011 LINE",
"2276 876 LINE",
"2192 1012 OFFCURVE",
"2103 1034 OFFCURVE",
"1927 1034 CURVE SMOOTH",
"1830 1034 OFFCURVE",
"1759 1015 OFFCURVE",
"1707 991 CURVE SMOOTH",
"1655 966 OFFCURVE",
"1622 935 OFFCURVE",
"1605 911 CURVE",
"1534 821 OFFCURVE",
"1520 660 OFFCURVE",
"1520 507 CURVE SMOOTH",
"1520 380 OFFCURVE",
"1532 293 OFFCURVE",
"1549 232 CURVE SMOOTH",
"1574 138 OFFCURVE",
"1617 72 OFFCURVE",
"1703 32 CURVE SMOOTH",
"1754 7 OFFCURVE",
"1825 -12 OFFCURVE",
"1921 -12 CURVE SMOOTH",
"2085 -12 OFFCURVE",
"2210 20 OFFCURVE",
"2273 140 CURVE",
"2274 56 LINE SMOOTH"
);
},
{
closed = 1;
nodes = (
"786 909 OFFCURVE",
"856 813 OFFCURVE",
"856 510 CURVE SMOOTH",
"856 208 OFFCURVE",
"788 113 OFFCURVE",
"570 113 CURVE SMOOTH",
"347 113 OFFCURVE",
"277 208 OFFCURVE",
"277 508 CURVE SMOOTH",
"277 812 OFFCURVE",
"346 909 OFFCURVE",
"565 909 CURVE"
);
},
{
closed = 1;
nodes = (
"244 1034 OFFCURVE",
"120 888 OFFCURVE",
"120 511 CURVE SMOOTH",
"120 134 OFFCURVE",
"244 -12 OFFCURVE",
"563 -12 CURVE SMOOTH",
"884 -12 OFFCURVE",
"1009 135 OFFCURVE",
"1009 514 CURVE SMOOTH",
"1009 889 OFFCURVE",
"884 1034 OFFCURVE",
"563 1034 CURVE SMOOTH"
);
}
);
};
layerId = "2F8B9CD4-7B7F-4ACC-ADF3-B6E0F7033A19";
paths = (
{
closed = 1;
nodes = (
"786 910 OFFCURVE",
"857 801 OFFCURVE",
"857 512 CURVE SMOOTH",
"857 223 OFFCURVE",
"797 114 OFFCURVE",
"565 114 CURVE SMOOTH",
"335 114 OFFCURVE",
"277 223 OFFCURVE",
"277 512 CURVE SMOOTH",
"277 801 OFFCURVE",
"334 910 OFFCURVE",
"562 910 CURVE SMOOTH"
);
},
{
closed = 1;
nodes = (
"862 -201 OFFCURVE",
"805 -282 OFFCURVE",
"566 -282 CURVE SMOOTH",
"392 -282 OFFCURVE",
"324 -237 OFFCURVE",
"320 -120 CURVE",
"163 -120 LINE",
"165 -315 OFFCURVE",
"294 -407 OFFCURVE",
"568 -407 CURVE SMOOTH",
"886 -407 OFFCURVE",
"1010 -276 OFFCURVE",
"1010 62 CURVE SMOOTH",
"1010 1011 LINE",
"892 1011 LINE",
"876 876 LINE",
"806 990 OFFCURVE",
"708 1034 OFFCURVE",
"527 1034 CURVE SMOOTH",
"235 1034 OFFCURVE",
"120 887 OFFCURVE",
"120 512 CURVE SMOOTH",
"120 137 OFFCURVE",
"235 -12 OFFCURVE",
"521 -12 CURVE SMOOTH",
"697 -12 OFFCURVE",
"828 25 OFFCURVE",
"886 168 CURVE",
"862 185 LINE",
"862 56 LINE SMOOTH"
);
}
);
width = 1190;
}
);
leftKerningGroup = o;
leftMetricsKey = "=o";
note = g;
rightKerningGroup = u;
rightMetricsKey = "=u";
unicode = 0067;
},
{
color = 3;
glyphname = h;
layers = (
{
anchors = (
{
name = bottom;
position = "{593, 0}";
},
{
name = center;
position = "{385, 1216}";
},
{
name = top;
position = "{606, 1441}";
}
);
background = {
paths = (
{
closed = 1;
nodes = (
"1926 994 OFFCURVE",
"1829 1038 OFFCURVE",
"1674 1038 CURVE SMOOTH",
"1579 1038 OFFCURVE",
"1509 1033 OFFCURVE",
"1444 998 CURVE SMOOTH",
"1394 971 OFFCURVE",
"1354 916 OFFCURVE",
"1329 871 CURVE",
"1332 1442 LINE",
"1179 1442 LINE",
"1180 1 LINE",
"1334 1 LINE",
"1334 598 LINE SMOOTH",
"1334 698 OFFCURVE",
"1359 783 OFFCURVE",
"1396 822 CURVE SMOOTH",
"1453 883 OFFCURVE",
"1514 909 OFFCURVE",
"1629 909 CURVE SMOOTH",
"1671 909 OFFCURVE",
"1695 906 OFFCURVE",
"1719 902 CURVE SMOOTH",
"1838 882 OFFCURVE",
"1879 784 OFFCURVE",
"1879 618 CURVE SMOOTH",
"1879 1 LINE",
"2033 1 LINE",
"2033 588 LINE SMOOTH",
"2033 751 OFFCURVE",
"2019 838 OFFCURVE",
"1974 909 CURVE"
);
},
{
closed = 1;
nodes = (
"931 1037 OFFCURVE",
"673 1037 CURVE SMOOTH",
"483 1037 OFFCURVE",
"384 990 OFFCURVE",
"317 868 CURVE",
"305 1011 LINE",
"179 1011 LINE",
"179 0 LINE",
"333 0 LINE",
"333 609 LINE SMOOTH",
"333 824 OFFCURVE",
"416 908 OFFCURVE",
"628 908 CURVE SMOOTH",
"808 908 OFFCURVE",
"878 827 OFFCURVE",
"878 617 CURVE SMOOTH",
"878 0 LINE",
"1032 0 LINE",
"1032 617 LINE SMOOTH",
"1032 919 OFFCURVE"
);
}
);
};
layerId = "2F8B9CD4-7B7F-4ACC-ADF3-B6E0F7033A19";
paths = (
{
closed = 1;
nodes = (
"931 1034 OFFCURVE",
"673 1034 CURVE SMOOTH",
"483 1034 OFFCURVE",
"400 990 OFFCURVE",
"334 890 CURVE",
"334 1442 LINE",
"180 1442 LINE",
"180 0 LINE",
"334 0 LINE",
"334 606 LINE SMOOTH",
"334 821 OFFCURVE",
"416 905 OFFCURVE",
"628 905 CURVE SMOOTH",
"808 905 OFFCURVE",
"878 823 OFFCURVE",
"878 614 CURVE SMOOTH",
"878 0 LINE",
"1032 0 LINE",
"1032 614 LINE SMOOTH",
"1032 916 OFFCURVE"
);
}
);
width = 1207;
}
);
leftKerningGroup = h;
leftMetricsKey = "=n";
note = h;
rightKerningGroup = n;
rightMetricsKey = "=n";
unicode = 0068;
},
{
color = 3;
glyphname = i;
layers = (
{
anchors = (
{
name = bottom;
position = "{258, 0}";
},
{
name = ogonek;
position = "{334, 0}";
}
);
background = {
paths = (
{
closed = 1;
nodes = (
"358 1211 OFFCURVE",
"334 1184 OFFCURVE",
"261 1184 CURVE",
"187 1184 OFFCURVE",
"156 1211 OFFCURVE",
"156 1282 CURVE",
"156 1353 OFFCURVE",
"186 1381 OFFCURVE",
"261 1381 CURVE",
"334 1381 OFFCURVE",
"358 1353 OFFCURVE",
"358 1282 CURVE"
);
}
);
};
layerId = "2F8B9CD4-7B7F-4ACC-ADF3-B6E0F7033A19";
paths = (
{
closed = 1;
nodes = (
"335 1011 LINE",
"181 1011 LINE",
"181 0 LINE",
"335 0 LINE"
);
},
{
closed = 1;
nodes = (
"155 1194 LINE",
"361 1194 LINE",
"361 1386 LINE",
"155 1386 LINE"
);
}
);
width = 515;
}
);
leftKerningGroup = i;
note = i;
rightKerningGroup = i;
unicode = 0069;
},
{
glyphname = idotless;
layers = (
{
anchors = (
{
name = bottom;
position = "{261, 0}";
},
{
name = ogonek;
position = "{334, 0}";
},
{
name = top;
position = "{257, 1011}";
}
);
layerId = "2F8B9CD4-7B7F-4ACC-ADF3-B6E0F7033A19";
paths = (
{
closed = 1;
nodes = (
"334 1011 LINE",
"180 1011 LINE",
"180 0 LINE",
"334 0 LINE"
);
}
);
width = 514;
}
);
leftKerningGroup = i;
leftMetricsKey = n;
note = dotlessi;
rightKerningGroup = i;
rightMetricsKey = "=|n";
unicode = 0131;
},
{
color = 3;
glyphname = j;
layers = (
{
background = {
paths = (
{
closed = 1;
nodes = (
"382 1211 OFFCURVE",
"358 1184 OFFCURVE",
"285 1184 CURVE",
"211 1184 OFFCURVE",
"180 1211 OFFCURVE",
"180 1282 CURVE",
"180 1353 OFFCURVE",
"210 1381 OFFCURVE",
"285 1381 CURVE",
"358 1381 OFFCURVE",
"382 1353 OFFCURVE",
"382 1282 CURVE"
);
}
);
};
guideLines = (
{
position = "{301, -402}";
}
);
layerId = "2F8B9CD4-7B7F-4ACC-ADF3-B6E0F7033A19";
paths = (
{
closed = 1;
nodes = (
"200 -108 LINE SMOOTH",
"200 -234 OFFCURVE",
"167 -266 OFFCURVE",
"36 -266 CURVE SMOOTH",
"1 -266 OFFCURVE",
"-38 -262 OFFCURVE",
"-70 -255 CURVE",
"-70 -388 LINE",
"-34 -397 OFFCURVE",
"11 -402 OFFCURVE",
"56 -402 CURVE SMOOTH",
"271 -402 OFFCURVE",
"354 -314 OFFCURVE",
"354 -87 CURVE SMOOTH",
"354 1011 LINE",
"200 1011 LINE"
);
},
{
closed = 1;
nodes = (
"177 1194 LINE",
"383 1194 LINE",
"383 1386 LINE",
"177 1386 LINE"
);
}
);
width = 534;
}
);
leftKerningGroup = j;
note = j;
rightKerningGroup = i;
unicode = 006A;
},
{
color = 3;
glyphname = jdotless;
layers = (
{
anchors = (
{
name = bottom;
position = "{275, 0}";
},
{
name = top;
position = "{277, 1011}";
}
);
layerId = "2F8B9CD4-7B7F-4ACC-ADF3-B6E0F7033A19";
paths = (
{
closed = 1;
nodes = (
"200 -108 LINE SMOOTH",
"200 -234 OFFCURVE",
"167 -266 OFFCURVE",
"36 -266 CURVE SMOOTH",
"1 -266 OFFCURVE",
"-38 -262 OFFCURVE",
"-70 -255 CURVE",
"-70 -388 LINE",
"-34 -397 OFFCURVE",
"11 -402 OFFCURVE",
"56 -402 CURVE SMOOTH",
"271 -402 OFFCURVE",
"354 -314 OFFCURVE",
"354 -87 CURVE SMOOTH",
"354 1011 LINE",
"200 1011 LINE"
);
}
);
width = 534;
}
);
leftKerningGroup = j;
rightKerningGroup = i;
unicode = 0237;
},
{
glyphname = k;
layers = (
{
anchors = (
{
name = bottom;
position = "{579, 0}";
},
{
name = top;
position = "{561, 1441}";
}
);
background = {
paths = (
{
closed = 1;
nodes = (
"333 0 LINE",
"333 474 LINE",
"547 474 LINE",
"706 474 OFFCURVE",
"738 457 OFFCURVE",
"825 0 CURVE",
"985 0 LINE",
"891 436 OFFCURVE",
"865 504 OFFCURVE",
"715 547 CURVE",
"910 597 OFFCURVE",
"942 656 OFFCURVE",
"942 1011 CURVE",
"789 1011 LINE",
"789 933 OFFCURVE",
"789 875 OFFCURVE",
"789 830 CURVE SMOOTH",
"789 752 OFFCURVE",
"757 697 OFFCURVE",
"727 671 CURVE SMOOTH",
"686 636 OFFCURVE",
"619 620 OFFCURVE",
"514 620 CURVE",
"333 620 LINE",
"333 1441 LINE",
"180 1441 LINE",
"180 0 LINE"
);
}
);
};
layerId = "2F8B9CD4-7B7F-4ACC-ADF3-B6E0F7033A19";
paths = (
{
closed = 1;
nodes = (
"333 0 LINE",
"333 474 LINE",
"427 474 LINE SMOOTH",
"565 474 OFFCURVE",
"621 428 OFFCURVE",
"708 246 CURVE SMOOTH",
"825 0 LINE",
"995 0 LINE",
"870 259 LINE SMOOTH",
"768 471 OFFCURVE",
"729 530 OFFCURVE",
"569 554 CURVE",
"561 539 LINE",
"739 566 OFFCURVE",
"781 628 OFFCURVE",
"860 805 CURVE SMOOTH",
"952 1011 LINE",
"789 1011 LINE",
"697 813 LINE SMOOTH",
"629 667 OFFCURVE",
"572 620 OFFCURVE",
"426 620 CURVE SMOOTH",
"333 620 LINE",
"333 1441 LINE",
"180 1441 LINE",
"180 0 LINE"
);
}
);
width = 1115;
}
);
leftKerningGroup = h;
leftMetricsKey = "=h";
note = k;
rightKerningGroup = k;
unicode = 006B;
},
{
color = 3;
glyphname = kgreenlandic;
layers = (
{
anchors = (
{
name = bottom;
position = "{542, 0}";
},
{
name = top;
position = "{542, 1011}";
}
);
background = {
paths = (
{
closed = 1;
nodes = (
"333 0 LINE",
"333 414 LINE",
"427 414 LINE SMOOTH",
"565 414 OFFCURVE",
"600 358 OFFCURVE",
"708 186 CURVE SMOOTH",
"825 0 LINE",
"995 0 LINE",
"870 199 LINE SMOOTH",
"746 397 OFFCURVE",
"729 470 OFFCURVE",
"569 494 CURVE",
"561 479 LINE",
"739 506 OFFCURVE",
"772 568 OFFCURVE",
"867 790 CURVE SMOOTH",
"962 1011 LINE",
"799 1011 LINE",
"705 798 LINE SMOOTH",
"620 606 OFFCURVE",
"572 560 OFFCURVE",
"426 560 CURVE SMOOTH",
"333 560 LINE",
"333 1011 LINE",
"180 1011 LINE",
"180 0 LINE"
);
}
);
};
layerId = "2F8B9CD4-7B7F-4ACC-ADF3-B6E0F7033A19";
paths = (
{
closed = 1;
nodes = (
"333 0 LINE",
"333 414 LINE",
"427 414 LINE SMOOTH",
"550 414 OFFCURVE",
"587 379 OFFCURVE",
"677 235 CURVE SMOOTH",
"825 0 LINE",
"995 0 LINE",
"784 339 LINE SMOOTH",
"722 439 OFFCURVE",
"686 476 OFFCURVE",
"569 494 CURVE",
"561 479 LINE",
"723 504 OFFCURVE",
"761 543 OFFCURVE",
"867 790 CURVE SMOOTH",
"962 1011 LINE",
"799 1011 LINE",
"705 798 LINE SMOOTH",
"620 606 OFFCURVE",
"572 560 OFFCURVE",
"426 560 CURVE SMOOTH",
"333 560 LINE",
"333 1011 LINE",
"180 1011 LINE",
"180 0 LINE"
);
}
);
width = 1105;
}
);
leftKerningGroup = n;
leftMetricsKey = "=k";
rightKerningGroup = k;
unicode = 0138;
},
{
color = 3;
glyphname = l;
layers = (
{
anchors = (
{
name = bottom;
position = "{257, 0}";
},
{
name = center;
position = "{554, 662}";
},
{
name = top;
position = "{257, 1441}";
},
{
name = topright;
position = "{380, 1011}";
}
);
layerId = "2F8B9CD4-7B7F-4ACC-ADF3-B6E0F7033A19";
paths = (
{
closed = 1;
nodes = (
"334 0 LINE",
"334 1441 LINE",
"180 1441 LINE",
"180 0 LINE"
);
}
);
width = 514;
}
);
leftKerningGroup = h;
leftMetricsKey = "=h";
note = l;
rightKerningGroup = d;
rightMetricsKey = "=d";
unicode = 006C;
},
{
color = 3;
glyphname = lslash;
layers = (
{
background = {
paths = (
{
closed = 1;
nodes = (
"5 722 LINE",
"5 578 LINE",
"509 895 LINE",
"509 1037 LINE"
);
},
{
closed = 1;
nodes = (
"334 0 LINE",
"334 1441 LINE",
"180 1441 LINE",
"180 0 LINE"
);
}
);
};
layerId = "2F8B9CD4-7B7F-4ACC-ADF3-B6E0F7033A19";
paths = (
{
closed = 1;
nodes = (
"334 924 LINE",
"334 1441 LINE",
"180 1441 LINE",
"180 835 LINE",
"5 722 LINE",
"5 578 LINE",
"180 692 LINE",
"180 0 LINE",
"334 0 LINE",
"334 781 LINE",
"509 895 LINE",
"509 1037 LINE"
);
}
);
width = 514;
}
);
leftKerningGroup = l;
note = lslash;
rightKerningGroup = l;
unicode = 0142;
},
{
color = 3;
glyphname = m;
layers = (
{
anchors = (
{
name = bottom;
position = "{892, 0}";
},
{
name = top;
position = "{892, 1011}";
}
);
background = {
paths = (
{
closed = 1;
nodes = (
"3382 851 OFFCURVE",
"3364 924 OFFCURVE",
"3300 972 CURVE SMOOTH",
"3259 1003 OFFCURVE",
"3190 1034 OFFCURVE",
"3077 1034 CURVE SMOOTH",
"2987 1034 OFFCURVE",
"2897 1024 OFFCURVE",
"2825 972 CURVE SMOOTH",
"2792 948 OFFCURVE",
"2754 900 OFFCURVE",
"2738 865 CURVE",
"2685 986 OFFCURVE",
"2597 1034 OFFCURVE",
"2441 1034 CURVE SMOOTH",
"2345 1034 OFFCURVE",
"2275 1017 OFFCURVE",
"2224 982 CURVE SMOOTH",
"2173 946 OFFCURVE",
"2141 910 OFFCURVE",
"2119 868 CURVE",
"2108 1011 LINE",
"1981 1011 LINE",
"1981 0 LINE",
"2134 0 LINE",
"2134 538 LINE SMOOTH",
"2134 595 OFFCURVE",
"2136 642 OFFCURVE",
"2140 679 CURVE SMOOTH",
"2148 754 OFFCURVE",
"2162 800 OFFCURVE",
"2180 825 CURVE SMOOTH",
"2227 890 OFFCURVE",
"2301 910 OFFCURVE",
"2397 910 CURVE SMOOTH",
"2498 910 OFFCURVE",
"2570 883 OFFCURVE",
"2595 799 CURVE SMOOTH",
"2607 759 OFFCURVE",
"2615 698 OFFCURVE",
"2615 603 CURVE SMOOTH",
"2615 0 LINE",
"2769 0 LINE",
"2769 582 LINE SMOOTH",
"2769 730 OFFCURVE",
"2786 847 OFFCURVE",
"2884 886 CURVE SMOOTH",
"2916 899 OFFCURVE",
"2962 909 OFFCURVE",
"3033 909 CURVE SMOOTH",
"3215 909 OFFCURVE",
"3251 823 OFFCURVE",
"3251 619 CURVE SMOOTH",
"3251 0 LINE",
"3404 0 LINE",
"3404 586 LINE SMOOTH",
"3404 651 OFFCURVE",
"3401 704 OFFCURVE",
"3396 745 CURVE SMOOTH"
);
},
{
closed = 1;
nodes = (
"2147 1034 OFFCURVE",
"1912 1034 CURVE SMOOTH",
"1735 1034 OFFCURVE",
"1626 980 OFFCURVE",
"1573 865 CURVE",
"1520 986 OFFCURVE",
"1432 1034 OFFCURVE",
"1276 1034 CURVE SMOOTH",
"1126 1034 OFFCURVE",
"1010 974 OFFCURVE",
"954 868 CURVE",
"941 1011 LINE",
"815 1011 LINE",
"815 0 LINE",
"969 0 LINE",
"969 626 LINE SMOOTH",
"969 821 OFFCURVE",
"1042 905 OFFCURVE",
"1229 905 CURVE SMOOTH",
"1388 905 OFFCURVE",
"1450 824 OFFCURVE",
"1450 644 CURVE SMOOTH",
"1450 0 LINE",
"1604 0 LINE",
"1604 653 LINE SMOOTH",
"1604 824 OFFCURVE",
"1688 904 OFFCURVE",
"1868 904 CURVE SMOOTH",
"2025 904 OFFCURVE",
"2086 834 OFFCURVE",
"2086 653 CURVE SMOOTH",
"2086 0 LINE",
"2240 0 LINE",
"2240 653 LINE SMOOTH",
"2240 908 OFFCURVE"
);
}
);
};
layerId = "2F8B9CD4-7B7F-4ACC-ADF3-B6E0F7033A19";
paths = (
{
closed = 1;
nodes = (
"1512 1034 OFFCURVE",
"1277 1034 CURVE SMOOTH",
"1100 1034 OFFCURVE",
"991 980 OFFCURVE",
"938 865 CURVE",
"885 986 OFFCURVE",
"797 1034 OFFCURVE",
"641 1034 CURVE SMOOTH",
"491 1034 OFFCURVE",
"375 974 OFFCURVE",
"319 868 CURVE",
"306 1011 LINE",
"180 1011 LINE",
"180 0 LINE",
"334 0 LINE",
"334 626 LINE SMOOTH",
"334 821 OFFCURVE",
"407 905 OFFCURVE",
"594 905 CURVE SMOOTH",
"753 905 OFFCURVE",
"815 824 OFFCURVE",
"815 644 CURVE SMOOTH",
"815 0 LINE",
"969 0 LINE",
"969 626 LINE SMOOTH",
"969 821 OFFCURVE",
"1042 905 OFFCURVE",
"1229 905 CURVE SMOOTH",
"1388 905 OFFCURVE",
"1450 824 OFFCURVE",
"1450 644 CURVE SMOOTH",
"1450 0 LINE",
"1604 0 LINE",
"1604 653 LINE SMOOTH",
"1604 908 OFFCURVE"
);
}
);
width = 1779;
}
);
leftKerningGroup = n;
leftMetricsKey = "=n";
note = m;
rightKerningGroup = n;
rightMetricsKey = "=n";
unicode = 006D;
},
{
color = 3;
glyphname = n;
layers = (
{
anchors = (
{
name = bottom;
position = "{602, 0}";
},
{
name = top;
position = "{602, 1011}";
}
);
background = {
paths = (
{
closed = 1;
nodes = (
"926 993 OFFCURVE",
"829 1037 OFFCURVE",
"674 1037 CURVE SMOOTH",
"579 1037 OFFCURVE",
"509 1032 OFFCURVE",
"444 997 CURVE SMOOTH",
"394 970 OFFCURVE",
"343 913 OFFCURVE",
"318 868 CURVE",
"306 1011 LINE",
"180 1011 LINE",
"180 0 LINE",
"334 0 LINE",
"334 609 LINE SMOOTH",
"334 709 OFFCURVE",
"357 791 OFFCURVE",
"394 830 CURVE SMOOTH",
"451 891 OFFCURVE",
"514 908 OFFCURVE",
"629 908 CURVE SMOOTH",
"671 908 OFFCURVE",
"695 905 OFFCURVE",
"719 901 CURVE SMOOTH",
"838 883 OFFCURVE",
"879 783 OFFCURVE",
"879 617 CURVE SMOOTH",
"879 0 LINE",
"1033 0 LINE",
"1033 587 LINE SMOOTH",
"1033 750 OFFCURVE",
"1019 837 OFFCURVE",
"974 908 CURVE"
);
}
);
};
layerId = "2F8B9CD4-7B7F-4ACC-ADF3-B6E0F7033A19";
paths = (
{
closed = 1;
nodes = (
"932 1034 OFFCURVE",
"674 1034 CURVE SMOOTH",
"484 1034 OFFCURVE",
"385 987 OFFCURVE",
"318 865 CURVE",
"306 1011 LINE",
"180 1011 LINE",
"180 0 LINE",
"334 0 LINE",
"334 606 LINE SMOOTH",
"334 821 OFFCURVE",
"417 905 OFFCURVE",
"629 905 CURVE SMOOTH",
"809 905 OFFCURVE",
"879 824 OFFCURVE",
"879 614 CURVE SMOOTH",
"879 0 LINE",
"1033 0 LINE",
"1033 614 LINE SMOOTH",
"1033 916 OFFCURVE"
);
}
);
width = 1208;
}
);
leftKerningGroup = n;
note = n;
rightKerningGroup = n;
unicode = 006E;
},
{
color = 3;
glyphname = eng;
layers = (
{
anchors = (
{
name = bottom;
position = "{602, 0}";
},
{
name = top;
position = "{602, 1011}";
}
);
background = {
paths = (
{
closed = 1;
nodes = (
"932 1034 OFFCURVE",
"674 1034 CURVE SMOOTH",
"484 1034 OFFCURVE",
"385 987 OFFCURVE",
"318 865 CURVE",
"306 1011 LINE",
"180 1011 LINE",
"180 0 LINE",
"334 0 LINE",
"334 606 LINE SMOOTH",
"334 821 OFFCURVE",
"417 905 OFFCURVE",
"629 905 CURVE SMOOTH",
"809 905 OFFCURVE",
"879 824 OFFCURVE",
"879 614 CURVE SMOOTH",
"879 0 LINE",
"1033 0 LINE",
"1033 614 LINE SMOOTH",
"1033 916 OFFCURVE"
);
}
);
};
layerId = "2F8B9CD4-7B7F-4ACC-ADF3-B6E0F7033A19";
paths = (
{
closed = 1;
nodes = (
"484 1034 OFFCURVE",
"385 987 OFFCURVE",
"318 865 CURVE",
"306 1011 LINE",
"180 1011 LINE",
"180 0 LINE",
"334 0 LINE",
"334 606 LINE SMOOTH",
"334 821 OFFCURVE",
"417 905 OFFCURVE",
"629 905 CURVE SMOOTH",
"809 905 OFFCURVE",
"879 824 OFFCURVE",
"879 614 CURVE SMOOTH",
"879 -108 LINE SMOOTH",
"879 -234 OFFCURVE",
"846 -266 OFFCURVE",
"715 -266 CURVE SMOOTH",
"680 -266 OFFCURVE",
"641 -262 OFFCURVE",
"609 -255 CURVE",
"609 -388 LINE",
"645 -397 OFFCURVE",
"690 -402 OFFCURVE",
"735 -402 CURVE SMOOTH",
"950 -402 OFFCURVE",
"1033 -314 OFFCURVE",
"1033 -87 CURVE SMOOTH",
"1033 614 LINE SMOOTH",
"1033 916 OFFCURVE",
"932 1034 OFFCURVE",
"674 1034 CURVE SMOOTH"
);
}
);
width = 1208;
}
);
leftKerningGroup = n;
leftMetricsKey = "=n";
rightKerningGroup = n;
rightMetricsKey = "=n";
unicode = 014B;
},
{
color = 3;
glyphname = o;
layers = (
{
anchors = (
{
name = bottom;
position = "{588, 0}";
},
{
name = center;
position = "{588, 506}";
},
{
name = ogonek;
position = "{665, 0}";
},
{
name = top;
position = "{587, 1011}";
},
{
name = topright;
position = "{760, 1012}";
}
);
background = {
paths = (
{
closed = 1;
nodes = (
"685 909 OFFCURVE",
"768 898 OFFCURVE",
"820 836 CURVE SMOOTH",
"876 769 OFFCURVE",
"897 634 OFFCURVE",
"897 504 CURVE SMOOTH",
"897 393 OFFCURVE",
"889 321 OFFCURVE",
"876 272 CURVE SMOOTH",
"842 141 OFFCURVE",
"753 102 OFFCURVE",
"591 102 CURVE SMOOTH",
"429 102 OFFCURVE",
"334 137 OFFCURVE",
"300 270 CURVE SMOOTH",
"288 319 OFFCURVE",
"277 391 OFFCURVE",
"277 502 CURVE SMOOTH",
"277 636 OFFCURVE",
"287 746 OFFCURVE",
"352 831 CURVE SMOOTH",
"399 893 OFFCURVE",
"489 909 OFFCURVE",
"585 909 CURVE"
);
},
{
closed = 1;
nodes = (
"452 1034 OFFCURVE",
"300 997 OFFCURVE",
"225 912 CURVE SMOOTH",
"143 819 OFFCURVE",
"120 663 OFFCURVE",
"120 506 CURVE SMOOTH",
"120 379 OFFCURVE",
"136 289 OFFCURVE",
"157 225 CURVE SMOOTH",
"215 46 OFFCURVE",
"368 -23 OFFCURVE",
"585 -23 CURVE SMOOTH",
"801 -23 OFFCURVE",
"957 38 OFFCURVE",
"1017 225 CURVE SMOOTH",
"1038 289 OFFCURVE",
"1054 381 OFFCURVE",
"1054 509 CURVE SMOOTH",
"1054 663 OFFCURVE",
"1033 816 OFFCURVE",
"948 913 CURVE SMOOTH",
"872 996 OFFCURVE",
"722 1034 OFFCURVE",
"585 1034 CURVE SMOOTH"
);
}
);
};
layerId = "2F8B9CD4-7B7F-4ACC-ADF3-B6E0F7033A19";
paths = (
{
closed = 1;
nodes = (
"822 909 OFFCURVE",
"897 812 OFFCURVE",
"897 504 CURVE SMOOTH",
"897 198 OFFCURVE",
"824 102 OFFCURVE",
"591 102 CURVE SMOOTH",
"352 102 OFFCURVE",
"277 198 OFFCURVE",
"277 502 CURVE SMOOTH",
"277 811 OFFCURVE",
"351 909 OFFCURVE",
"585 909 CURVE"
);
},
{
closed = 1;
nodes = (
"250 1034 OFFCURVE",
"120 886 OFFCURVE",
"120 506 CURVE SMOOTH",
"120 125 OFFCURVE",
"250 -23 OFFCURVE",
"585 -23 CURVE SMOOTH",
"923 -23 OFFCURVE",
"1054 126 OFFCURVE",
"1054 509 CURVE SMOOTH",
"1054 887 OFFCURVE",
"923 1034 OFFCURVE",
"585 1034 CURVE SMOOTH"
);
}
);
width = 1174;
}
);
leftKerningGroup = o;
note = o;
rightKerningGroup = o;
unicode = 006F;
},
{
color = 3;
glyphname = oslash;
layers = (
{
anchors = (
{
name = bottom;
position = "{588, 0}";
},
{
name = top;
position = "{577, 1011}";
}
);
background = {
paths = (
{
closed = 1;
nodes = (
"822 909 OFFCURVE",
"897 812 OFFCURVE",
"897 504 CURVE SMOOTH",
"897 198 OFFCURVE",
"824 102 OFFCURVE",
"591 102 CURVE SMOOTH",
"352 102 OFFCURVE",
"277 198 OFFCURVE",
"277 502 CURVE SMOOTH",
"277 811 OFFCURVE",
"351 909 OFFCURVE",
"585 909 CURVE"
);
},
{
closed = 1;
nodes = (
"250 1034 OFFCURVE",
"120 886 OFFCURVE",
"120 506 CURVE SMOOTH",
"120 125 OFFCURVE",
"250 -23 OFFCURVE",
"585 -23 CURVE SMOOTH",
"923 -23 OFFCURVE",
"1054 126 OFFCURVE",
"1054 509 CURVE SMOOTH",
"1054 887 OFFCURVE",
"923 1034 OFFCURVE",
"585 1034 CURVE SMOOTH"
);
},
{
closed = 1;
nodes = (
"337 -134 LINE",
"949 1155 LINE",
"828 1155 LINE",
"217 -134 LINE"
);
}
);
};
layerId = "2F8B9CD4-7B7F-4ACC-ADF3-B6E0F7033A19";
paths = (
{
closed = 1;
nodes = (
"631 909 OFFCURVE",
"671 905 OFFCURVE",
"706 897 CURVE",
"361 170 LINE",
"300 229 OFFCURVE",
"277 334 OFFCURVE",
"277 502 CURVE SMOOTH",
"277 811 OFFCURVE",
"351 909 OFFCURVE",
"585 909 CURVE SMOOTH"
);
},
{
closed = 1;
nodes = (
"250 1034 OFFCURVE",
"120 886 OFFCURVE",
"120 506 CURVE SMOOTH",
"120 262 OFFCURVE",
"173 114 OFFCURVE",
"299 39 CURVE",
"217 -134 LINE",
"337 -134 LINE",
"399 -2 LINE",
"453 -16 OFFCURVE",
"514 -23 OFFCURVE",
"585 -23 CURVE SMOOTH",
"923 -23 OFFCURVE",
"1054 126 OFFCURVE",
"1054 509 CURVE SMOOTH",
"1054 756 OFFCURVE",
"998 905 OFFCURVE",
"865 978 CURVE",
"949 1155 LINE",
"828 1155 LINE",
"762 1016 LINE",
"711 1028 OFFCURVE",
"652 1034 OFFCURVE",
"585 1034 CURVE SMOOTH"
);
},
{
closed = 1;
nodes = (
"804 850 LINE",
"872 791 OFFCURVE",
"897 683 OFFCURVE",
"897 504 CURVE SMOOTH",
"897 198 OFFCURVE",
"824 102 OFFCURVE",
"591 102 CURVE SMOOTH",
"538 102 OFFCURVE",
"494 107 OFFCURVE",
"456 117 CURVE"
);
}
);
width = 1174;
}
);
leftKerningGroup = o;
leftMetricsKey = o;
widthMetricsKey = o;
note = oslash;
rightKerningGroup = o;
unicode = 00F8;
},
{
color = 3;
glyphname = oe;
layers = (
{
anchors = (
{
name = bottom;
position = "{943, 0}";
},
{
name = top;
position = "{943, 1011}";
}
);
background = {
paths = (
{
closed = 1;
nodes = (
"2822 909 OFFCURVE",
"2897 812 OFFCURVE",
"2897 504 CURVE SMOOTH",
"2897 198 OFFCURVE",
"2824 102 OFFCURVE",
"2591 102 CURVE SMOOTH",
"2352 102 OFFCURVE",
"2277 198 OFFCURVE",
"2277 502 CURVE SMOOTH",
"2277 811 OFFCURVE",
"2351 909 OFFCURVE",
"2585 909 CURVE"
);
},
{
closed = 1;
nodes = (
"2250 1034 OFFCURVE",
"2120 886 OFFCURVE",
"2120 506 CURVE SMOOTH",
"2120 125 OFFCURVE",
"2250 -23 OFFCURVE",
"2585 -23 CURVE SMOOTH",
"2923 -23 OFFCURVE",
"3034 126 OFFCURVE",
"3034 509 CURVE SMOOTH",
"3034 887 OFFCURVE",
"2923 1034 OFFCURVE",
"2585 1034 CURVE SMOOTH"
);
},
{
closed = 1;
nodes = (
"3065 835 OFFCURVE",
"3135 911 OFFCURVE",
"3345 911 CURVE SMOOTH",
"3548 911 OFFCURVE",
"3625 822 OFFCURVE",
"3620 594 CURVE",
"3057 594 LINE"
);
},
{
closed = 1;
nodes = (
"3605 148 OFFCURVE",
"3534 97 OFFCURVE",
"3357 97 CURVE SMOOTH",
"3140 97 OFFCURVE",
"3055 204 OFFCURVE",
"3055 480 CURVE",
"3776 480 LINE",
"3776 510 OFFCURVE",
"3777 543 OFFCURVE",
"3777 577 CURVE SMOOTH",
"3777 906 OFFCURVE",
"3657 1034 OFFCURVE",
"3349 1034 CURVE SMOOTH",
"3022 1034 OFFCURVE",
"2919 858 OFFCURVE",
"2919 505 CURVE SMOOTH",
"2919 125 OFFCURVE",
"3026 -23 OFFCURVE",
"3353 -23 CURVE SMOOTH",
"3635 -23 OFFCURVE",
"3768 73 OFFCURVE",
"3768 278 CURVE",
"3611 278 LINE"
);
},
{
closed = 1;
nodes = (
"1065 835 OFFCURVE",
"1135 911 OFFCURVE",
"1339 911 CURVE SMOOTH",
"1543 911 OFFCURVE",
"1612 835 OFFCURVE",
"1620 594 CURVE",
"1057 594 LINE"
);
},
{
closed = 1;
nodes = (
"1605 148 OFFCURVE",
"1534 102 OFFCURVE",
"1357 102 CURVE SMOOTH",
"1140 102 OFFCURVE",
"1055 209 OFFCURVE",
"1055 480 CURVE",
"1776 480 LINE",
"1776 858 OFFCURVE",
"1676 1034 OFFCURVE",
"1339 1034 CURVE SMOOTH",
"1012 1034 OFFCURVE",
"899 858 OFFCURVE",
"899 505 CURVE SMOOTH",
"899 125 OFFCURVE",
"1026 -23 OFFCURVE",
"1353 -23 CURVE SMOOTH",
"1635 -23 OFFCURVE",
"1768 73 OFFCURVE",
"1768 278 CURVE",
"1611 278 LINE"
);
}
);
};
layerId = "2F8B9CD4-7B7F-4ACC-ADF3-B6E0F7033A19";
paths = (
{
closed = 1;
nodes = (
"822 909 OFFCURVE",
"897 812 OFFCURVE",
"897 504 CURVE SMOOTH",
"897 198 OFFCURVE",
"824 102 OFFCURVE",
"591 102 CURVE SMOOTH",
"352 102 OFFCURVE",
"277 198 OFFCURVE",
"277 502 CURVE SMOOTH",
"277 811 OFFCURVE",
"351 909 OFFCURVE",
"585 909 CURVE SMOOTH"
);
},
{
closed = 1;
nodes = (
"120 125 OFFCURVE",
"250 -23 OFFCURVE",
"585 -23 CURVE SMOOTH",
"790 -23 OFFCURVE",
"911 32 OFFCURVE",
"975 160 CURVE",
"1037 32 OFFCURVE",
"1154 -23 OFFCURVE",
"1353 -23 CURVE SMOOTH",
"1635 -23 OFFCURVE",
"1768 73 OFFCURVE",
"1768 278 CURVE",
"1611 278 LINE",
"1605 148 OFFCURVE",
"1534 102 OFFCURVE",
"1357 102 CURVE SMOOTH",
"1140 102 OFFCURVE",
"1055 209 OFFCURVE",
"1055 480 CURVE",
"1776 480 LINE",
"1776 858 OFFCURVE",
"1676 1034 OFFCURVE",
"1339 1034 CURVE SMOOTH",
"1145 1034 OFFCURVE",
"1040 972 OFFCURVE",
"978 848 CURVE",
"915 978 OFFCURVE",
"793 1034 OFFCURVE",
"585 1034 CURVE SMOOTH",
"250 1034 OFFCURVE",
"120 886 OFFCURVE",
"120 506 CURVE SMOOTH"
);
},
{
closed = 1;
nodes = (
"1065 835 OFFCURVE",
"1135 911 OFFCURVE",
"1339 911 CURVE SMOOTH",
"1542 911 OFFCURVE",
"1612 835 OFFCURVE",
"1620 594 CURVE",
"1057 594 LINE"
);
}
);
width = 1886;
}
);
leftKerningGroup = o;
leftMetricsKey = "=o";
note = oe;
rightKerningGroup = e;
rightMetricsKey = "=e";
unicode = 0153;
},
{
color = 3;
glyphname = p;
layers = (
{
anchors = (
{
name = bottom;
position = "{604, -389}";
},
{
name = top;
position = "{604, 1011}";
}
);
background = {
paths = (
{
closed = 1;
nodes = (
"405 102 OFFCURVE",
"334 251 OFFCURVE",
"334 510 CURVE SMOOTH",
"334 828 OFFCURVE",
"394 907 OFFCURVE",
"632 907 CURVE SMOOTH",
"857 907 OFFCURVE",
"913 829 OFFCURVE",
"913 517 CURVE SMOOTH",
"913 185 OFFCURVE",
"856 102 OFFCURVE",
"628 102 CURVE SMOOTH"
);
},
{
closed = 1;
nodes = (
"402 12 OFFCURVE",
"495 -23 OFFCURVE",
"665 -23 CURVE SMOOTH",
"957 -23 OFFCURVE",
"1071 128 OFFCURVE",
"1071 518 CURVE SMOOTH",
"1071 889 OFFCURVE",
"958 1033 OFFCURVE",
"667 1033 CURVE SMOOTH",
"489 1033 OFFCURVE",
"392 989 OFFCURVE",
"321 875 CURVE",
"303 1010 LINE",
"180 1010 LINE",
"180 -389 LINE",
"334 -389 LINE",
"334 103 LINE"
);
}
);
};
layerId = "2F8B9CD4-7B7F-4ACC-ADF3-B6E0F7033A19";
paths = (
{
closed = 1;
nodes = (
"334 -389 LINE",
"334 113 LINE",
"401 16 OFFCURVE",
"494 -23 OFFCURVE",
"665 -23 CURVE SMOOTH",
"941 -23 OFFCURVE",
"1071 120 OFFCURVE",
"1071 514 CURVE SMOOTH",
"1071 888 OFFCURVE",
"941 1034 OFFCURVE",
"667 1034 CURVE SMOOTH",
"449 1034 OFFCURVE",
"369 952 OFFCURVE",
"321 877 CURVE",
"303 1011 LINE",
"180 1011 LINE",
"180 -389 LINE"
);
},
{
closed = 1;
nodes = (
"393 102 OFFCURVE",
"334 183 OFFCURVE",
"334 506 CURVE SMOOTH",
"334 812 OFFCURVE",
"406 909 OFFCURVE",
"632 909 CURVE SMOOTH",
"847 909 OFFCURVE",
"915 815 OFFCURVE",
"915 516 CURVE SMOOTH",
"915 201 OFFCURVE",
"846 102 OFFCURVE",
"629 102 CURVE SMOOTH"
);
}
);
width = 1191;
}
);
leftKerningGroup = n;
leftMetricsKey = n;
note = p;
rightKerningGroup = o;
rightMetricsKey = "=o";
unicode = 0070;
},
{
color = 3;
glyphname = thorn;
layers = (
{
background = {
paths = (
{
closed = 1;
nodes = (
"398 17 OFFCURVE",
"504 -23 OFFCURVE",
"665 -23 CURVE SMOOTH",
"959 -23 OFFCURVE",
"1073 126 OFFCURVE",
"1073 510 CURVE SMOOTH",
"1073 887 OFFCURVE",
"959 1033 OFFCURVE",
"667 1033 CURVE SMOOTH",
"449 1033 OFFCURVE",
"373 950 OFFCURVE",
"323 875 CURVE",
"323 1441 LINE",
"180 1441 LINE",
"180 -302 LINE",
"334 -302 LINE",
"334 103 LINE"
);
},
{
closed = 1;
nodes = (
"428 102 OFFCURVE",
"334 233 OFFCURVE",
"334 510 CURVE SMOOTH",
"334 812 OFFCURVE",
"406 907 OFFCURVE",
"632 907 CURVE SMOOTH",
"857 907 OFFCURVE",
"913 829 OFFCURVE",
"913 517 CURVE SMOOTH",
"913 185 OFFCURVE",
"856 102 OFFCURVE",
"628 102 CURVE SMOOTH"
);
}
);
};
layerId = "2F8B9CD4-7B7F-4ACC-ADF3-B6E0F7033A19";
paths = (
{
closed = 1;
nodes = (
"334 -389 LINE",
"334 113 LINE",
"401 16 OFFCURVE",
"494 -23 OFFCURVE",
"665 -23 CURVE SMOOTH",
"941 -23 OFFCURVE",
"1071 120 OFFCURVE",
"1071 514 CURVE SMOOTH",
"1071 888 OFFCURVE",
"941 1034 OFFCURVE",
"667 1034 CURVE SMOOTH",
"449 1034 OFFCURVE",
"369 952 OFFCURVE",
"323 878 CURVE",
"323 1441 LINE",
"180 1441 LINE",
"180 -389 LINE"
);
},
{
closed = 1;
nodes = (
"393 102 OFFCURVE",
"334 183 OFFCURVE",
"334 506 CURVE SMOOTH",
"334 812 OFFCURVE",
"406 909 OFFCURVE",
"632 909 CURVE SMOOTH",
"847 909 OFFCURVE",
"915 815 OFFCURVE",
"915 516 CURVE SMOOTH",
"915 201 OFFCURVE",
"846 102 OFFCURVE",
"629 102 CURVE SMOOTH"
);
}
);
width = 1191;
}
);
leftKerningGroup = h;
leftMetricsKey = n;
note = thorn;
rightKerningGroup = o;
rightMetricsKey = o;
unicode = 00FE;
},
{
color = 3;
glyphname = q;
layers = (
{
background = {
paths = (
{
closed = 1;
nodes = (
"335 102 OFFCURVE",
"278 185 OFFCURVE",
"278 517 CURVE SMOOTH",
"278 829 OFFCURVE",
"334 907 OFFCURVE",
"559 907 CURVE SMOOTH",
"785 907 OFFCURVE",
"857 812 OFFCURVE",
"857 510 CURVE SMOOTH",
"857 233 OFFCURVE",
"763 102 OFFCURVE",
"563 102 CURVE SMOOTH"
);
},
{
closed = 1;
nodes = (
"857 -389 LINE",
"1011 -389 LINE",
"1011 1010 LINE",
"888 1010 LINE",
"870 875 LINE",
"803 982 OFFCURVE",
"692 1033 OFFCURVE",
"524 1033 CURVE SMOOTH",
"233 1033 OFFCURVE",
"120 889 OFFCURVE",
"120 518 CURVE SMOOTH",
"120 107 OFFCURVE",
"217 -23 OFFCURVE",
"526 -23 CURVE SMOOTH",
"696 -23 OFFCURVE",
"789 12 OFFCURVE",
"857 103 CURVE"
);
}
);
};
layerId = "2F8B9CD4-7B7F-4ACC-ADF3-B6E0F7033A19";
paths = (
{
closed = 1;
nodes = (
"1011 -389 LINE",
"1011 1011 LINE",
"888 1011 LINE",
"870 877 LINE",
"822 952 OFFCURVE",
"742 1034 OFFCURVE",
"524 1034 CURVE SMOOTH",
"250 1034 OFFCURVE",
"120 888 OFFCURVE",
"120 514 CURVE SMOOTH",
"120 120 OFFCURVE",
"250 -23 OFFCURVE",
"526 -23 CURVE SMOOTH",
"697 -23 OFFCURVE",
"790 16 OFFCURVE",
"857 113 CURVE",
"857 -389 LINE"
);
},
{
closed = 1;
nodes = (
"345 102 OFFCURVE",
"276 201 OFFCURVE",
"276 516 CURVE SMOOTH",
"276 815 OFFCURVE",
"344 909 OFFCURVE",
"559 909 CURVE SMOOTH",
"785 909 OFFCURVE",
"857 812 OFFCURVE",
"857 506 CURVE SMOOTH",
"857 183 OFFCURVE",
"798 102 OFFCURVE",
"562 102 CURVE SMOOTH"
);
}
);
width = 1191;
}
);
leftKerningGroup = o;
leftMetricsKey = "=o";
note = q;
rightKerningGroup = u;
rightMetricsKey = "=u";
unicode = 0071;
},
{
color = 3;
glyphname = r;
layers = (
{
anchors = (
{
name = bottom;
position = "{257, 0}";
},
{
name = top;
position = "{416, 1011}";
}
);
background = {
paths = (
{
closed = 1;
nodes = (
"1480 1011 LINE",
"1480 817 LINE",
"1480 0 LINE",
"1628 0 LINE",
"1628 698 LINE",
"1652 771 OFFCURVE",
"1702 818 OFFCURVE",
"1761 846 CURVE SMOOTH",
"1820 873 OFFCURVE",
"1887 882 OFFCURVE",
"1943 882 CURVE SMOOTH",
"1952 882 OFFCURVE",
"1952 882 OFFCURVE",
"1965 881 CURVE",
"1965 1034 LINE",
"1946 1034 LINE SMOOTH",
"1867 1034 OFFCURVE",
"1806 1014 OFFCURVE",
"1755 982 CURVE SMOOTH",
"1704 950 OFFCURVE",
"1662 905 OFFCURVE",
"1625 854 CURVE",
"1619 1011 LINE"
);
},
{
closed = 1;
nodes = (
"932 1034 OFFCURVE",
"674 1034 CURVE SMOOTH",
"484 1034 OFFCURVE",
"385 987 OFFCURVE",
"318 865 CURVE",
"306 1011 LINE",
"180 1011 LINE",
"180 0 LINE",
"334 0 LINE",
"334 606 LINE SMOOTH",
"334 821 OFFCURVE",
"417 905 OFFCURVE",
"629 905 CURVE SMOOTH",
"809 905 OFFCURVE",
"879 824 OFFCURVE",
"879 614 CURVE SMOOTH",
"879 0 LINE",
"1033 0 LINE",
"1033 614 LINE SMOOTH",
"1033 916 OFFCURVE"
);
}
);
};
layerId = "2F8B9CD4-7B7F-4ACC-ADF3-B6E0F7033A19";
paths = (
{
closed = 1;
nodes = (
"180 1011 LINE",
"180 0 LINE",
"334 0 LINE",
"334 698 LINE",
"377 827 OFFCURVE",
"503 881 OFFCURVE",
"649 881 CURVE SMOOTH",
"671 881 LINE",
"671 1034 LINE",
"652 1034 LINE SMOOTH",
"526 1034 OFFCURVE",
"396 996 OFFCURVE",
"325 854 CURVE",
"306 1011 LINE"
);
}
);
width = 733;
}
);
leftKerningGroup = n;
leftMetricsKey = "=n";
note = r;
rightKerningGroup = r;
unicode = 0072;
},
{
color = 3;
glyphname = s;
layers = (
{
anchors = (
{
name = bottom;
position = "{472, 0}";
},
{
name = top;
position = "{472, 1011}";
}
);
background = {
paths = (
{
closed = 1;
nodes = (
"110 60 OFFCURVE",
"220 -23 OFFCURVE",
"503 -23 CURVE SMOOTH",
"764 -23 OFFCURVE",
"866 62 OFFCURVE",
"866 279 CURVE SMOOTH",
"866 468 OFFCURVE",
"772 541 OFFCURVE",
"535 575 CURVE SMOOTH",
"322 605 OFFCURVE",
"259 649 OFFCURVE",
"259 741 CURVE SMOOTH",
"259 868 OFFCURVE",
"325 918 OFFCURVE",
"494 918 CURVE SMOOTH",
"656 918 OFFCURVE",
"719 868 OFFCURVE",
"719 739 CURVE",
"857 739 LINE",
"865 951 OFFCURVE",
"764 1034 OFFCURVE",
"494 1034 CURVE SMOOTH",
"233 1034 OFFCURVE",
"110 943 OFFCURVE",
"110 749 CURVE SMOOTH",
"110 573 OFFCURVE",
"212 491 OFFCURVE",
"436 459 CURVE SMOOTH",
"652 429 OFFCURVE",
"724 380 OFFCURVE",
"724 279 CURVE SMOOTH",
"724 139 OFFCURVE",
"670 95 OFFCURVE",
"499 95 CURVE SMOOTH",
"309 95 OFFCURVE",
"248 137 OFFCURVE",
"246 272 CURVE",
"110 272 LINE"
);
}
);
};
layerId = "2F8B9CD4-7B7F-4ACC-ADF3-B6E0F7033A19";
paths = (
{
closed = 1;
nodes = (
"105 60 OFFCURVE",
"220 -23 OFFCURVE",
"493 -23 CURVE SMOOTH",
"752 -23 OFFCURVE",
"866 71 OFFCURVE",
"866 271 CURVE SMOOTH",
"866 448 OFFCURVE",
"774 532 OFFCURVE",
"539 570 CURVE SMOOTH",
"433 587 LINE SMOOTH",
"311 607 OFFCURVE",
"259 653 OFFCURVE",
"259 745 CURVE SMOOTH",
"259 864 OFFCURVE",
"328 914 OFFCURVE",
"494 914 CURVE SMOOTH",
"656 914 OFFCURVE",
"716 864 OFFCURVE",
"716 737 CURVE",
"862 737 LINE",
"862 949 OFFCURVE",
"763 1034 OFFCURVE",
"494 1034 CURVE SMOOTH",
"236 1034 OFFCURVE",
"110 935 OFFCURVE",
"110 743 CURVE SMOOTH",
"110 575 OFFCURVE",
"203 491 OFFCURVE",
"428 455 CURVE SMOOTH",
"534 438 LINE SMOOTH",
"666 417 OFFCURVE",
"724 363 OFFCURVE",
"724 269 CURVE SMOOTH",
"724 146 OFFCURVE",
"669 97 OFFCURVE",
"499 97 CURVE SMOOTH",
"309 97 OFFCURVE",
"253 139 OFFCURVE",
"251 272 CURVE",
"105 272 LINE"
);
}
);
width = 971;
}
);
leftKerningGroup = s;
note = s;
rightKerningGroup = s;
unicode = 0073;
},
{
glyphname = germandbls;
layers = (
{
background = {
paths = (
{
closed = 1;
nodes = (
"2531 -23 OFFCURVE",
"2646 104 OFFCURVE",
"2646 432 CURVE SMOOTH",
"2646 669 OFFCURVE",
"2559 798 OFFCURVE",
"2323 838 CURVE",
"2321 820 LINE",
"2489 849 OFFCURVE",
"2555 956 OFFCURVE",
"2555 1117 CURVE SMOOTH",
"2555 1389 OFFCURVE",
"2397 1472 OFFCURVE",
"2113 1472 CURVE SMOOTH",
"1802 1472 OFFCURVE",
"1681 1369 OFFCURVE",
"1681 1105 CURVE SMOOTH",
"1681 0 LINE",
"1834 0 LINE",
"1834 1087 LINE SMOOTH",
"1834 1296 OFFCURVE",
"1890 1348 OFFCURVE",
"2113 1348 CURVE SMOOTH",
"2328 1348 OFFCURVE",
"2396 1292 OFFCURVE",
"2396 1114 CURVE SMOOTH",
"2396 962 OFFCURVE",
"2344 891 OFFCURVE",
"2184 891 CURVE SMOOTH",
"2055 891 LINE",
"2055 755 LINE",
"2183 755 LINE SMOOTH",
"2414 755 OFFCURVE",
"2485 664 OFFCURVE",
"2485 429 CURVE SMOOTH",
"2485 170 OFFCURVE",
"2435 105 OFFCURVE",
"2233 105 CURVE SMOOTH",
"2158 105 OFFCURVE",
"2057 113 OFFCURVE",
"1955 127 CURVE",
"1955 0 LINE",
"2045 -15 OFFCURVE",
"2145 -23 OFFCURVE",
"2234 -23 CURVE SMOOTH"
);
},
{
closed = 1;
nodes = (
"829 1347 OFFCURVE",
"897 1291 OFFCURVE",
"897 1115 CURVE SMOOTH",
"897 939 OFFCURVE",
"830 884 OFFCURVE",
"619 884 CURVE SMOOTH",
"401 884 OFFCURVE",
"333 939 OFFCURVE",
"333 1113 CURVE SMOOTH",
"333 1291 OFFCURVE",
"401 1347 OFFCURVE",
"614 1347 CURVE"
);
},
{
closed = 1;
nodes = (
"303 1472 OFFCURVE",
"182 1372 OFFCURVE",
"182 1116 CURVE SMOOTH",
"182 859 OFFCURVE",
"303 759 OFFCURVE",
"616 759 CURVE SMOOTH",
"932 759 OFFCURVE",
"1054 859 OFFCURVE",
"1054 1118 CURVE SMOOTH",
"1054 1373 OFFCURVE",
"932 1472 OFFCURVE",
"616 1472 CURVE SMOOTH"
);
}
);
};
layerId = "2F8B9CD4-7B7F-4ACC-ADF3-B6E0F7033A19";
paths = (
{
closed = 1;
nodes = (
"1010 -23 OFFCURVE",
"1145 105 OFFCURVE",
"1145 432 CURVE SMOOTH",
"1145 670 OFFCURVE",
"1078 808 OFFCURVE",
"842 838 CURVE",
"840 820 LINE",
"988 849 OFFCURVE",
"1052 956 OFFCURVE",
"1052 1117 CURVE SMOOTH",
"1052 1373 OFFCURVE",
"922 1472 OFFCURVE",
"616 1472 CURVE SMOOTH",
"313 1472 OFFCURVE",
"180 1349 OFFCURVE",
"180 1085 CURVE SMOOTH",
"180 0 LINE",
"333 0 LINE",
"333 1067 LINE SMOOTH",
"333 1281 OFFCURVE",
"411 1347 OFFCURVE",
"614 1347 CURVE SMOOTH",
"819 1347 OFFCURVE",
"898 1291 OFFCURVE",
"898 1115 CURVE SMOOTH",
"898 949 OFFCURVE",
"830 884 OFFCURVE",
"663 884 CURVE SMOOTH",
"564 884 LINE",
"564 762 LINE",
"702 762 LINE SMOOTH",
"916 762 OFFCURVE",
"988 683 OFFCURVE",
"988 432 CURVE SMOOTH",
"988 181 OFFCURVE",
"916 102 OFFCURVE",
"732 102 CURVE SMOOTH",
"627 102 OFFCURVE",
"556 119 OFFCURVE",
"468 147 CURVE",
"468 15 LINE",
"544 -10 OFFCURVE",
"644 -23 OFFCURVE",
"723 -23 CURVE SMOOTH"
);
}
);
width = 1265;
}
);
leftKerningGroup = h;
leftMetricsKey = n;
note = germandbls;
rightKerningGroup = B;
unicode = 00DF;
},
{
glyphname = schwa;
layers = (
{
background = {
paths = (
{
closed = 1;
nodes = (
"767 333 OFFCURVE",
"755 280 OFFCURVE",
"742 240 CURVE SMOOTH",
"708 134 OFFCURVE",
"620 100 OFFCURVE",
"482 100 CURVE SMOOTH",
"351 100 OFFCURVE",
"272 127 OFFCURVE",
"237 222 CURVE SMOOTH",
"221 265 OFFCURVE",
"205 325 OFFCURVE",
"207 417 CURVE",
"770 417 LINE"
);
},
{
closed = 1;
nodes = (
"200 898 OFFCURVE",
"326 914 OFFCURVE",
"470 914 CURVE SMOOTH",
"527 914 OFFCURVE",
"610 906 OFFCURVE",
"649 882 CURVE",
"738 832 OFFCURVE",
"772 680 OFFCURVE",
"772 531 CURVE",
"51 531 LINE",
"51 438 OFFCURVE",
"42 312 OFFCURVE",
"77 214 CURVE SMOOTH",
"94 166 OFFCURVE",
"111 133 OFFCURVE",
"126 113 CURVE SMOOTH",
"202 12 OFFCURVE",
"334 -23 OFFCURVE",
"478 -23 CURVE SMOOTH",
"684 -23 OFFCURVE",
"823 44 OFFCURVE",
"886 219 CURVE SMOOTH",
"909 283 OFFCURVE",
"928 374 OFFCURVE",
"928 506 CURVE SMOOTH",
"928 637 OFFCURVE",
"911 729 OFFCURVE",
"887 794 CURVE SMOOTH",
"849 898 OFFCURVE",
"798 959 OFFCURVE",
"707 996 CURVE SMOOTH",
"653 1018 OFFCURVE",
"578 1034 OFFCURVE",
"474 1034 CURVE SMOOTH",
"346 1034 OFFCURVE",
"199 1014 OFFCURVE",
"129 931 CURVE SMOOTH",
"83 877 OFFCURVE",
"59 816 OFFCURVE",
"59 733 CURVE",
"193 733 LINE"
);
}
);
};
layerId = "2F8B9CD4-7B7F-4ACC-ADF3-B6E0F7033A19";
paths = (
{
closed = 1;
nodes = (
"821 176 OFFCURVE",
"753 100 OFFCURVE",
"549 100 CURVE SMOOTH",
"345 100 OFFCURVE",
"278 176 OFFCURVE",
"270 417 CURVE",
"829 417 LINE"
);
},
{
closed = 1;
nodes = (
"281 843 OFFCURVE",
"372 909 OFFCURVE",
"529 909 CURVE SMOOTH",
"746 909 OFFCURVE",
"831 802 OFFCURVE",
"831 531 CURVE",
"110 531 LINE",
"110 153 OFFCURVE",
"210 -23 OFFCURVE",
"547 -23 CURVE SMOOTH",
"874 -23 OFFCURVE",
"987 163 OFFCURVE",
"987 506 CURVE SMOOTH",
"987 886 OFFCURVE",
"860 1034 OFFCURVE",
"533 1034 CURVE SMOOTH",
"271 1034 OFFCURVE",
"128 918 OFFCURVE",
"118 713 CURVE",
"275 713 LINE"
);
}
);
width = 1107;
}
);
leftKerningGroup = o;
leftMetricsKey = "=|e";
rightKerningGroup = o;
rightMetricsKey = o;
unicode = 0259;
},
{
glyphname = t;
layers = (
{
anchors = (
{
name = bottom;
position = "{435, 0}";
},
{
name = center;
position = "{332, 506}";
},
{
name = top;
position = "{425, 1011}";
},
{
name = topright;
position = "{425, 1084}";
}
);
layerId = "2F8B9CD4-7B7F-4ACC-ADF3-B6E0F7033A19";
paths = (
{
closed = 1;
nodes = (
"634 1014 LINE",
"385 1014 LINE",
"385 1291 LINE",
"232 1291 LINE",
"232 1014 LINE",
"50 1014 LINE",
"50 892 LINE",
"232 892 LINE",
"232 289 LINE SMOOTH",
"232 75 OFFCURVE",
"327 -26 OFFCURVE",
"510 -26 CURVE SMOOTH",
"576 -26 OFFCURVE",
"621 -19 OFFCURVE",
"656 -12 CURVE",
"656 121 LINE",
"623 115 OFFCURVE",
"582 110 OFFCURVE",
"540 110 CURVE SMOOTH",
"432 110 OFFCURVE",
"386 154 OFFCURVE",
"386 268 CURVE",
"386 892 LINE",
"634 892 LINE"
);
}
);
width = 726;
}
);
leftKerningGroup = t;
note = t;
rightKerningGroup = t;
unicode = 0074;
},
{
color = 3;
glyphname = u;
layers = (
{
anchors = (
{
name = bottom;
position = "{589, 0}";
},
{
name = ogonek;
position = "{955, 0}";
},
{
name = top;
position = "{589, 1011}";
},
{
name = topright;
position = "{935, 1011}";
}
);
background = {
paths = (
{
closed = 1;
nodes = (
"175 73 OFFCURVE",
"260 -23 OFFCURVE",
"529 -23 CURVE SMOOTH",
"684 -23 OFFCURVE",
"808 34 OFFCURVE",
"874 135 CURVE",
"887 0 LINE",
"1015 0 LINE",
"1015 1011 LINE",
"862 1011 LINE",
"862 422 LINE SMOOTH",
"862 204 OFFCURVE",
"769 102 OFFCURVE",
"571 102 CURVE SMOOTH",
"387 102 OFFCURVE",
"329 174 OFFCURVE",
"329 403 CURVE SMOOTH",
"329 1011 LINE",
"175 1011 LINE",
"175 376 LINE SMOOTH"
);
}
);
};
layerId = "2F8B9CD4-7B7F-4ACC-ADF3-B6E0F7033A19";
paths = (
{
closed = 1;
nodes = (
"274 -23 OFFCURVE",
"528 -23 CURVE SMOOTH",
"715 -23 OFFCURVE",
"812 24 OFFCURVE",
"878 146 CURVE",
"890 0 LINE",
"1016 0 LINE",
"1016 1011 LINE",
"862 1011 LINE",
"862 405 LINE SMOOTH",
"862 190 OFFCURVE",
"781 106 OFFCURVE",
"573 106 CURVE SMOOTH",
"397 106 OFFCURVE",
"329 187 OFFCURVE",
"329 397 CURVE SMOOTH",
"329 1011 LINE",
"175 1011 LINE",
"175 397 LINE SMOOTH",
"175 95 OFFCURVE"
);
}
);
width = 1196;
}
);
leftKerningGroup = u;
leftMetricsKey = "=|n";
note = u;
rightKerningGroup = u;
rightMetricsKey = "=|n";
unicode = 0075;
},
{
glyphname = v;
layers = (
{
anchors = (
{
name = bottom;
position = "{521, 0}";
},
{
name = top;
position = "{521, 1011}";
}
);
layerId = "2F8B9CD4-7B7F-4ACC-ADF3-B6E0F7033A19";
paths = (
{
closed = 1;
nodes = (
"622 0 LINE",
"991 1011 LINE",
"833 1011 LINE",
"523 141 LINE",
"210 1011 LINE",
"50 1011 LINE",
"423 0 LINE"
);
}
);
width = 1041;
}
);
leftKerningGroup = v;
note = v;
rightKerningGroup = v;
unicode = 0076;
},
{
glyphname = w;
layers = (
{
anchors = (
{
name = bottom;
position = "{796, 0}";
},
{
name = top;
position = "{796, 1011}";
}
);
layerId = "2F8B9CD4-7B7F-4ACC-ADF3-B6E0F7033A19";
paths = (
{
closed = 1;
nodes = (
"536 0 LINE",
"792 874 LINE",
"1046 0 LINE",
"1221 0 LINE",
"1511 1011 LINE",
"1353 1011 LINE",
"1199 383 LINE",
"1140 127 LINE",
"1077 383 LINE",
"888 1011 LINE",
"698 1011 LINE",
"505 376 LINE",
"446 125 LINE",
"389 387 LINE",
"231 1011 LINE",
"70 1011 LINE",
"360 0 LINE"
);
}
);
width = 1581;
}
);
leftKerningGroup = v;
note = w;
rightKerningGroup = v;
unicode = 0077;
},
{
color = 3;
glyphname = x;
layers = (
{
anchors = (
{
name = bottom;
position = "{506, 0}";
},
{
name = top;
position = "{506, 1011}";
}
);
background = {
paths = (
{
closed = 1;
nodes = (
"40 1011 LINE",
"219 1011 LINE",
"536 568 LINE",
"555 568 LINE",
"971 0 LINE",
"792 0 LINE",
"465 451 LINE",
"446 451 LINE"
);
},
{
closed = 1;
nodes = (
"544 451 LINE",
"217 0 LINE",
"43 0 LINE",
"459 568 LINE",
"478 568 LINE",
"795 1011 LINE",
"969 1011 LINE",
"563 451 LINE"
);
}
);
};
layerId = "2F8B9CD4-7B7F-4ACC-ADF3-B6E0F7033A19";
paths = (
{
closed = 1;
nodes = (
"219 1011 LINE",
"533 572 LINE",
"481 572 LINE",
"795 1011 LINE",
"969 1011 LINE",
"576 468 LINE",
"575 540 LINE",
"971 0 LINE",
"792 0 LINE",
"479 433 LINE",
"531 433 LINE",
"217 0 LINE",
"43 0 LINE",
"437 537 LINE",
"436 465 LINE",
"40 1011 LINE"
);
}
);
width = 1011;
}
);
leftKerningGroup = x;
note = x;
rightKerningGroup = x;
unicode = 0078;
},
{
color = 3;
glyphname = y;
layers = (
{
anchors = (
{
name = bottom;
position = "{1179, 0}";
},
{
name = top;
position = "{602, 1011}";
}
);
background = {
paths = (
{
closed = 1;
nodes = (
"2291 47 OFFCURVE",
"2289 -23 OFFCURVE",
"2285 -54 CURVE SMOOTH",
"2271 -163 OFFCURVE",
"2240 -224 OFFCURVE",
"2159 -252 CURVE SMOOTH",
"2119 -266 OFFCURVE",
"2058 -269 OFFCURVE",
"1989 -269 CURVE SMOOTH",
"1910 -269 OFFCURVE",
"1888 -263 OFFCURVE",
"1853 -251 CURVE SMOOTH",
"1759 -218 OFFCURVE",
"1745 -180 OFFCURVE",
"1743 -106 CURVE",
"1586 -106 LINE",
"1587 -239 OFFCURVE",
"1667 -330 OFFCURVE",
"1770 -367 CURVE SMOOTH",
"1822 -386 OFFCURVE",
"1903 -394 OFFCURVE",
"2005 -394 CURVE SMOOTH",
"2127 -394 OFFCURVE",
"2238 -380 OFFCURVE",
"2317 -305 CURVE SMOOTH",
"2415 -211 OFFCURVE",
"2427 -109 OFFCURVE",
"2427 122 CURVE SMOOTH",
"2427 1011 LINE",
"2274 1011 LINE",
"2274 462 LINE SMOOTH",
"2274 380 OFFCURVE",
"2273 325 OFFCURVE",
"2241 265 CURVE SMOOTH",
"2220 225 OFFCURVE",
"2181 190 OFFCURVE",
"2133 171 CURVE SMOOTH",
"2098 157 OFFCURVE",
"2046 142 OFFCURVE",
"1975 142 CURVE SMOOTH",
"1903 142 OFFCURVE",
"1855 153 OFFCURVE",
"1824 168 CURVE SMOOTH",
"1743 207 OFFCURVE",
"1731 313 OFFCURVE",
"1731 443 CURVE SMOOTH",
"1731 1011 LINE",
"1577 1011 LINE",
"1577 416 LINE SMOOTH",
"1577 309 OFFCURVE",
"1588 239 OFFCURVE",
"1602 192 CURVE SMOOTH",
"1623 122 OFFCURVE",
"1657 83 OFFCURVE",
"1736 50 CURVE SMOOTH",
"1782 31 OFFCURVE",
"1875 17 OFFCURVE",
"1963 17 CURVE SMOOTH",
"2123 17 OFFCURVE",
"2218 49 OFFCURVE",
"2291 169 CURVE",
"2291 96 LINE SMOOTH"
);
},
{
closed = 1;
nodes = (
"804 910 OFFCURVE",
"875 801 OFFCURVE",
"875 512 CURVE SMOOTH",
"875 223 OFFCURVE",
"815 114 OFFCURVE",
"583 114 CURVE SMOOTH",
"353 114 OFFCURVE",
"295 223 OFFCURVE",
"295 512 CURVE SMOOTH",
"295 801 OFFCURVE",
"352 910 OFFCURVE",
"580 910 CURVE SMOOTH"
);
},
{
closed = 1;
nodes = (
"880 -201 OFFCURVE",
"823 -282 OFFCURVE",
"584 -282 CURVE SMOOTH",
"410 -282 OFFCURVE",
"342 -237 OFFCURVE",
"338 -120 CURVE",
"181 -120 LINE",
"183 -315 OFFCURVE",
"312 -407 OFFCURVE",
"586 -407 CURVE SMOOTH",
"904 -407 OFFCURVE",
"1028 -276 OFFCURVE",
"1028 62 CURVE SMOOTH",
"1028 1011 LINE",
"910 1011 LINE",
"894 876 LINE",
"824 990 OFFCURVE",
"726 1034 OFFCURVE",
"545 1034 CURVE SMOOTH",
"253 1034 OFFCURVE",
"138 887 OFFCURVE",
"138 512 CURVE SMOOTH",
"138 137 OFFCURVE",
"253 -12 OFFCURVE",
"539 -12 CURVE SMOOTH",
"715 -12 OFFCURVE",
"846 25 OFFCURVE",
"904 168 CURVE",
"880 185 LINE",
"880 56 LINE SMOOTH"
);
}
);
};
layerId = "2F8B9CD4-7B7F-4ACC-ADF3-B6E0F7033A19";
paths = (
{
closed = 1;
nodes = (
"880 -201 OFFCURVE",
"823 -282 OFFCURVE",
"584 -282 CURVE SMOOTH",
"410 -282 OFFCURVE",
"342 -237 OFFCURVE",
"338 -120 CURVE",
"181 -120 LINE",
"183 -315 OFFCURVE",
"312 -407 OFFCURVE",
"586 -407 CURVE SMOOTH",
"904 -407 OFFCURVE",
"1028 -276 OFFCURVE",
"1028 62 CURVE SMOOTH",
"1028 1011 LINE",
"874 1011 LINE",
"874 445 LINE SMOOTH",
"874 230 OFFCURVE",
"791 146 OFFCURVE",
"579 146 CURVE SMOOTH",
"399 146 OFFCURVE",
"329 227 OFFCURVE",
"329 437 CURVE SMOOTH",
"329 1011 LINE",
"175 1011 LINE",
"175 437 LINE SMOOTH",
"175 135 OFFCURVE",
"276 17 OFFCURVE",
"534 17 CURVE SMOOTH",
"738 17 OFFCURVE",
"837 71 OFFCURVE",
"905 216 CURVE",
"880 233 LINE",
"880 56 LINE SMOOTH"
);
}
);
width = 1208;
}
);
leftKerningGroup = u;
leftMetricsKey = "=u";
note = y;
rightKerningGroup = u;
rightMetricsKey = "=u";
unicode = 0079;
},
{
color = 3;
glyphname = z;
layers = (
{
anchors = (
{
name = bottom;
position = "{458, 0}";
},
{
name = top;
position = "{458, 1011}";
}
);
layerId = "2F8B9CD4-7B7F-4ACC-ADF3-B6E0F7033A19";
paths = (
{
closed = 1;
nodes = (
"690 889 LINE",
"656 927 LINE",
"90 107 LINE",
"90 0 LINE",
"812 0 LINE",
"812 124 LINE",
"216 124 LINE",
"250 87 LINE",
"809 914 LINE",
"809 1011 LINE",
"99 1011 LINE",
"99 889 LINE"
);
}
);
width = 908;
}
);
leftKerningGroup = z;
note = z;
rightKerningGroup = z;
unicode = 007A;
},
{
color = 3;
glyphname = Dcroat;
layers = (
{
layerId = "2F8B9CD4-7B7F-4ACC-ADF3-B6E0F7033A19";
paths = (
{
closed = 1;
nodes = (
"1148 0 OFFCURVE",
"1362 233 OFFCURVE",
"1362 727 CURVE SMOOTH",
"1362 1213 OFFCURVE",
"1150 1441 OFFCURVE",
"698 1441 CURVE SMOOTH",
"220 1441 LINE",
"220 780 LINE",
"64 780 LINE",
"64 662 LINE",
"220 662 LINE",
"220 0 LINE",
"694 0 LINE SMOOTH"
);
},
{
closed = 1;
nodes = (
"394 662 LINE",
"802 662 LINE",
"802 780 LINE",
"394 780 LINE",
"394 1289 LINE",
"683 1289 LINE SMOOTH",
"1063 1289 OFFCURVE",
"1183 1153 OFFCURVE",
"1183 723 CURVE SMOOTH",
"1183 312 OFFCURVE",
"1048 152 OFFCURVE",
"701 152 CURVE SMOOTH",
"394 152 LINE"
);
}
);
width = 1487;
}
);
leftKerningGroup = H;
rightKerningGroup = O;
unicode = 0110;
},
{
color = 3;
glyphname = Hbar;
layers = (
{
layerId = "2F8B9CD4-7B7F-4ACC-ADF3-B6E0F7033A19";
paths = (
{
closed = 1;
nodes = (
"62 1088 LINE",
"220 1088 LINE",
"220 0 LINE",
"394 0 LINE",
"394 677 LINE",
"1196 677 LINE",
"1196 0 LINE",
"1370 0 LINE",
"1370 1088 LINE",
"1528 1088 LINE",
"1528 1234 LINE",
"1370 1234 LINE",
"1370 1441 LINE",
"1196 1441 LINE",
"1196 1234 LINE",
"394 1234 LINE",
"394 1441 LINE",
"220 1441 LINE",
"220 1234 LINE",
"62 1234 LINE"
);
},
{
closed = 1;
nodes = (
"394 1088 LINE",
"1196 1088 LINE",
"1196 829 LINE",
"394 829 LINE"
);
}
);
width = 1590;
}
);
leftKerningGroup = H;
rightKerningGroup = H;
unicode = 0126;
},
{
color = 3;
glyphname = Tbar;
layers = (
{
layerId = "2F8B9CD4-7B7F-4ACC-ADF3-B6E0F7033A19";
paths = (
{
closed = 1;
nodes = (
"492 1289 LINE",
"492 780 LINE",
"170 780 LINE",
"170 662 LINE",
"492 662 LINE",
"492 -1 LINE",
"665 -1 LINE",
"665 662 LINE",
"990 662 LINE",
"990 780 LINE",
"665 780 LINE",
"665 1289 LINE",
"1112 1289 LINE",
"1112 1441 LINE",
"45 1441 LINE",
"45 1289 LINE"
);
}
);
width = 1157;
}
);
leftKerningGroup = T;
rightKerningGroup = T;
unicode = 0166;
},
{
color = 3;
glyphname = dcroat;
layers = (
{
layerId = "2F8B9CD4-7B7F-4ACC-ADF3-B6E0F7033A19";
paths = (
{
closed = 1;
nodes = (
"742 -23 OFFCURVE",
"822 59 OFFCURVE",
"870 134 CURVE",
"888 0 LINE",
"1011 0 LINE",
"1011 1155 LINE",
"1134 1155 LINE",
"1134 1273 LINE",
"1011 1273 LINE",
"1011 1441 LINE",
"857 1441 LINE",
"857 1273 LINE",
"478 1273 LINE",
"478 1155 LINE",
"857 1155 LINE",
"857 898 LINE",
"790 995 OFFCURVE",
"697 1034 OFFCURVE",
"526 1034 CURVE SMOOTH",
"250 1034 OFFCURVE",
"120 891 OFFCURVE",
"120 497 CURVE SMOOTH",
"120 123 OFFCURVE",
"250 -23 OFFCURVE",
"524 -23 CURVE SMOOTH"
);
},
{
closed = 1;
nodes = (
"276 810 OFFCURVE",
"345 909 OFFCURVE",
"562 909 CURVE SMOOTH",
"798 909 OFFCURVE",
"857 828 OFFCURVE",
"857 505 CURVE SMOOTH",
"857 199 OFFCURVE",
"785 102 OFFCURVE",
"559 102 CURVE SMOOTH",
"344 102 OFFCURVE",
"276 196 OFFCURVE",
"276 495 CURVE SMOOTH"
);
}
);
width = 1191;
}
);
leftKerningGroup = o;
rightKerningGroup = d;
unicode = 0111;
},
{
color = 3;
glyphname = hbar;
layers = (
{
layerId = "2F8B9CD4-7B7F-4ACC-ADF3-B6E0F7033A19";
paths = (
{
closed = 1;
nodes = (
"1032 916 OFFCURVE",
"931 1034 OFFCURVE",
"673 1034 CURVE SMOOTH",
"483 1034 OFFCURVE",
"400 990 OFFCURVE",
"334 890 CURVE",
"334 1157 LINE",
"713 1157 LINE",
"713 1275 LINE",
"334 1275 LINE",
"334 1442 LINE",
"180 1442 LINE",
"180 1275 LINE",
"57 1275 LINE",
"57 1157 LINE",
"180 1157 LINE",
"180 0 LINE",
"334 0 LINE",
"334 606 LINE SMOOTH",
"334 821 OFFCURVE",
"416 905 OFFCURVE",
"628 905 CURVE SMOOTH",
"808 905 OFFCURVE",
"878 823 OFFCURVE",
"878 614 CURVE SMOOTH",
"878 0 LINE",
"1032 0 LINE",
"1032 614 LINE SMOOTH"
);
}
);
width = 1207;
}
);
leftKerningGroup = h;
rightKerningGroup = n;
unicode = 0127;
},
{
color = 3;
glyphname = tbar;
layers = (
{
layerId = "2F8B9CD4-7B7F-4ACC-ADF3-B6E0F7033A19";
paths = (
{
closed = 1;
nodes = (
"634 1014 LINE",
"385 1014 LINE",
"385 1291 LINE",
"232 1291 LINE",
"232 1014 LINE",
"50 1014 LINE",
"50 892 LINE",
"232 892 LINE",
"232 565 LINE",
"62 565 LINE",
"62 447 LINE",
"232 447 LINE",
"232 289 LINE SMOOTH",
"232 75 OFFCURVE",
"327 -26 OFFCURVE",
"510 -26 CURVE SMOOTH",
"576 -26 OFFCURVE",
"621 -19 OFFCURVE",
"656 -12 CURVE",
"656 121 LINE",
"623 115 OFFCURVE",
"582 110 OFFCURVE",
"540 110 CURVE SMOOTH",
"432 110 OFFCURVE",
"386 154 OFFCURVE",
"386 268 CURVE SMOOTH",
"386 447 LINE",
"602 447 LINE",
"602 565 LINE",
"386 565 LINE",
"386 892 LINE",
"634 892 LINE"
);
}
);
width = 726;
}
);
leftKerningGroup = t;
rightKerningGroup = t;
unicode = 0167;
},
{
color = 3;
glyphname = f_f;
layers = (
{
anchors = (
{
name = caret_1;
position = "{574, 0}";
}
);
layerId = "2F8B9CD4-7B7F-4ACC-ADF3-B6E0F7033A19";
paths = (
{
closed = 1;
nodes = (
"1166 1011 LINE",
"918 1011 LINE",
"918 1196 LINE SMOOTH",
"918 1291 OFFCURVE",
"954 1321 OFFCURVE",
"1066 1321 CURVE SMOOTH",
"1096 1321 OFFCURVE",
"1138 1318 OFFCURVE",
"1183 1313 CURVE",
"1183 1437 LINE",
"1141 1444 OFFCURVE",
"1097 1448 OFFCURVE",
"1062 1448 CURVE SMOOTH",
"836 1448 OFFCURVE",
"764 1373 OFFCURVE",
"764 1155 CURVE SMOOTH",
"764 1011 LINE",
"386 1011 LINE",
"386 1196 LINE SMOOTH",
"386 1291 OFFCURVE",
"422 1321 OFFCURVE",
"534 1321 CURVE SMOOTH",
"564 1321 OFFCURVE",
"606 1318 OFFCURVE",
"651 1313 CURVE",
"651 1437 LINE",
"609 1444 OFFCURVE",
"565 1448 OFFCURVE",
"530 1448 CURVE SMOOTH",
"304 1448 OFFCURVE",
"232 1373 OFFCURVE",
"232 1155 CURVE SMOOTH",
"232 1011 LINE",
"50 1011 LINE",
"50 889 LINE",
"232 889 LINE",
"232 0 LINE",
"386 0 LINE",
"386 889 LINE",
"764 889 LINE",
"764 0 LINE",
"918 0 LINE",
"918 889 LINE",
"1166 889 LINE"
);
}
);
width = 1248;
}
);
leftKerningGroup = f;
leftMetricsKey = f;
rightKerningGroup = f;
rightMetricsKey = f;
},
{
color = 3;
glyphname = f_f_i;
layers = (
{
anchors = (
{
name = caret_1;
position = "{575, 0}";
},
{
name = caret_2;
position = "{1107, 0}";
}
);
background = {
paths = (
{
closed = 1;
nodes = (
"386 1011 LINE",
"386 1196 LINE",
"386 1255 OFFCURVE",
"397 1279 OFFCURVE",
"424 1300 CURVE SMOOTH",
"445 1316 OFFCURVE",
"492 1321 OFFCURVE",
"534 1321 CURVE SMOOTH",
"596 1321 OFFCURVE",
"607 1318 OFFCURVE",
"651 1313 CURVE",
"651 1437 LINE",
"627 1441 OFFCURVE",
"592 1448 OFFCURVE",
"530 1448 CURVE SMOOTH",
"417 1448 OFFCURVE",
"363 1431 OFFCURVE",
"323 1406 CURVE SMOOTH",
"268 1372 OFFCURVE",
"232 1316 OFFCURVE",
"232 1135 CURVE SMOOTH",
"232 1011 LINE",
"50 1011 LINE",
"50 889 LINE",
"232 889 LINE",
"232 0 LINE",
"385 0 LINE",
"385 889 LINE",
"634 889 LINE",
"634 1011 LINE"
);
},
{
closed = 1;
nodes = (
"1295 0 LINE",
"1449 0 LINE",
"1449 1011 LINE",
"1295 1011 LINE"
);
},
{
closed = 1;
nodes = (
"1299 1370 OFFCURVE",
"1279 1336 OFFCURVE",
"1279 1271 CURVE SMOOTH",
"1279 1207 OFFCURVE",
"1303 1185 OFFCURVE",
"1371 1185 CURVE SMOOTH",
"1447 1185 OFFCURVE",
"1465 1207 OFFCURVE",
"1465 1271 CURVE SMOOTH",
"1465 1303 OFFCURVE",
"1461 1328 OFFCURVE",
"1448 1345 CURVE SMOOTH",
"1435 1361 OFFCURVE",
"1411 1370 OFFCURVE",
"1371 1370 CURVE SMOOTH"
);
},
{
closed = 1;
nodes = (
"918 1011 LINE",
"918 1196 LINE",
"918 1255 OFFCURVE",
"929 1279 OFFCURVE",
"956 1300 CURVE SMOOTH",
"977 1316 OFFCURVE",
"1020 1321 OFFCURVE",
"1062 1321 CURVE SMOOTH",
"1124 1321 OFFCURVE",
"1139 1318 OFFCURVE",
"1183 1313 CURVE",
"1183 1437 LINE",
"1159 1441 OFFCURVE",
"1124 1448 OFFCURVE",
"1062 1448 CURVE SMOOTH",
"949 1448 OFFCURVE",
"895 1431 OFFCURVE",
"855 1406 CURVE SMOOTH",
"800 1372 OFFCURVE",
"764 1316 OFFCURVE",
"764 1135 CURVE SMOOTH",
"764 1011 LINE",
"582 1011 LINE",
"582 889 LINE",
"764 889 LINE",
"764 0 LINE",
"917 0 LINE",
"917 889 LINE",
"1380 889 LINE",
"1380 1011 LINE"
);
}
);
};
layerId = "2F8B9CD4-7B7F-4ACC-ADF3-B6E0F7033A19";
paths = (
{
closed = 1;
nodes = (
"386 1011 LINE",
"386 1196 LINE SMOOTH",
"386 1291 OFFCURVE",
"422 1321 OFFCURVE",
"534 1321 CURVE SMOOTH",
"564 1321 OFFCURVE",
"606 1318 OFFCURVE",
"651 1313 CURVE",
"651 1437 LINE",
"609 1444 OFFCURVE",
"565 1448 OFFCURVE",
"530 1448 CURVE SMOOTH",
"304 1448 OFFCURVE",
"232 1373 OFFCURVE",
"232 1155 CURVE SMOOTH",
"232 1011 LINE",
"50 1011 LINE",
"50 889 LINE",
"232 889 LINE",
"232 0 LINE",
"386 0 LINE",
"386 889 LINE",
"764 889 LINE",
"764 0 LINE",
"918 0 LINE",
"918 889 LINE",
"1296 889 LINE",
"1296 0 LINE",
"1450 0 LINE",
"1450 1011 LINE",
"918 1011 LINE",
"918 1196 LINE SMOOTH",
"918 1291 OFFCURVE",
"954 1321 OFFCURVE",
"1066 1321 CURVE SMOOTH",
"1096 1321 OFFCURVE",
"1138 1318 OFFCURVE",
"1183 1313 CURVE",
"1183 1437 LINE",
"1141 1444 OFFCURVE",
"1097 1448 OFFCURVE",
"1062 1448 CURVE SMOOTH",
"836 1448 OFFCURVE",
"764 1373 OFFCURVE",
"764 1155 CURVE SMOOTH",
"764 1011 LINE"
);
},
{
closed = 1;
nodes = (
"1476 1194 LINE",
"1476 1386 LINE",
"1270 1386 LINE",
"1270 1194 LINE"
);
}
);
width = 1630;
}
);
leftKerningGroup = f;
leftMetricsKey = f;
rightKerningGroup = i;
rightMetricsKey = i;
},
{
color = 3;
glyphname = f_f_l;
layers = (
{
anchors = (
{
name = caret_1;
position = "{575, 0}";
},
{
name = caret_2;
position = "{1107, 0}";
}
);
background = {
anchors = (
{
name = caret_1;
position = "{514, 0}";
},
{
name = caret_2;
position = "{1055, 0}";
}
);
paths = (
{
closed = 1;
nodes = (
"386 1011 LINE",
"386 1196 LINE SMOOTH",
"386 1291 OFFCURVE",
"422 1321 OFFCURVE",
"534 1321 CURVE SMOOTH",
"564 1321 OFFCURVE",
"606 1318 OFFCURVE",
"651 1313 CURVE",
"651 1437 LINE",
"609 1444 OFFCURVE",
"565 1448 OFFCURVE",
"530 1448 CURVE SMOOTH",
"304 1448 OFFCURVE",
"232 1373 OFFCURVE",
"232 1155 CURVE SMOOTH",
"232 1011 LINE",
"50 1011 LINE",
"50 889 LINE",
"232 889 LINE",
"232 0 LINE",
"386 0 LINE",
"386 889 LINE",
"764 889 LINE",
"764 0 LINE",
"918 0 LINE",
"918 889 LINE",
"1296 889 LINE",
"1296 0 LINE",
"1450 0 LINE",
"1450 1011 LINE",
"918 1011 LINE",
"918 1196 LINE SMOOTH",
"918 1291 OFFCURVE",
"954 1321 OFFCURVE",
"1066 1321 CURVE SMOOTH",
"1096 1321 OFFCURVE",
"1138 1318 OFFCURVE",
"1183 1313 CURVE",
"1183 1437 LINE",
"1141 1444 OFFCURVE",
"1097 1448 OFFCURVE",
"1062 1448 CURVE SMOOTH",
"836 1448 OFFCURVE",
"764 1373 OFFCURVE",
"764 1155 CURVE SMOOTH",
"764 1011 LINE"
);
},
{
closed = 1;
nodes = (
"1476 1194 LINE",
"1476 1386 LINE",
"1270 1386 LINE",
"1270 1194 LINE"
);
}
);
};
layerId = "2F8B9CD4-7B7F-4ACC-ADF3-B6E0F7033A19";
paths = (
{
closed = 1;
nodes = (
"1166 1011 LINE",
"918 1011 LINE",
"918 1196 LINE SMOOTH",
"918 1291 OFFCURVE",
"954 1321 OFFCURVE",
"1066 1321 CURVE SMOOTH",
"1096 1321 OFFCURVE",
"1138 1318 OFFCURVE",
"1183 1313 CURVE",
"1183 1437 LINE",
"1141 1444 OFFCURVE",
"1097 1448 OFFCURVE",
"1062 1448 CURVE SMOOTH",
"836 1448 OFFCURVE",
"764 1373 OFFCURVE",
"764 1155 CURVE SMOOTH",
"764 1011 LINE",
"386 1011 LINE",
"386 1196 LINE SMOOTH",
"386 1291 OFFCURVE",
"422 1321 OFFCURVE",
"534 1321 CURVE SMOOTH",
"564 1321 OFFCURVE",
"606 1318 OFFCURVE",
"651 1313 CURVE",
"651 1437 LINE",
"609 1444 OFFCURVE",
"565 1448 OFFCURVE",
"530 1448 CURVE SMOOTH",
"304 1448 OFFCURVE",
"232 1373 OFFCURVE",
"232 1155 CURVE SMOOTH",
"232 1011 LINE",
"50 1011 LINE",
"50 889 LINE",
"232 889 LINE",
"232 0 LINE",
"386 0 LINE",
"386 889 LINE",
"764 889 LINE",
"764 0 LINE",
"918 0 LINE",
"918 889 LINE",
"1166 889 LINE"
);
},
{
closed = 1;
nodes = (
"1296 1441 LINE",
"1296 0 LINE",
"1450 0 LINE",
"1450 1441 LINE"
);
}
);
width = 1630;
}
);
leftKerningGroup = f;
leftMetricsKey = f;
rightKerningGroup = l;
rightMetricsKey = l;
},
{
color = 3;
glyphname = fi;
layers = (
{
anchors = (
{
name = caret_1;
position = "{574, 0}";
}
);
background = {
paths = (
{
closed = 1;
nodes = (
"763 0 LINE",
"917 0 LINE",
"917 1011 LINE",
"763 1011 LINE"
);
},
{
closed = 1;
nodes = (
"767 1370 OFFCURVE",
"747 1336 OFFCURVE",
"747 1271 CURVE SMOOTH",
"747 1207 OFFCURVE",
"771 1185 OFFCURVE",
"839 1185 CURVE SMOOTH",
"915 1185 OFFCURVE",
"933 1207 OFFCURVE",
"933 1271 CURVE SMOOTH",
"933 1303 OFFCURVE",
"929 1328 OFFCURVE",
"916 1345 CURVE SMOOTH",
"903 1361 OFFCURVE",
"879 1370 OFFCURVE",
"839 1370 CURVE SMOOTH"
);
},
{
closed = 1;
nodes = (
"386 1011 LINE",
"386 1196 LINE",
"386 1255 OFFCURVE",
"397 1279 OFFCURVE",
"424 1300 CURVE SMOOTH",
"445 1316 OFFCURVE",
"488 1321 OFFCURVE",
"530 1321 CURVE SMOOTH",
"592 1321 OFFCURVE",
"607 1318 OFFCURVE",
"651 1313 CURVE",
"651 1437 LINE",
"627 1441 OFFCURVE",
"592 1448 OFFCURVE",
"530 1448 CURVE SMOOTH",
"417 1448 OFFCURVE",
"363 1431 OFFCURVE",
"323 1406 CURVE SMOOTH",
"268 1372 OFFCURVE",
"232 1316 OFFCURVE",
"232 1135 CURVE SMOOTH",
"232 1011 LINE",
"50 1011 LINE",
"50 889 LINE",
"232 889 LINE",
"232 0 LINE",
"385 0 LINE",
"385 889 LINE",
"848 889 LINE",
"848 1011 LINE"
);
}
);
};
layerId = "2F8B9CD4-7B7F-4ACC-ADF3-B6E0F7033A19";
paths = (
{
closed = 1;
nodes = (
"386 1011 LINE",
"386 1196 LINE SMOOTH",
"386 1291 OFFCURVE",
"422 1321 OFFCURVE",
"534 1321 CURVE SMOOTH",
"564 1321 OFFCURVE",
"606 1318 OFFCURVE",
"651 1313 CURVE",
"651 1437 LINE",
"609 1444 OFFCURVE",
"565 1448 OFFCURVE",
"530 1448 CURVE SMOOTH",
"304 1448 OFFCURVE",
"232 1373 OFFCURVE",
"232 1155 CURVE SMOOTH",
"232 1011 LINE",
"50 1011 LINE",
"50 889 LINE",
"232 889 LINE",
"232 0 LINE",
"386 0 LINE",
"386 889 LINE",
"762 889 LINE",
"762 0 LINE",
"916 0 LINE",
"916 1011 LINE"
);
},
{
closed = 1;
nodes = (
"942 1194 LINE",
"942 1386 LINE",
"736 1386 LINE",
"736 1194 LINE"
);
}
);
width = 1096;
}
);
leftKerningGroup = f;
leftMetricsKey = f;
note = fi;
rightKerningGroup = i;
rightMetricsKey = i;
unicode = FB01;
},
{
color = 3;
glyphname = fl;
layers = (
{
anchors = (
{
name = caret_1;
position = "{574, 0}";
}
);
background = {
paths = (
{
closed = 1;
nodes = (
"386 1011 LINE",
"386 1196 LINE SMOOTH",
"386 1291 OFFCURVE",
"422 1321 OFFCURVE",
"534 1321 CURVE SMOOTH",
"564 1321 OFFCURVE",
"606 1318 OFFCURVE",
"651 1313 CURVE",
"651 1437 LINE",
"609 1444 OFFCURVE",
"565 1448 OFFCURVE",
"530 1448 CURVE SMOOTH",
"304 1448 OFFCURVE",
"232 1373 OFFCURVE",
"232 1155 CURVE SMOOTH",
"232 1011 LINE",
"50 1011 LINE",
"50 889 LINE",
"232 889 LINE",
"232 0 LINE",
"386 0 LINE",
"386 889 LINE",
"762 889 LINE",
"762 0 LINE",
"916 0 LINE",
"916 1011 LINE"
);
},
{
closed = 1;
nodes = (
"942 1194 LINE",
"942 1386 LINE",
"736 1386 LINE",
"736 1194 LINE"
);
}
);
};
layerId = "2F8B9CD4-7B7F-4ACC-ADF3-B6E0F7033A19";
paths = (
{
closed = 1;
nodes = (
"386 1011 LINE",
"386 1196 LINE SMOOTH",
"386 1291 OFFCURVE",
"422 1321 OFFCURVE",
"534 1321 CURVE SMOOTH",
"564 1321 OFFCURVE",
"606 1318 OFFCURVE",
"651 1313 CURVE",
"651 1437 LINE",
"609 1444 OFFCURVE",
"565 1448 OFFCURVE",
"530 1448 CURVE SMOOTH",
"304 1448 OFFCURVE",
"232 1373 OFFCURVE",
"232 1155 CURVE SMOOTH",
"232 1011 LINE",
"50 1011 LINE",
"50 889 LINE",
"232 889 LINE",
"232 0 LINE",
"386 0 LINE",
"386 889 LINE",
"634 889 LINE",
"634 1011 LINE"
);
},
{
closed = 1;
nodes = (
"916 0 LINE",
"916 1441 LINE",
"762 1441 LINE",
"762 0 LINE"
);
}
);
width = 1096;
}
);
leftKerningGroup = f;
leftMetricsKey = f;
note = fl;
rightKerningGroup = l;
rightMetricsKey = l;
unicode = FB02;
},
{
glyphname = ordfeminine;
layers = (
{
layerId = "2F8B9CD4-7B7F-4ACC-ADF3-B6E0F7033A19";
paths = (
{
closed = 1;
nodes = (
"234 1252 LINE",
"234 1335 OFFCURVE",
"288 1363 OFFCURVE",
"399 1363 CURVE SMOOTH",
"506 1363 OFFCURVE",
"548 1342 OFFCURVE",
"548 1252 CURVE SMOOTH",
"548 1145 LINE",
"562 1159 LINE",
"527 1159 OFFCURVE",
"468 1159 OFFCURVE",
"407 1159 CURVE SMOOTH",
"185 1159 OFFCURVE",
"70 1087 OFFCURVE",
"70 924 CURVE SMOOTH",
"70 781 OFFCURVE",
"173 690 OFFCURVE",
"337 690 CURVE SMOOTH",
"446 690 OFFCURVE",
"572 754 OFFCURVE",
"600 818 CURVE",
"563 813 LINE",
"573 741 OFFCURVE",
"630 690 OFFCURVE",
"704 690 CURVE SMOOTH",
"724 690 OFFCURVE",
"738 690 OFFCURVE",
"759 697 CURVE",
"759 824 LINE",
"701 819 OFFCURVE",
"697 824 OFFCURVE",
"697 883 CURVE SMOOTH",
"697 1244 LINE SMOOTH",
"697 1407 OFFCURVE",
"603 1479 OFFCURVE",
"389 1479 CURVE SMOOTH",
"198 1479 OFFCURVE",
"94 1401 OFFCURVE",
"94 1252 CURVE"
);
},
{
closed = 1;
nodes = (
"501 841 OFFCURVE",
"429 816 OFFCURVE",
"366 816 CURVE SMOOTH",
"286 816 OFFCURVE",
"234 857 OFFCURVE",
"234 928 CURVE SMOOTH",
"234 1041 OFFCURVE",
"310 1054 OFFCURVE",
"442 1054 CURVE SMOOTH",
"484 1054 OFFCURVE",
"547 1054 OFFCURVE",
"562 1054 CURVE",
"548 1068 LINE",
"548 885 LINE"
);
}
);
width = 834;
}
);
leftKerningGroup = asterisk;
note = ordfeminine;
rightKerningGroup = asterisk;
unicode = 00AA;
},
{
glyphname = ordmasculine;
layers = (
{
layerId = "2F8B9CD4-7B7F-4ACC-ADF3-B6E0F7033A19";
paths = (
{
closed = 1;
nodes = (
"590 1361 OFFCURVE",
"624 1281 OFFCURVE",
"624 1091 CURVE SMOOTH",
"624 893 OFFCURVE",
"596 822 OFFCURVE",
"427 822 CURVE SMOOTH",
"258 822 OFFCURVE",
"225 889 OFFCURVE",
"225 1089 CURVE",
"225 1276 OFFCURVE",
"257 1361 OFFCURVE",
"423 1361 CURVE SMOOTH"
);
},
{
closed = 1;
nodes = (
"175 1486 OFFCURVE",
"75 1372 OFFCURVE",
"75 1092 CURVE SMOOTH",
"75 812 OFFCURVE",
"176 697 OFFCURVE",
"423 697 CURVE SMOOTH",
"675 697 OFFCURVE",
"775 810 OFFCURVE",
"775 1094 CURVE SMOOTH",
"775 1372 OFFCURVE",
"673 1486 OFFCURVE",
"423 1486 CURVE SMOOTH"
);
}
);
width = 850;
}
);
leftKerningGroup = asterisk;
note = ordmasculine;
rightKerningGroup = asterisk;
unicode = 00BA;
},
{
color = 3;
glyphname = Omega;
layers = (
{
background = {
paths = (
{
closed = 1;
nodes = (
"609 152 LINE",
"411 155 OFFCURVE",
"328 269 OFFCURVE",
"328 737 CURVE SMOOTH",
"328 1184 OFFCURVE",
"408 1326 OFFCURVE",
"682 1326 CURVE SMOOTH",
"956 1326 OFFCURVE",
"1032 1186 OFFCURVE",
"1032 737 CURVE SMOOTH",
"1032 269 OFFCURVE",
"955 152 OFFCURVE",
"751 152 CURVE",
"751 75 LINE",
"1083 75 OFFCURVE",
"1210 237 OFFCURVE",
"1210 737 CURVE SMOOTH",
"1210 1255 OFFCURVE",
"1084 1472 OFFCURVE",
"682 1472 CURVE SMOOTH",
"280 1472 OFFCURVE",
"150 1255 OFFCURVE",
"150 737 CURVE SMOOTH",
"150 238 OFFCURVE",
"279 76 OFFCURVE",
"609 75 CURVE"
);
},
{
closed = 1;
nodes = (
"609 152 LINE",
"120 152 LINE",
"120 0 LINE",
"609 0 LINE"
);
},
{
closed = 1;
nodes = (
"1240 152 LINE",
"751 152 LINE",
"751 0 LINE",
"1240 0 LINE"
);
}
);
};
layerId = "2F8B9CD4-7B7F-4ACC-ADF3-B6E0F7033A19";
paths = (
{
closed = 1;
nodes = (
"609 152 LINE",
"411 155 OFFCURVE",
"328 269 OFFCURVE",
"328 737 CURVE SMOOTH",
"328 1184 OFFCURVE",
"408 1326 OFFCURVE",
"682 1326 CURVE SMOOTH",
"956 1326 OFFCURVE",
"1032 1186 OFFCURVE",
"1032 737 CURVE SMOOTH",
"1032 269 OFFCURVE",
"955 152 OFFCURVE",
"751 152 CURVE",
"751 0 LINE",
"1220 0 LINE",
"1220 152 LINE",
"1041 152 LINE",
"1160 243 OFFCURVE",
"1210 424 OFFCURVE",
"1210 737 CURVE SMOOTH",
"1210 1255 OFFCURVE",
"1084 1472 OFFCURVE",
"682 1472 CURVE SMOOTH",
"280 1472 OFFCURVE",
"150 1255 OFFCURVE",
"150 737 CURVE SMOOTH",
"150 424 OFFCURVE",
"201 243 OFFCURVE",
"320 152 CURVE",
"140 152 LINE",
"140 0 LINE",
"609 0 LINE"
);
}
);
width = 1360;
}
);
unicode = 03A9;
},
{
color = 3;
glyphname = pi;
layers = (
{
layerId = "2F8B9CD4-7B7F-4ACC-ADF3-B6E0F7033A19";
paths = (
{
closed = 1;
nodes = (
"1376 1011 LINE",
"80 1011 LINE",
"80 859 LINE",
"352 859 LINE",
"340 650 OFFCURVE",
"269 262 OFFCURVE",
"166 0 CURVE",
"346 0 LINE",
"438 219 OFFCURVE",
"513 695 OFFCURVE",
"523 859 CURVE",
"987 859 LINE",
"987 0 LINE",
"1157 0 LINE",
"1157 859 LINE",
"1376 859 LINE"
);
}
);
width = 1425;
}
);
note = pi;
unicode = 03C0;
},
{
color = 3;
glyphname = zero;
layers = (
{
background = {
paths = (
{
closed = 1;
nodes = (
"992 1328 OFFCURVE",
"1022 1113 OFFCURVE",
"1022 742 CURVE SMOOTH",
"1022 539 OFFCURVE",
"1024 335 OFFCURVE",
"939 223 CURVE SMOOTH",
"890 157 OFFCURVE",
"800 125 OFFCURVE",
"669 125 CURVE SMOOTH",
"540 125 OFFCURVE",
"450 157 OFFCURVE",
"401 222 CURVE SMOOTH",
"319 332 OFFCURVE",
"318 530 OFFCURVE",
"318 731 CURVE SMOOTH",
"318 1107 OFFCURVE",
"347 1328 OFFCURVE",
"674 1328 CURVE SMOOTH"
);
},
{
closed = 1;
nodes = (
"505 1473 OFFCURVE",
"355 1427 OFFCURVE",
"276 1338 CURVE SMOOTH",
"153 1199 OFFCURVE",
"140 966 OFFCURVE",
"140 735 CURVE SMOOTH",
"140 435 OFFCURVE",
"172 231 OFFCURVE",
"280 112 CURVE SMOOTH",
"366 18 OFFCURVE",
"508 -21 OFFCURVE",
"671 -21 CURVE SMOOTH",
"831 -21 OFFCURVE",
"974 16 OFFCURVE",
"1062 114 CURVE SMOOTH",
"1167 231 OFFCURVE",
"1200 431 OFFCURVE",
"1200 736 CURVE SMOOTH",
"1200 1018 OFFCURVE",
"1172 1217 OFFCURVE",
"1066 1337 CURVE SMOOTH",
"983 1431 OFFCURVE",
"831 1473 OFFCURVE",
"675 1473 CURVE SMOOTH"
);
}
);
};
layerId = "2F8B9CD4-7B7F-4ACC-ADF3-B6E0F7033A19";
paths = (
{
closed = 1;
nodes = (
"946 1326 OFFCURVE",
"1022 1186 OFFCURVE",
"1022 737 CURVE SMOOTH",
"1022 246 OFFCURVE",
"946 123 OFFCURVE",
"672 123 CURVE SMOOTH",
"398 123 OFFCURVE",
"318 244 OFFCURVE",
"318 737 CURVE SMOOTH",
"318 1184 OFFCURVE",
"398 1326 OFFCURVE",
"672 1326 CURVE SMOOTH"
);
},
{
closed = 1;
nodes = (
"270 1472 OFFCURVE",
"140 1255 OFFCURVE",
"140 737 CURVE SMOOTH",
"140 196 OFFCURVE",
"270 -23 OFFCURVE",
"672 -23 CURVE SMOOTH",
"1074 -23 OFFCURVE",
"1200 196 OFFCURVE",
"1200 737 CURVE SMOOTH",
"1200 1255 OFFCURVE",
"1074 1472 OFFCURVE",
"672 1472 CURVE SMOOTH"
);
}
);
width = 1340;
}
);
leftKerningGroup = zero;
note = zero;
rightKerningGroup = zero;
unicode = 0030;
},
{
glyphname = one;
layers = (
{
layerId = "2F8B9CD4-7B7F-4ACC-ADF3-B6E0F7033A19";
paths = (
{
closed = 1;
nodes = (
"305 1277 LINE",
"305 0 LINE",
"479 0 LINE",
"479 1449 LINE",
"313 1449 LINE",
"85 1334 LINE",
"85 1172 LINE"
);
}
);
width = 699;
}
);
note = one;
unicode = 0031;
},
{
color = 3;
glyphname = two;
layers = (
{
layerId = "2F8B9CD4-7B7F-4ACC-ADF3-B6E0F7033A19";
paths = (
{
closed = 1;
nodes = (
"278 1256 OFFCURVE",
"353 1325 OFFCURVE",
"547 1325 CURVE SMOOTH",
"757 1325 OFFCURVE",
"839 1256 OFFCURVE",
"839 1097 CURVE SMOOTH",
"839 944 OFFCURVE",
"769 860 OFFCURVE",
"490 653 CURVE SMOOTH",
"185 429 OFFCURVE",
"109 305 OFFCURVE",
"109 34 CURVE SMOOTH",
"109 23 OFFCURVE",
"109 12 OFFCURVE",
"109 0 CURVE",
"995 0 LINE",
"995 152 LINE",
"298 152 LINE",
"298 286 OFFCURVE",
"394 397 OFFCURVE",
"628 563 CURVE SMOOTH",
"936 786 OFFCURVE",
"1013 890 OFFCURVE",
"1013 1091 CURVE SMOOTH",
"1013 1358 OFFCURVE",
"874 1469 OFFCURVE",
"554 1469 CURVE SMOOTH",
"245 1469 OFFCURVE",
"100 1344 OFFCURVE",
"100 1078 CURVE",
"278 1078 LINE"
);
}
);
width = 1103;
}
);
note = two;
unicode = 0032;
},
{
color = 3;
glyphname = three;
layers = (
{
background = {
paths = (
{
closed = 1;
nodes = (
"1783 1169 OFFCURVE",
"1799 1217 OFFCURVE",
"1846 1267 CURVE SMOOTH",
"1897 1320 OFFCURVE",
"1995 1328 OFFCURVE",
"2086 1328 CURVE SMOOTH",
"2182 1328 OFFCURVE",
"2261 1322 OFFCURVE",
"2307 1278 CURVE SMOOTH",
"2349 1238 OFFCURVE",
"2366 1201 OFFCURVE",
"2366 1080 CURVE SMOOTH",
"2366 924 OFFCURVE",
"2218 837 OFFCURVE",
"2020 837 CURVE SMOOTH",
"1895 837 LINE",
"1895 678 LINE",
"2020 679 LINE",
"2221 679 OFFCURVE",
"2397 602 OFFCURVE",
"2397 414 CURVE SMOOTH",
"2397 263 OFFCURVE",
"2376 224 OFFCURVE",
"2339 185 CURVE SMOOTH",
"2290 136 OFFCURVE",
"2188 122 OFFCURVE",
"2107 122 CURVE SMOOTH",
"2007 122 OFFCURVE",
"1900 134 OFFCURVE",
"1847 185 CURVE SMOOTH",
"1806 224 OFFCURVE",
"1781 263 OFFCURVE",
"1781 362 CURVE",
"1620 358 LINE",
"1620 214 OFFCURVE",
"1662 138 OFFCURVE",
"1720 86 CURVE SMOOTH",
"1802 13 OFFCURVE",
"1924 -21 OFFCURVE",
"2105 -21 CURVE SMOOTH",
"2475 -21 OFFCURVE",
"2567 180 OFFCURVE",
"2567 422 CURVE SMOOTH",
"2567 617 OFFCURVE",
"2413 729 OFFCURVE",
"2254 757 CURVE",
"2422 810 OFFCURVE",
"2533 928 OFFCURVE",
"2533 1107 CURVE SMOOTH",
"2533 1219 OFFCURVE",
"2503 1303 OFFCURVE",
"2446 1362 CURVE SMOOTH",
"2372 1439 OFFCURVE",
"2252 1472 OFFCURVE",
"2082 1472 CURVE SMOOTH",
"1939 1472 OFFCURVE",
"1812 1441 OFFCURVE",
"1724 1363 CURVE SMOOTH",
"1642 1290 OFFCURVE",
"1621 1215 OFFCURVE",
"1621 1070 CURVE",
"1783 1070 LINE"
);
},
{
closed = 1;
nodes = (
"120 370 LINE",
"119 105 OFFCURVE",
"270 -21 OFFCURVE",
"591 -21 CURVE SMOOTH",
"923 -21 OFFCURVE",
"1067 118 OFFCURVE",
"1067 393 CURVE SMOOTH",
"1067 589 OFFCURVE",
"975 694 OFFCURVE",
"778 759 CURVE",
"978 794 OFFCURVE",
"1067 846 OFFCURVE",
"1067 1046 CURVE SMOOTH",
"1067 1327 OFFCURVE",
"919 1469 OFFCURVE",
"605 1469 CURVE SMOOTH",
"275 1469 OFFCURVE",
"120 1348 OFFCURVE",
"120 1090 CURVE",
"281 1086 LINE",
"281 1259 OFFCURVE",
"372 1326 OFFCURVE",
"607 1326 CURVE SMOOTH",
"827 1326 OFFCURVE",
"897 1256 OFFCURVE",
"897 1054 CURVE SMOOTH",
"897 864 OFFCURVE",
"761 769 OFFCURVE",
"520 769 CURVE",
"395 769 LINE",
"395 680 LINE",
"533 680 LINE SMOOTH",
"768 680 OFFCURVE",
"893 573 OFFCURVE",
"893 383 CURVE SMOOTH",
"893 202 OFFCURVE",
"806 123 OFFCURVE",
"583 123 CURVE SMOOTH",
"378 123 OFFCURVE",
"298 192 OFFCURVE",
"298 370 CURVE"
);
}
);
};
layerId = "2F8B9CD4-7B7F-4ACC-ADF3-B6E0F7033A19";
paths = (
{
closed = 1;
nodes = (
"298 1256 OFFCURVE",
"373 1325 OFFCURVE",
"567 1325 CURVE SMOOTH",
"777 1325 OFFCURVE",
"859 1256 OFFCURVE",
"859 1097 CURVE SMOOTH",
"859 931 OFFCURVE",
"741 837 OFFCURVE",
"520 837 CURVE SMOOTH",
"395 837 LINE",
"395 679 LINE",
"533 679 LINE SMOOTH",
"768 679 OFFCURVE",
"893 573 OFFCURVE",
"893 383 CURVE SMOOTH",
"893 202 OFFCURVE",
"806 123 OFFCURVE",
"583 123 CURVE SMOOTH",
"378 123 OFFCURVE",
"298 192 OFFCURVE",
"298 370 CURVE",
"120 370 LINE",
"119 105 OFFCURVE",
"270 -21 OFFCURVE",
"591 -21 CURVE SMOOTH",
"923 -21 OFFCURVE",
"1067 118 OFFCURVE",
"1067 393 CURVE SMOOTH",
"1067 593 OFFCURVE",
"954 722 OFFCURVE",
"754 757 CURVE",
"944 816 OFFCURVE",
"1033 912 OFFCURVE",
"1033 1091 CURVE SMOOTH",
"1033 1342 OFFCURVE",
"894 1469 OFFCURVE",
"574 1469 CURVE SMOOTH",
"265 1469 OFFCURVE",
"119 1343 OFFCURVE",
"120 1078 CURVE",
"298 1078 LINE"
);
}
);
width = 1187;
}
);
note = three;
rightKerningGroup = three;
unicode = 0033;
},
{
color = 3;
glyphname = four;
layers = (
{
layerId = "2F8B9CD4-7B7F-4ACC-ADF3-B6E0F7033A19";
paths = (
{
closed = 1;
nodes = (
"217 479 LINE",
"238 431 LINE",
"741 1250 LINE",
"741 479 LINE"
);
},
{
closed = 1;
nodes = (
"113 334 LINE",
"741 334 LINE",
"741 -1 LINE",
"915 -1 LINE",
"915 334 LINE",
"1098 334 LINE",
"1098 481 LINE",
"915 481 LINE",
"915 1441 LINE",
"703 1441 LINE",
"113 492 LINE"
);
}
);
width = 1168;
}
);
note = four;
unicode = 0034;
},
{
color = 3;
glyphname = five;
layers = (
{
background = {
paths = (
{
closed = 1;
nodes = (
"2113 719 OFFCURVE",
"2181 758 OFFCURVE",
"2328 758 CURVE SMOOTH",
"2435 758 OFFCURVE",
"2506 749 OFFCURVE",
"2556 715 CURVE SMOOTH",
"2614 675 OFFCURVE",
"2628 585 OFFCURVE",
"2628 461 CURVE SMOOTH",
"2628 324 OFFCURVE",
"2613 220 OFFCURVE",
"2546 165 CURVE SMOOTH",
"2506 132 OFFCURVE",
"2410 114 OFFCURVE",
"2297 114 CURVE SMOOTH",
"2191 114 OFFCURVE",
"2128 128 OFFCURVE",
"2083 161 CURVE SMOOTH",
"2032 198 OFFCURVE",
"2022 248 OFFCURVE",
"2022 332 CURVE",
"1850 332 LINE",
"1850 221 OFFCURVE",
"1871 134 OFFCURVE",
"1948 71 CURVE SMOOTH",
"2034 1 OFFCURVE",
"2117 -25 OFFCURVE",
"2261 -25 CURVE SMOOTH",
"2693 -25 OFFCURVE",
"2802 143 OFFCURVE",
"2802 461 CURVE SMOOTH",
"2802 625 OFFCURVE",
"2763 750 OFFCURVE",
"2684 823 CURVE SMOOTH",
"2614 888 OFFCURVE",
"2505 908 OFFCURVE",
"2364 908 CURVE SMOOTH",
"2184 908 OFFCURVE",
"2101 831 OFFCURVE",
"2056 767 CURVE",
"2103 1294 LINE",
"2745 1294 LINE",
"2745 1440 LINE",
"1935 1440 LINE",
"1880 670 LINE",
"2023 618 LINE"
);
}
);
};
guideLines = (
{
angle = 90;
position = "{1055, 256}";
}
);
layerId = "2F8B9CD4-7B7F-4ACC-ADF3-B6E0F7033A19";
paths = (
{
closed = 1;
nodes = (
"406 712 OFFCURVE",
"495 758 OFFCURVE",
"633 758 CURVE SMOOTH",
"856 758 OFFCURVE",
"948 678 OFFCURVE",
"948 439 CURVE SMOOTH",
"948 200 OFFCURVE",
"856 121 OFFCURVE",
"633 121 CURVE SMOOTH",
"428 121 OFFCURVE",
"348 190 OFFCURVE",
"348 368 CURVE",
"170 368 LINE",
"169 103 OFFCURVE",
"320 -23 OFFCURVE",
"641 -23 CURVE SMOOTH",
"963 -23 OFFCURVE",
"1122 119 OFFCURVE",
"1122 439 CURVE SMOOTH",
"1122 760 OFFCURVE",
"973 902 OFFCURVE",
"674 902 CURVE SMOOTH",
"537 902 OFFCURVE",
"459 874 OFFCURVE",
"381 797 CURVE",
"419 1288 LINE",
"1065 1288 LINE",
"1065 1440 LINE",
"255 1440 LINE",
"200 670 LINE",
"358 618 LINE"
);
}
);
width = 1232;
}
);
note = five;
unicode = 0035;
},
{
color = 3;
glyphname = six;
layers = (
{
background = {
paths = (
{
closed = 1;
nodes = (
"1596 902 OFFCURVE",
"1441 760 OFFCURVE",
"1441 439 CURVE SMOOTH",
"1441 119 OFFCURVE",
"1607 -23 OFFCURVE",
"1937 -23 CURVE SMOOTH",
"2268 -23 OFFCURVE",
"2434 119 OFFCURVE",
"2434 439 CURVE SMOOTH",
"2434 760 OFFCURVE",
"2279 902 OFFCURVE",
"1937 902 CURVE SMOOTH"
);
},
{
closed = 1;
nodes = (
"1616 678 OFFCURVE",
"1714 758 OFFCURVE",
"1938 758 CURVE SMOOTH",
"2162 758 OFFCURVE",
"2260 678 OFFCURVE",
"2260 439 CURVE SMOOTH",
"2260 200 OFFCURVE",
"2162 121 OFFCURVE",
"1938 121 CURVE SMOOTH",
"1714 121 OFFCURVE",
"1616 200 OFFCURVE",
"1616 439 CURVE SMOOTH"
);
},
{
closed = 1;
nodes = (
"946 1326 OFFCURVE",
"1022 1186 OFFCURVE",
"1022 737 CURVE SMOOTH",
"1022 246 OFFCURVE",
"946 123 OFFCURVE",
"672 123 CURVE SMOOTH",
"398 123 OFFCURVE",
"318 244 OFFCURVE",
"318 737 CURVE SMOOTH",
"318 1184 OFFCURVE",
"398 1326 OFFCURVE",
"672 1326 CURVE SMOOTH"
);
},
{
closed = 1;
nodes = (
"270 1472 OFFCURVE",
"140 1255 OFFCURVE",
"140 737 CURVE SMOOTH",
"140 196 OFFCURVE",
"270 -23 OFFCURVE",
"672 -23 CURVE SMOOTH",
"1074 -23 OFFCURVE",
"1200 196 OFFCURVE",
"1200 737 CURVE SMOOTH",
"1200 1255 OFFCURVE",
"1074 1472 OFFCURVE",
"672 1472 CURVE SMOOTH"
);
}
);
};
guideLines = (
{
position = "{477, 154}";
}
);
layerId = "2F8B9CD4-7B7F-4ACC-ADF3-B6E0F7033A19";
paths = (
{
closed = 1;
nodes = (
"1113 1346 OFFCURVE",
"952 1472 OFFCURVE",
"645 1472 CURVE SMOOTH",
"309 1472 OFFCURVE",
"140 1290 OFFCURVE",
"140 930 CURVE SMOOTH",
"140 438 LINE SMOOTH",
"140 119 OFFCURVE",
"306 -23 OFFCURVE",
"636 -23 CURVE SMOOTH",
"947 -23 OFFCURVE",
"1133 129 OFFCURVE",
"1133 439 CURVE SMOOTH",
"1133 760 OFFCURVE",
"978 902 OFFCURVE",
"646 902 CURVE SMOOTH",
"504 902 OFFCURVE",
"421 874 OFFCURVE",
"314 773 CURVE",
"314 948 LINE SMOOTH",
"314 1209 OFFCURVE",
"416 1328 OFFCURVE",
"645 1328 CURVE SMOOTH",
"844 1328 OFFCURVE",
"934 1259 OFFCURVE",
"934 1081 CURVE",
"1112 1081 LINE"
);
},
{
closed = 1;
nodes = (
"413 121 OFFCURVE",
"315 204 OFFCURVE",
"315 439 CURVE SMOOTH",
"315 618 LINE",
"363 712 OFFCURVE",
"452 758 OFFCURVE",
"627 758 CURVE SMOOTH",
"861 758 OFFCURVE",
"959 678 OFFCURVE",
"959 439 CURVE SMOOTH",
"959 210 OFFCURVE",
"841 121 OFFCURVE",
"637 121 CURVE SMOOTH"
);
}
);
width = 1223;
}
);
leftKerningGroup = zero;
leftMetricsKey = zero;
note = six;
unicode = 0036;
},
{
color = 3;
glyphname = seven;
layers = (
{
layerId = "2F8B9CD4-7B7F-4ACC-ADF3-B6E0F7033A19";
paths = (
{
closed = 1;
nodes = (
"841 1289 LINE",
"817 1314 LINE",
"481 927 OFFCURVE",
"245 443 OFFCURVE",
"245 0 CURVE",
"419 0 LINE",
"419 431 OFFCURVE",
"660 912 OFFCURVE",
"993 1293 CURVE",
"987 1441 LINE",
"40 1441 LINE",
"40 1289 LINE"
);
}
);
width = 1013;
}
);
note = seven;
unicode = 0037;
},
{
color = 3;
glyphname = eight;
layers = (
{
background = {
paths = (
{
closed = 1;
nodes = (
"273 826 OFFCURVE",
"120 696 OFFCURVE",
"120 401 CURVE SMOOTH",
"120 107 OFFCURVE",
"283 -23 OFFCURVE",
"608 -23 CURVE SMOOTH",
"934 -23 OFFCURVE",
"1097 107 OFFCURVE",
"1097 401 CURVE SMOOTH",
"1097 696 OFFCURVE",
"944 826 OFFCURVE",
"608 826 CURVE SMOOTH"
);
},
{
closed = 1;
nodes = (
"295 612 OFFCURVE",
"391 682 OFFCURVE",
"609 682 CURVE SMOOTH",
"827 682 OFFCURVE",
"922 612 OFFCURVE",
"922 401 CURVE SMOOTH",
"922 191 OFFCURVE",
"827 121 OFFCURVE",
"609 121 CURVE SMOOTH",
"391 121 OFFCURVE",
"295 191 OFFCURVE",
"295 401 CURVE SMOOTH"
);
},
{
closed = 1;
nodes = (
"296 1472 OFFCURVE",
"153 1351 OFFCURVE",
"153 1076 CURVE SMOOTH",
"153 803 OFFCURVE",
"305 682 OFFCURVE",
"608 682 CURVE SMOOTH",
"912 682 OFFCURVE",
"1064 803 OFFCURVE",
"1064 1076 CURVE SMOOTH",
"1064 1351 OFFCURVE",
"921 1472 OFFCURVE",
"608 1472 CURVE SMOOTH"
);
},
{
closed = 1;
nodes = (
"328 1265 OFFCURVE",
"414 1328 OFFCURVE",
"609 1328 CURVE SMOOTH",
"804 1328 OFFCURVE",
"889 1265 OFFCURVE",
"889 1077 CURVE SMOOTH",
"889 888 OFFCURVE",
"804 826 OFFCURVE",
"609 826 CURVE SMOOTH",
"414 826 OFFCURVE",
"328 888 OFFCURVE",
"328 1077 CURVE SMOOTH"
);
},
{
closed = 1;
nodes = (
"2261 801 OFFCURVE",
"2362 914 OFFCURVE",
"2362 1089 CURVE SMOOTH",
"2362 1353 OFFCURVE",
"2217 1472 OFFCURVE",
"1908 1472 CURVE SMOOTH",
"1599 1472 OFFCURVE",
"1453 1353 OFFCURVE",
"1453 1089 CURVE SMOOTH",
"1453 914 OFFCURVE",
"1554 801 OFFCURVE",
"1748 747 CURVE",
"1747 762 LINE",
"1531 733 OFFCURVE",
"1420 610 OFFCURVE",
"1420 385 CURVE SMOOTH",
"1420 106 OFFCURVE",
"1576 -21 OFFCURVE",
"1907 -21 CURVE SMOOTH",
"2240 -21 OFFCURVE",
"2397 106 OFFCURVE",
"2397 385 CURVE SMOOTH",
"2397 610 OFFCURVE",
"2286 733 OFFCURVE",
"2068 762 CURVE",
"2067 747 LINE"
);
},
{
closed = 1;
nodes = (
"1619 1254 OFFCURVE",
"1711 1327 OFFCURVE",
"1908 1327 CURVE SMOOTH",
"2104 1327 OFFCURVE",
"2196 1254 OFFCURVE",
"2196 1089 CURVE SMOOTH",
"2196 939 OFFCURVE",
"2093 834 OFFCURVE",
"1908 834 CURVE SMOOTH",
"1722 834 OFFCURVE",
"1619 939 OFFCURVE",
"1619 1089 CURVE SMOOTH"
);
},
{
closed = 1;
nodes = (
"2125 678 OFFCURVE",
"2227 576 OFFCURVE",
"2227 385 CURVE SMOOTH",
"2227 205 OFFCURVE",
"2125 125 OFFCURVE",
"1907 125 CURVE SMOOTH",
"1690 125 OFFCURVE",
"1588 205 OFFCURVE",
"1588 385 CURVE SMOOTH",
"1588 585 OFFCURVE",
"1690 686 OFFCURVE",
"1908 682 CURVE SMOOTH"
);
}
);
};
layerId = "2F8B9CD4-7B7F-4ACC-ADF3-B6E0F7033A19";
paths = (
{
closed = 1;
nodes = (
"294 612 OFFCURVE",
"390 684 OFFCURVE",
"609 684 CURVE SMOOTH",
"828 684 OFFCURVE",
"923 612 OFFCURVE",
"923 401 CURVE SMOOTH",
"923 191 OFFCURVE",
"828 121 OFFCURVE",
"609 121 CURVE SMOOTH",
"390 121 OFFCURVE",
"294 191 OFFCURVE",
"294 401 CURVE SMOOTH"
);
},
{
closed = 1;
nodes = (
"120 107 OFFCURVE",
"293 -23 OFFCURVE",
"608 -23 CURVE SMOOTH",
"923 -23 OFFCURVE",
"1097 107 OFFCURVE",
"1097 391 CURVE SMOOTH",
"1097 590 OFFCURVE",
"1025 711 OFFCURVE",
"842 773 CURVE",
"844 745 LINE",
"1001 806 OFFCURVE",
"1064 915 OFFCURVE",
"1064 1086 CURVE SMOOTH",
"1064 1351 OFFCURVE",
"890 1472 OFFCURVE",
"608 1472 CURVE SMOOTH",
"326 1472 OFFCURVE",
"153 1351 OFFCURVE",
"153 1086 CURVE SMOOTH",
"153 915 OFFCURVE",
"226 806 OFFCURVE",
"373 745 CURVE",
"375 773 LINE",
"202 711 OFFCURVE",
"120 590 OFFCURVE",
"120 391 CURVE SMOOTH"
);
},
{
closed = 1;
nodes = (
"327 1265 OFFCURVE",
"413 1328 OFFCURVE",
"609 1328 CURVE SMOOTH",
"805 1328 OFFCURVE",
"890 1265 OFFCURVE",
"890 1077 CURVE SMOOTH",
"890 888 OFFCURVE",
"805 824 OFFCURVE",
"609 824 CURVE SMOOTH",
"413 824 OFFCURVE",
"327 888 OFFCURVE",
"327 1077 CURVE SMOOTH"
);
}
);
width = 1217;
}
);
leftMetricsKey = "=|three";
note = eight;
rightKerningGroup = three;
rightMetricsKey = three;
unicode = 0038;
},
{
color = 3;
glyphname = nine;
layers = (
{
background = {
paths = (
{
closed = 1;
nodes = (
"153 55 OFFCURVE",
"337 -32 OFFCURVE",
"611 -32 CURVE SMOOTH",
"894 -32 OFFCURVE",
"1092 64 OFFCURVE",
"1092 385 CURVE SMOOTH",
"1092 473 OFFCURVE",
"1092 561 OFFCURVE",
"1092 906 CURVE SMOOTH",
"1092 1365 OFFCURVE",
"973 1474 OFFCURVE",
"599 1474 CURVE SMOOTH",
"220 1474 OFFCURVE",
"117 1357 OFFCURVE",
"117 1000 CURVE SMOOTH",
"117 847 OFFCURVE",
"131 729 OFFCURVE",
"213 644 CURVE SMOOTH",
"281 573 OFFCURVE",
"379 546 OFFCURVE",
"562 546 CURVE SMOOTH",
"751 546 OFFCURVE",
"853 578 OFFCURVE",
"930 689 CURVE",
"926 614 OFFCURVE",
"931 503 OFFCURVE",
"926 398 CURVE SMOOTH",
"916 157 OFFCURVE",
"807 106 OFFCURVE",
"615 106 CURVE SMOOTH",
"403 106 OFFCURVE",
"310 157 OFFCURVE",
"310 354 CURVE",
"153 354 LINE"
);
},
{
closed = 1;
nodes = (
"721 1336 OFFCURVE",
"816 1313 OFFCURVE",
"862 1269 CURVE SMOOTH",
"911 1223 OFFCURVE",
"933 1148 OFFCURVE",
"928 857 CURVE",
"877 719 OFFCURVE",
"762 689 OFFCURVE",
"586 689 CURVE SMOOTH",
"497 689 OFFCURVE",
"410 696 OFFCURVE",
"367 729 CURVE SMOOTH",
"306 776 OFFCURVE",
"285 870 OFFCURVE",
"285 1001 CURVE SMOOTH",
"285 1137 OFFCURVE",
"292 1223 OFFCURVE",
"337 1269 CURVE SMOOTH",
"384 1317 OFFCURVE",
"483 1336 OFFCURVE",
"601 1336 CURVE SMOOTH"
);
}
);
};
layerId = "2F8B9CD4-7B7F-4ACC-ADF3-B6E0F7033A19";
paths = (
{
closed = 1;
nodes = (
"110 103 OFFCURVE",
"271 -23 OFFCURVE",
"578 -23 CURVE SMOOTH",
"914 -23 OFFCURVE",
"1083 159 OFFCURVE",
"1083 519 CURVE SMOOTH",
"1083 1011 LINE SMOOTH",
"1083 1330 OFFCURVE",
"917 1472 OFFCURVE",
"587 1472 CURVE SMOOTH",
"276 1472 OFFCURVE",
"90 1320 OFFCURVE",
"90 1010 CURVE SMOOTH",
"90 689 OFFCURVE",
"245 547 OFFCURVE",
"577 547 CURVE SMOOTH",
"719 547 OFFCURVE",
"802 575 OFFCURVE",
"909 676 CURVE",
"909 501 LINE SMOOTH",
"909 240 OFFCURVE",
"807 121 OFFCURVE",
"578 121 CURVE SMOOTH",
"379 121 OFFCURVE",
"289 190 OFFCURVE",
"289 368 CURVE",
"111 368 LINE"
);
},
{
closed = 1;
nodes = (
"810 1328 OFFCURVE",
"908 1245 OFFCURVE",
"908 1010 CURVE SMOOTH",
"908 831 LINE",
"860 737 OFFCURVE",
"771 691 OFFCURVE",
"596 691 CURVE SMOOTH",
"362 691 OFFCURVE",
"264 771 OFFCURVE",
"264 1010 CURVE SMOOTH",
"264 1239 OFFCURVE",
"382 1328 OFFCURVE",
"586 1328 CURVE SMOOTH"
);
}
);
width = 1223;
}
);
leftKerningGroup = zero;
leftMetricsKey = "=|six";
note = nine;
rightKerningGroup = zero;
rightMetricsKey = zero;
unicode = 0039;
},
{
color = 3;
glyphname = fraction;
layers = (
{
background = {
paths = (
{
closed = 1;
nodes = (
"-13 -119 LINE",
"794 1440 LINE",
"681 1489 LINE",
"-125 -67 LINE"
);
}
);
};
layerId = "2F8B9CD4-7B7F-4ACC-ADF3-B6E0F7033A19";
paths = (
{
closed = 1;
nodes = (
"48 0 LINE",
"795 1441 LINE",
"656 1441 LINE",
"-90 0 LINE"
);
}
);
width = 705;
}
);
note = fraction;
unicode = 2044;
},
{
color = 3;
glyphname = onesuperior;
layers = (
{
background = {
paths = (
{
closed = 1;
nodes = (
"288 1201 LINE",
"288 296 LINE",
"403 296 LINE",
"403 1316 LINE",
"294 1316 LINE",
"133 1238 LINE",
"133 1124 LINE"
);
}
);
};
layerId = "2F8B9CD4-7B7F-4ACC-ADF3-B6E0F7033A19";
paths = (
{
closed = 1;
nodes = (
"80 1238 LINE",
"230 1318 LINE",
"216 1327 LINE",
"216 634 LINE",
"343 634 LINE",
"343 1441 LINE",
"226 1441 LINE",
"80 1368 LINE"
);
}
);
width = 523;
}
);
note = onesuperior;
unicode = 00B9;
},
{
color = 3;
glyphname = twosuperior;
layers = (
{
background = {
paths = (
{
closed = 1;
nodes = (
"217 1252 LINE",
"217 1327 OFFCURVE",
"265 1369 OFFCURVE",
"357 1369 CURVE SMOOTH",
"456 1369 OFFCURVE",
"499 1331 OFFCURVE",
"498 1251 CURVE SMOOTH",
"497 1174 OFFCURVE",
"449 1113 OFFCURVE",
"309 1007 CURVE SMOOTH",
"127 869 OFFCURVE",
"108 775 OFFCURVE",
"108 672 CURVE SMOOTH",
"108 661 OFFCURVE",
"110 650 OFFCURVE",
"111 643 CURVE",
"620 643 LINE",
"620 761 LINE",
"231 761 LINE",
"241 751 LINE",
"241 798 OFFCURVE",
"291 845 OFFCURVE",
"428 949 CURVE SMOOTH",
"556 1046 OFFCURVE",
"620 1125 OFFCURVE",
"620 1248 CURVE SMOOTH",
"620 1406 OFFCURVE",
"538 1479 OFFCURVE",
"361 1479 CURVE SMOOTH",
"183 1479 OFFCURVE",
"93 1403 OFFCURVE",
"93 1252 CURVE"
);
}
);
};
layerId = "2F8B9CD4-7B7F-4ACC-ADF3-B6E0F7033A19";
paths = (
{
closed = 1;
nodes = (
"226 1332 OFFCURVE",
"255 1364 OFFCURVE",
"362 1364 CURVE SMOOTH",
"472 1364 OFFCURVE",
"507 1335 OFFCURVE",
"507 1253 CURVE SMOOTH",
"507 1175 OFFCURVE",
"474 1135 OFFCURVE",
"322 1021 CURVE SMOOTH",
"150 896 OFFCURVE",
"105 823 OFFCURVE",
"105 668 CURVE SMOOTH",
"105 655 OFFCURVE",
"105 646 OFFCURVE",
"105 634 CURVE",
"624 634 LINE",
"624 748 LINE",
"240 748 LINE",
"247 810 OFFCURVE",
"297 863 OFFCURVE",
"415 947 CURVE SMOOTH",
"588 1072 OFFCURVE",
"634 1133 OFFCURVE",
"634 1250 CURVE SMOOTH",
"634 1407 OFFCURVE",
"549 1474 OFFCURVE",
"365 1474 CURVE SMOOTH",
"182 1474 OFFCURVE",
"95 1394 OFFCURVE",
"100 1229 CURVE",
"229 1229 LINE"
);
}
);
width = 740;
}
);
note = twosuperior;
unicode = 00B2;
},
{
color = 3;
glyphname = threesuperior;
layers = (
{
background = {
paths = (
{
closed = 1;
nodes = (
"227 1248 LINE",
"227 1330 OFFCURVE",
"277 1372 OFFCURVE",
"381 1372 CURVE SMOOTH",
"470 1372 OFFCURVE",
"516 1331 OFFCURVE",
"516 1266 CURVE SMOOTH",
"516 1176 OFFCURVE",
"459 1133 OFFCURVE",
"344 1133 CURVE SMOOTH",
"275 1133 LINE",
"275 1016 LINE",
"344 1016 LINE SMOOTH",
"474 1016 OFFCURVE",
"533 973 OFFCURVE",
"533 874 CURVE SMOOTH",
"533 793 OFFCURVE",
"483 742 OFFCURVE",
"389 742 CURVE SMOOTH",
"279 742 OFFCURVE",
"226 781 OFFCURVE",
"226 855 CURVE",
"112 853 LINE",
"112 704 OFFCURVE",
"202 632 OFFCURVE",
"388 632 CURVE SMOOTH",
"563 632 OFFCURVE",
"658 718 OFFCURVE",
"658 878 CURVE SMOOTH",
"658 990 OFFCURVE",
"593 1063 OFFCURVE",
"476 1084 CURVE",
"478 1065 LINE",
"581 1098 OFFCURVE",
"639 1171 OFFCURVE",
"639 1269 CURVE SMOOTH",
"639 1412 OFFCURVE",
"553 1482 OFFCURVE",
"378 1482 CURVE SMOOTH",
"198 1482 OFFCURVE",
"112 1406 OFFCURVE",
"112 1248 CURVE"
);
}
);
};
layerId = "2F8B9CD4-7B7F-4ACC-ADF3-B6E0F7033A19";
paths = (
{
closed = 1;
nodes = (
"225 1332 OFFCURVE",
"255 1365 OFFCURVE",
"361 1365 CURVE SMOOTH",
"472 1365 OFFCURVE",
"507 1335 OFFCURVE",
"507 1254 CURVE SMOOTH",
"507 1169 OFFCURVE",
"452 1125 OFFCURVE",
"335 1125 CURVE SMOOTH",
"251 1125 LINE",
"251 1008 LINE",
"342 1008 LINE SMOOTH",
"467 1008 OFFCURVE",
"526 958 OFFCURVE",
"526 860 CURVE SMOOTH",
"526 767 OFFCURVE",
"487 732 OFFCURVE",
"370 732 CURVE SMOOTH",
"257 732 OFFCURVE",
"225 765 OFFCURVE",
"228 868 CURVE",
"100 868 LINE",
"93 703 OFFCURVE",
"184 622 OFFCURVE",
"374 622 CURVE SMOOTH",
"565 622 OFFCURVE",
"652 706 OFFCURVE",
"652 866 CURVE SMOOTH",
"652 984 OFFCURVE",
"584 1061 OFFCURVE",
"467 1081 CURVE",
"468 1052 LINE",
"579 1086 OFFCURVE",
"633 1145 OFFCURVE",
"633 1251 CURVE SMOOTH",
"633 1398 OFFCURVE",
"549 1474 OFFCURVE",
"365 1474 CURVE SMOOTH",
"182 1474 OFFCURVE",
"93 1394 OFFCURVE",
"100 1228 CURVE",
"228 1228 LINE"
);
}
);
width = 752;
}
);
note = threesuperior;
unicode = 00B3;
},
{
color = 3;
glyphname = foursuperior;
layers = (
{
background = {
paths = (
{
closed = 1;
nodes = (
"188 635 LINE",
"526 1177 LINE",
"526 635 LINE"
);
},
{
closed = 1;
nodes = (
"84 540 LINE",
"526 540 LINE",
"526 304 LINE",
"641 304 LINE",
"641 540 LINE",
"770 540 LINE",
"770 637 LINE",
"641 637 LINE",
"641 1311 LINE",
"498 1311 LINE",
"84 651 LINE"
);
}
);
};
layerId = "2F8B9CD4-7B7F-4ACC-ADF3-B6E0F7033A19";
paths = (
{
closed = 1;
nodes = (
"462 939 LINE",
"131 939 LINE",
"161 886 LINE",
"481 1325 LINE",
"442 1330 LINE",
"442 918 LINE"
);
},
{
closed = 1;
nodes = (
"65 829 LINE",
"462 829 LINE",
"442 838 LINE",
"442 634 LINE",
"569 634 LINE",
"569 838 LINE",
"559 829 LINE",
"661 829 LINE",
"661 939 LINE",
"559 939 LINE",
"568 919 LINE",
"568 1441 LINE",
"433 1441 LINE",
"65 931 LINE"
);
}
);
width = 731;
}
);
note = foursuperior;
unicode = 2074;
},
{
color = 3;
glyphname = "leftanglebracket-math";
layers = (
{
background = {
paths = (
{
closed = 1;
nodes = (
"442 -123 LINE",
"527 -123 LINE",
"263 635 LINE",
"527 1393 LINE",
"442 1393 LINE",
"182 635 LINE"
);
}
);
};
layerId = "2F8B9CD4-7B7F-4ACC-ADF3-B6E0F7033A19";
paths = (
{
closed = 1;
nodes = (
"421 0 LINE",
"596 0 LINE",
"332 721 LINE",
"596 1441 LINE",
"422 1441 LINE",
"162 721 LINE"
);
}
);
width = 680;
}
);
unicode = 27E8;
},
{
color = 3;
glyphname = "rightanglebracket-math";
layers = (
{
layerId = "2F8B9CD4-7B7F-4ACC-ADF3-B6E0F7033A19";
paths = (
{
closed = 1;
nodes = (
"258 1441 LINE",
"84 1441 LINE",
"348 721 LINE",
"84 0 LINE",
"259 0 LINE",
"518 721 LINE"
);
}
);
width = 680;
}
);
leftMetricsKey = "=|leftanglebracket-math";
widthMetricsKey = "leftanglebracket-math";
unicode = 27E9;
},
{
color = 3;
glyphname = period;
layers = (
{
background = {
paths = (
{
closed = 1;
nodes = (
"650 0 LINE",
"875 0 LINE",
"875 212 LINE",
"650 212 LINE"
);
},
{
closed = 1;
nodes = (
"386 181 OFFCURVE",
"353 214 OFFCURVE",
"265 214 CURVE SMOOTH",
"178 214 OFFCURVE",
"140 181 OFFCURVE",
"140 89 CURVE SMOOTH",
"140 0 OFFCURVE",
"178 -22 OFFCURVE",
"247 -22 CURVE",
"386 89 LINE"
);
}
);
};
layerId = "2F8B9CD4-7B7F-4ACC-ADF3-B6E0F7033A19";
paths = (
{
closed = 1;
nodes = (
"386 8 OFFCURVE",
"386 96 CURVE SMOOTH",
"386 184 OFFCURVE",
"349 214 OFFCURVE",
"263 214 CURVE SMOOTH",
"177 214 OFFCURVE",
"140 184 OFFCURVE",
"140 96 CURVE SMOOTH",
"140 8 OFFCURVE",
"177 -22 OFFCURVE",
"263 -22 CURVE SMOOTH",
"349 -22 OFFCURVE"
);
}
);
width = 526;
}
);
leftKerningGroup = period;
note = period;
rightKerningGroup = period;
rightMetricsKey = "=|";
unicode = 002E;
},
{
color = 3;
glyphname = comma;
layers = (
{
background = {
paths = (
{
closed = 1;
nodes = (
"387 181 OFFCURVE",
"354 214 OFFCURVE",
"266 214 CURVE SMOOTH",
"179 214 OFFCURVE",
"141 181 OFFCURVE",
"141 89 CURVE SMOOTH",
"141 0 OFFCURVE",
"179 -22 OFFCURVE",
"248 -22 CURVE",
"241 -99 OFFCURVE",
"216 -148 OFFCURVE",
"161 -228 CURVE",
"243 -283 LINE",
"342 -190 OFFCURVE",
"387 -73 OFFCURVE",
"387 89 CURVE SMOOTH"
);
},
{
closed = 1;
nodes = (
"376 212 LINE",
"151 212 LINE",
"151 0 LINE",
"265 0 LINE",
"265 -24 LINE SMOOTH",
"265 -104 OFFCURVE",
"228 -157 OFFCURVE",
"141 -157 CURVE",
"141 -261 LINE",
"294 -257 OFFCURVE",
"376 -154 OFFCURVE",
"376 -24 CURVE SMOOTH"
);
}
);
};
layerId = "2F8B9CD4-7B7F-4ACC-ADF3-B6E0F7033A19";
paths = (
{
closed = 1;
nodes = (
"386 181 OFFCURVE",
"353 214 OFFCURVE",
"265 214 CURVE SMOOTH",
"178 214 OFFCURVE",
"140 181 OFFCURVE",
"140 89 CURVE SMOOTH",
"140 0 OFFCURVE",
"178 -22 OFFCURVE",
"247 -22 CURVE",
"240 -99 OFFCURVE",
"215 -148 OFFCURVE",
"160 -228 CURVE",
"242 -283 LINE",
"341 -190 OFFCURVE",
"386 -73 OFFCURVE",
"386 89 CURVE SMOOTH"
);
}
);
width = 526;
}
);
leftKerningGroup = period;
widthMetricsKey = period;
note = comma;
rightKerningGroup = period;
rightMetricsKey = period;
unicode = 002C;
},
{
color = 3;
glyphname = colon;
layers = (
{
background = {
paths = (
{
closed = 1;
nodes = (
"150 0 LINE",
"375 0 LINE",
"375 212 LINE",
"150 212 LINE"
);
},
{
closed = 1;
nodes = (
"150 737 LINE",
"375 737 LINE",
"375 949 LINE",
"150 949 LINE"
);
}
);
};
layerId = "2F8B9CD4-7B7F-4ACC-ADF3-B6E0F7033A19";
paths = (
{
closed = 1;
nodes = (
"386 8 OFFCURVE",
"386 96 CURVE SMOOTH",
"386 184 OFFCURVE",
"349 214 OFFCURVE",
"263 214 CURVE SMOOTH",
"177 214 OFFCURVE",
"140 184 OFFCURVE",
"140 96 CURVE SMOOTH",
"140 8 OFFCURVE",
"177 -22 OFFCURVE",
"263 -22 CURVE SMOOTH",
"349 -22 OFFCURVE"
);
},
{
closed = 1;
nodes = (
"386 748 OFFCURVE",
"386 836 CURVE SMOOTH",
"386 924 OFFCURVE",
"349 954 OFFCURVE",
"263 954 CURVE SMOOTH",
"177 954 OFFCURVE",
"140 924 OFFCURVE",
"140 836 CURVE SMOOTH",
"140 748 OFFCURVE",
"177 718 OFFCURVE",
"263 718 CURVE SMOOTH",
"349 718 OFFCURVE"
);
}
);
width = 526;
}
);
leftKerningGroup = period;
leftMetricsKey = period;
note = colon;
rightKerningGroup = period;
rightMetricsKey = period;
unicode = 003A;
},
{
color = 3;
glyphname = semicolon;
layers = (
{
background = {
paths = (
{
closed = 1;
nodes = (
"376 212 LINE",
"151 212 LINE",
"151 0 LINE",
"265 0 LINE",
"265 -24 LINE SMOOTH",
"265 -104 OFFCURVE",
"228 -157 OFFCURVE",
"141 -157 CURVE",
"141 -261 LINE",
"294 -257 OFFCURVE",
"376 -154 OFFCURVE",
"376 -24 CURVE SMOOTH"
);
}
);
};
guideLines = (
{
angle = 90;
position = "{352, 584}";
},
{
angle = 90;
position = "{141, 577}";
}
);
layerId = "2F8B9CD4-7B7F-4ACC-ADF3-B6E0F7033A19";
paths = (
{
closed = 1;
nodes = (
"349 718 OFFCURVE",
"386 748 OFFCURVE",
"386 836 CURVE SMOOTH",
"386 924 OFFCURVE",
"349 954 OFFCURVE",
"263 954 CURVE SMOOTH",
"177 954 OFFCURVE",
"140 924 OFFCURVE",
"140 836 CURVE SMOOTH",
"140 748 OFFCURVE",
"177 718 OFFCURVE",
"263 718 CURVE SMOOTH"
);
},
{
closed = 1;
nodes = (
"386 181 OFFCURVE",
"353 214 OFFCURVE",
"265 214 CURVE SMOOTH",
"178 214 OFFCURVE",
"140 181 OFFCURVE",
"140 89 CURVE SMOOTH",
"140 0 OFFCURVE",
"178 -22 OFFCURVE",
"247 -22 CURVE",
"240 -99 OFFCURVE",
"215 -148 OFFCURVE",
"160 -228 CURVE",
"242 -283 LINE",
"341 -190 OFFCURVE",
"386 -73 OFFCURVE",
"386 89 CURVE SMOOTH"
);
}
);
width = 526;
}
);
leftKerningGroup = period;
widthMetricsKey = period;
note = semicolon;
rightKerningGroup = period;
rightMetricsKey = period;
unicode = 003B;
},
{
color = 3;
glyphname = ellipsis;
layers = (
{
background = {
paths = (
{
closed = 1;
nodes = (
"643 0 LINE",
"868 0 LINE",
"868 212 LINE",
"643 212 LINE"
);
},
{
closed = 1;
nodes = (
"1136 0 LINE",
"1361 0 LINE",
"1361 212 LINE",
"1136 212 LINE"
);
},
{
closed = 1;
nodes = (
"150 0 LINE",
"375 0 LINE",
"375 212 LINE",
"150 212 LINE"
);
}
);
};
layerId = "2F8B9CD4-7B7F-4ACC-ADF3-B6E0F7033A19";
paths = (
{
closed = 1;
nodes = (
"386 8 OFFCURVE",
"386 96 CURVE SMOOTH",
"386 184 OFFCURVE",
"349 214 OFFCURVE",
"263 214 CURVE SMOOTH",
"177 214 OFFCURVE",
"140 184 OFFCURVE",
"140 96 CURVE SMOOTH",
"140 8 OFFCURVE",
"177 -22 OFFCURVE",
"263 -22 CURVE SMOOTH",
"349 -22 OFFCURVE"
);
},
{
closed = 1;
nodes = (
"876 8 OFFCURVE",
"876 96 CURVE SMOOTH",
"876 184 OFFCURVE",
"839 214 OFFCURVE",
"753 214 CURVE SMOOTH",
"667 214 OFFCURVE",
"630 184 OFFCURVE",
"630 96 CURVE SMOOTH",
"630 8 OFFCURVE",
"667 -22 OFFCURVE",
"753 -22 CURVE SMOOTH",
"839 -22 OFFCURVE"
);
},
{
closed = 1;
nodes = (
"1366 8 OFFCURVE",
"1366 96 CURVE SMOOTH",
"1366 184 OFFCURVE",
"1329 214 OFFCURVE",
"1243 214 CURVE SMOOTH",
"1157 214 OFFCURVE",
"1120 184 OFFCURVE",
"1120 96 CURVE SMOOTH",
"1120 8 OFFCURVE",
"1157 -22 OFFCURVE",
"1243 -22 CURVE SMOOTH",
"1329 -22 OFFCURVE"
);
}
);
width = 1506;
}
);
leftKerningGroup = period;
leftMetricsKey = period;
note = ellipsis;
rightKerningGroup = period;
rightMetricsKey = period;
unicode = 2026;
},
{
color = 3;
glyphname = exclam;
layers = (
{
background = {
paths = (
{
closed = 1;
nodes = (
"150 0 LINE",
"375 0 LINE",
"375 212 LINE",
"150 212 LINE"
);
}
);
};
layerId = "2F8B9CD4-7B7F-4ACC-ADF3-B6E0F7033A19";
paths = (
{
closed = 1;
nodes = (
"352 1186 LINE",
"352 1441 LINE",
"174 1441 LINE",
"174 1186 LINE",
"202 355 LINE",
"325 355 LINE"
);
},
{
closed = 1;
nodes = (
"386 8 OFFCURVE",
"386 96 CURVE SMOOTH",
"386 184 OFFCURVE",
"349 214 OFFCURVE",
"263 214 CURVE SMOOTH",
"177 214 OFFCURVE",
"140 184 OFFCURVE",
"140 96 CURVE SMOOTH",
"140 8 OFFCURVE",
"177 -22 OFFCURVE",
"263 -22 CURVE SMOOTH",
"349 -22 OFFCURVE"
);
}
);
width = 526;
}
);
note = exclam;
rightMetricsKey = "=|";
unicode = 0021;
},
{
color = 3;
glyphname = exclamdown;
layers = (
{
layerId = "2F8B9CD4-7B7F-4ACC-ADF3-B6E0F7033A19";
paths = (
{
closed = 1;
nodes = (
"202 655 LINE",
"174 -176 LINE",
"174 -389 LINE",
"352 -389 LINE",
"352 -176 LINE",
"325 655 LINE"
);
},
{
closed = 1;
nodes = (
"386 826 OFFCURVE",
"386 914 CURVE SMOOTH",
"386 1002 OFFCURVE",
"349 1032 OFFCURVE",
"263 1032 CURVE SMOOTH",
"177 1032 OFFCURVE",
"140 1002 OFFCURVE",
"140 914 CURVE SMOOTH",
"140 826 OFFCURVE",
"177 796 OFFCURVE",
"263 796 CURVE SMOOTH",
"349 796 OFFCURVE"
);
}
);
width = 526;
}
);
leftMetricsKey = exclam;
note = exclamdown;
rightMetricsKey = exclam;
unicode = 00A1;
},
{
color = 3;
glyphname = question;
layers = (
{
background = {
paths = (
{
closed = 1;
nodes = (
"356 0 LINE",
"581 0 LINE",
"581 212 LINE",
"356 212 LINE"
);
},
{
closed = 1;
nodes = (
"924 908 OFFCURVE",
"966 983 OFFCURVE",
"967 1127 CURVE SMOOTH",
"968 1358 OFFCURVE",
"829 1469 OFFCURVE",
"509 1469 CURVE SMOOTH",
"200 1469 OFFCURVE",
"55 1344 OFFCURVE",
"55 1078 CURVE",
"233 1078 LINE",
"233 1256 OFFCURVE",
"306 1325 OFFCURVE",
"502 1325 CURVE SMOOTH",
"712 1325 OFFCURVE",
"794 1256 OFFCURVE",
"793 1131 CURVE SMOOTH",
"792 1041 OFFCURVE",
"744 972 OFFCURVE",
"580 855 CURVE SMOOTH",
"422 742 OFFCURVE",
"391 636 OFFCURVE",
"391 471 CURVE SMOOTH",
"391 350 LINE",
"537 350 LINE",
"537 448 LINE SMOOTH",
"537 581 OFFCURVE",
"586 663 OFFCURVE",
"706 750 CURVE SMOOTH"
);
}
);
};
layerId = "2F8B9CD4-7B7F-4ACC-ADF3-B6E0F7033A19";
paths = (
{
closed = 1;
nodes = (
"924 908 OFFCURVE",
"966 983 OFFCURVE",
"967 1127 CURVE SMOOTH",
"968 1358 OFFCURVE",
"829 1469 OFFCURVE",
"509 1469 CURVE SMOOTH",
"200 1469 OFFCURVE",
"55 1344 OFFCURVE",
"55 1078 CURVE",
"233 1078 LINE",
"233 1256 OFFCURVE",
"306 1325 OFFCURVE",
"502 1325 CURVE SMOOTH",
"712 1325 OFFCURVE",
"794 1256 OFFCURVE",
"793 1131 CURVE SMOOTH",
"792 1041 OFFCURVE",
"744 972 OFFCURVE",
"580 855 CURVE SMOOTH",
"422 742 OFFCURVE",
"391 636 OFFCURVE",
"391 471 CURVE SMOOTH",
"391 350 LINE",
"537 350 LINE",
"537 448 LINE SMOOTH",
"537 581 OFFCURVE",
"586 663 OFFCURVE",
"706 750 CURVE SMOOTH"
);
},
{
closed = 1;
nodes = (
"590 8 OFFCURVE",
"590 96 CURVE SMOOTH",
"590 184 OFFCURVE",
"553 214 OFFCURVE",
"467 214 CURVE SMOOTH",
"381 214 OFFCURVE",
"344 184 OFFCURVE",
"344 96 CURVE SMOOTH",
"344 8 OFFCURVE",
"381 -22 OFFCURVE",
"467 -22 CURVE SMOOTH",
"553 -22 OFFCURVE"
);
}
);
width = 1002;
}
);
note = question;
unicode = 003F;
},
{
color = 3;
glyphname = questiondown;
layers = (
{
background = {
paths = (
{
closed = 1;
nodes = (
"646 1011 LINE",
"421 1011 LINE",
"421 799 LINE",
"646 799 LINE"
);
}
);
};
layerId = "2F8B9CD4-7B7F-4ACC-ADF3-B6E0F7033A19";
paths = (
{
closed = 1;
nodes = (
"78 153 OFFCURVE",
"36 78 OFFCURVE",
"35 -66 CURVE SMOOTH",
"34 -297 OFFCURVE",
"173 -408 OFFCURVE",
"493 -408 CURVE SMOOTH",
"802 -408 OFFCURVE",
"947 -283 OFFCURVE",
"947 -17 CURVE",
"769 -17 LINE",
"769 -195 OFFCURVE",
"696 -264 OFFCURVE",
"500 -264 CURVE SMOOTH",
"290 -264 OFFCURVE",
"208 -195 OFFCURVE",
"209 -70 CURVE SMOOTH",
"210 20 OFFCURVE",
"258 89 OFFCURVE",
"422 206 CURVE SMOOTH",
"580 319 OFFCURVE",
"611 425 OFFCURVE",
"611 570 CURVE SMOOTH",
"611 661 LINE",
"465 661 LINE",
"465 593 LINE SMOOTH",
"465 480 OFFCURVE",
"416 398 OFFCURVE",
"296 311 CURVE SMOOTH"
);
},
{
closed = 1;
nodes = (
"657 826 OFFCURVE",
"657 914 CURVE SMOOTH",
"657 1002 OFFCURVE",
"620 1032 OFFCURVE",
"534 1032 CURVE SMOOTH",
"448 1032 OFFCURVE",
"411 1002 OFFCURVE",
"411 914 CURVE SMOOTH",
"411 826 OFFCURVE",
"448 796 OFFCURVE",
"534 796 CURVE SMOOTH",
"620 796 OFFCURVE"
);
}
);
width = 1002;
}
);
leftMetricsKey = "=|question";
widthMetricsKey = question;
note = questiondown;
unicode = 00BF;
},
{
color = 3;
glyphname = periodcentered;
layers = (
{
anchors = (
{
name = _center;
position = "{263, 623}";
}
);
background = {
paths = (
{
closed = 1;
nodes = (
"150 517 LINE",
"375 517 LINE",
"375 729 LINE",
"150 729 LINE"
);
}
);
};
layerId = "2F8B9CD4-7B7F-4ACC-ADF3-B6E0F7033A19";
paths = (
{
closed = 1;
nodes = (
"386 535 OFFCURVE",
"386 623 CURVE SMOOTH",
"386 711 OFFCURVE",
"349 741 OFFCURVE",
"263 741 CURVE SMOOTH",
"177 741 OFFCURVE",
"140 711 OFFCURVE",
"140 623 CURVE SMOOTH",
"140 535 OFFCURVE",
"177 505 OFFCURVE",
"263 505 CURVE SMOOTH",
"349 505 OFFCURVE"
);
}
);
width = 526;
}
);
leftKerningGroup = periodcentered;
leftMetricsKey = period;
note = periodcentered;
rightKerningGroup = periodcentered;
rightMetricsKey = period;
unicode = 00B7;
},
{
color = 3;
glyphname = bullet;
layers = (
{
layerId = "2F8B9CD4-7B7F-4ACC-ADF3-B6E0F7033A19";
paths = (
{
closed = 1;
nodes = (
"130 402 OFFCURVE",
"235 302 OFFCURVE",
"459 302 CURVE SMOOTH",
"677 302 OFFCURVE",
"779 400 OFFCURVE",
"779 608 CURVE SMOOTH",
"779 822 OFFCURVE",
"674 922 OFFCURVE",
"450 922 CURVE SMOOTH",
"232 922 OFFCURVE",
"130 824 OFFCURVE",
"130 616 CURVE SMOOTH"
);
}
);
width = 909;
}
);
leftKerningGroup = periodcentered;
note = bullet;
rightKerningGroup = periodcentered;
rightMetricsKey = "=|";
unicode = 2022;
},
{
glyphname = asterisk;
layers = (
{
layerId = "2F8B9CD4-7B7F-4ACC-ADF3-B6E0F7033A19";
paths = (
{
closed = 1;
nodes = (
"574 1076 LINE",
"861 1203 LINE",
"796 1323 LINE",
"538 1151 LINE",
"560 1447 LINE",
"427 1447 LINE",
"448 1151 LINE",
"185 1323 LINE",
"120 1204 LINE",
"417 1076 LINE",
"121 937 LINE",
"185 825 LINE",
"448 997 LINE",
"427 701 LINE",
"560 701 LINE",
"538 997 LINE",
"796 825 LINE",
"861 945 LINE"
);
}
);
width = 981;
}
);
leftKerningGroup = asterisk;
note = asterisk;
rightKerningGroup = asterisk;
unicode = 002A;
},
{
color = 3;
glyphname = numbersign;
layers = (
{
background = {
paths = (
{
closed = 1;
nodes = (
"208 0 LINE",
"347 0 LINE",
"645 1441 LINE",
"507 1441 LINE"
);
},
{
closed = 1;
nodes = (
"650 0 LINE",
"788 0 LINE",
"1087 1441 LINE",
"949 1441 LINE"
);
},
{
closed = 1;
nodes = (
"165 897 LINE",
"1215 897 LINE",
"1215 1026 LINE",
"165 1026 LINE"
);
},
{
closed = 1;
nodes = (
"100 428 LINE",
"1149 428 LINE",
"1149 557 LINE",
"100 557 LINE"
);
}
);
};
layerId = "2F8B9CD4-7B7F-4ACC-ADF3-B6E0F7033A19";
paths = (
{
closed = 1;
nodes = (
"421 1026 LINE",
"165 1026 LINE",
"165 897 LINE",
"394 897 LINE",
"324 557 LINE",
"100 557 LINE",
"100 428 LINE",
"297 428 LINE",
"208 0 LINE",
"347 0 LINE",
"436 428 LINE",
"739 428 LINE",
"650 0 LINE",
"788 0 LINE",
"877 428 LINE",
"1149 428 LINE",
"1149 557 LINE",
"904 557 LINE",
"974 897 LINE",
"1215 897 LINE",
"1215 1026 LINE",
"1001 1026 LINE",
"1087 1441 LINE",
"949 1441 LINE",
"863 1026 LINE",
"559 1026 LINE",
"645 1441 LINE",
"507 1441 LINE"
);
},
{
closed = 1;
nodes = (
"533 897 LINE",
"836 897 LINE",
"766 557 LINE",
"462 557 LINE"
);
}
);
width = 1315;
}
);
note = numbersign;
rightMetricsKey = "=|";
unicode = 0023;
},
{
color = 3;
glyphname = slash;
layers = (
{
layerId = "2F8B9CD4-7B7F-4ACC-ADF3-B6E0F7033A19";
paths = (
{
closed = 1;
nodes = (
"184 -200 LINE",
"780 1641 LINE",
"616 1641 LINE",
"20 -200 LINE"
);
}
);
width = 800;
}
);
note = slash;
rightMetricsKey = "=|";
unicode = 002F;
},
{
color = 3;
glyphname = backslash;
layers = (
{
background = {
paths = (
{
closed = 1;
nodes = (
"577 -92 LINE",
"206 1509 LINE",
"100 1479 LINE",
"468 -121 LINE"
);
}
);
};
layerId = "2F8B9CD4-7B7F-4ACC-ADF3-B6E0F7033A19";
paths = (
{
closed = 1;
nodes = (
"184 1641 LINE",
"20 1641 LINE",
"616 -200 LINE",
"780 -200 LINE"
);
}
);
width = 800;
}
);
leftMetricsKey = "=|slash";
note = backslash;
rightMetricsKey = "=|";
unicode = 005C;
},
{
color = 3;
glyphname = periodcentered.loclCAT;
layers = (
{
anchors = (
{
name = _center;
position = "{40, 623}";
}
);
background = {
paths = (
{
closed = 1;
nodes = (
"-53 537 LINE",
"132 537 LINE",
"132 709 LINE",
"-53 709 LINE"
);
}
);
};
layerId = "2F8B9CD4-7B7F-4ACC-ADF3-B6E0F7033A19";
paths = (
{
closed = 1;
nodes = (
"139 552 OFFCURVE",
"139 623 CURVE SMOOTH",
"139 694 OFFCURVE",
"109 718 OFFCURVE",
"40 718 CURVE SMOOTH",
"-29 718 OFFCURVE",
"-59 694 OFFCURVE",
"-59 623 CURVE SMOOTH",
"-59 552 OFFCURVE",
"-29 528 OFFCURVE",
"40 528 CURVE SMOOTH",
"109 528 OFFCURVE"
);
}
);
width = 80;
}
);
leftKerningGroup = periodcentered;
rightKerningGroup = periodcentered;
},
{
color = 3;
glyphname = periodcentered.loclCAT.case;
layers = (
{
anchors = (
{
name = _center;
position = "{-247, 800}";
}
);
background = {
paths = (
{
closed = 1;
nodes = (
"-360 694 LINE",
"-135 694 LINE",
"-135 906 LINE",
"-360 906 LINE"
);
}
);
};
layerId = "2F8B9CD4-7B7F-4ACC-ADF3-B6E0F7033A19";
paths = (
{
closed = 1;
nodes = (
"-125 714 OFFCURVE",
"-125 802 CURVE SMOOTH",
"-125 890 OFFCURVE",
"-162 920 OFFCURVE",
"-248 920 CURVE SMOOTH",
"-334 920 OFFCURVE",
"-371 890 OFFCURVE",
"-371 802 CURVE SMOOTH",
"-371 714 OFFCURVE",
"-334 684 OFFCURVE",
"-248 684 CURVE SMOOTH",
"-162 684 OFFCURVE"
);
}
);
width = 0;
}
);
leftKerningGroup = periodcentered;
rightKerningGroup = periodcentered;
},
{
color = 3;
glyphname = hyphen;
layers = (
{
layerId = "2F8B9CD4-7B7F-4ACC-ADF3-B6E0F7033A19";
paths = (
{
closed = 1;
nodes = (
"699 578 LINE",
"699 732 LINE",
"140 732 LINE",
"140 578 LINE"
);
}
);
width = 839;
}
);
leftKerningGroup = hyphen;
note = hyphen;
rightKerningGroup = hyphen;
rightMetricsKey = "=|";
unicode = 002D;
},
{
color = 3;
glyphname = endash;
layers = (
{
layerId = "2F8B9CD4-7B7F-4ACC-ADF3-B6E0F7033A19";
paths = (
{
closed = 1;
nodes = (
"869 732 LINE",
"140 732 LINE",
"140 578 LINE",
"869 578 LINE"
);
}
);
width = 1009;
}
);
leftKerningGroup = hyphen;
leftMetricsKey = hyphen;
note = endash;
rightKerningGroup = hyphen;
rightMetricsKey = hyphen;
unicode = 2013;
},
{
color = 3;
glyphname = emdash;
layers = (
{
layerId = "2F8B9CD4-7B7F-4ACC-ADF3-B6E0F7033A19";
paths = (
{
closed = 1;
nodes = (
"1054 732 LINE",
"140 732 LINE",
"140 578 LINE",
"1054 578 LINE"
);
}
);
width = 1194;
}
);
leftKerningGroup = hyphen;
leftMetricsKey = hyphen;
note = emdash;
rightKerningGroup = hyphen;
rightMetricsKey = hyphen;
unicode = 2014;
},
{
color = 3;
glyphname = underscore;
layers = (
{
layerId = "2F8B9CD4-7B7F-4ACC-ADF3-B6E0F7033A19";
paths = (
{
closed = 1;
nodes = (
"978 0 LINE",
"140 0 LINE",
"140 -154 LINE",
"978 -154 LINE"
);
}
);
width = 1118;
}
);
leftMetricsKey = period;
note = underscore;
rightMetricsKey = period;
unicode = 005F;
},
{
color = 3;
glyphname = parenleft;
layers = (
{
background = {
paths = (
{
closed = 1;
nodes = (
"220 210 OFFCURVE",
"233 -17 OFFCURVE",
"315 -130 CURVE SMOOTH",
"384 -226 OFFCURVE",
"451 -254 OFFCURVE",
"633 -264 CURVE",
"633 -141 LINE",
"515 -141 OFFCURVE",
"456 -112 OFFCURVE",
"423 -23 CURVE SMOOTH",
"391 63 OFFCURVE",
"384 292 OFFCURVE",
"384 638 CURVE SMOOTH",
"384 970 OFFCURVE",
"391 1193 OFFCURVE",
"423 1279 CURVE SMOOTH",
"456 1367 OFFCURVE",
"516 1397 OFFCURVE",
"633 1397 CURVE",
"633 1520 LINE",
"453 1510 OFFCURVE",
"384 1481 OFFCURVE",
"315 1386 CURVE SMOOTH",
"229 1268 OFFCURVE",
"220 1066 OFFCURVE",
"220 638 CURVE SMOOTH"
);
}
);
};
layerId = "2F8B9CD4-7B7F-4ACC-ADF3-B6E0F7033A19";
paths = (
{
closed = 1;
nodes = (
"220 85 OFFCURVE",
"233 -142 OFFCURVE",
"315 -255 CURVE SMOOTH",
"384 -351 OFFCURVE",
"451 -379 OFFCURVE",
"633 -389 CURVE",
"633 -266 LINE",
"515 -266 OFFCURVE",
"456 -237 OFFCURVE",
"423 -148 CURVE SMOOTH",
"391 -62 OFFCURVE",
"384 167 OFFCURVE",
"384 539 CURVE SMOOTH",
"384 891 OFFCURVE",
"391 1114 OFFCURVE",
"423 1200 CURVE SMOOTH",
"456 1288 OFFCURVE",
"516 1318 OFFCURVE",
"633 1318 CURVE",
"633 1441 LINE",
"453 1431 OFFCURVE",
"384 1402 OFFCURVE",
"315 1307 CURVE SMOOTH",
"229 1189 OFFCURVE",
"220 987 OFFCURVE",
"220 539 CURVE SMOOTH"
);
}
);
width = 748;
}
);
leftKerningGroup = bracketleft;
leftMetricsKey = H;
note = parenleft;
rightKerningGroup = bracketleft;
unicode = 0028;
},
{
color = 3;
glyphname = parenright;
layers = (
{
layerId = "2F8B9CD4-7B7F-4ACC-ADF3-B6E0F7033A19";
paths = (
{
closed = 1;
nodes = (
"528 987 OFFCURVE",
"519 1189 OFFCURVE",
"433 1307 CURVE SMOOTH",
"364 1402 OFFCURVE",
"295 1431 OFFCURVE",
"115 1441 CURVE",
"115 1318 LINE",
"232 1318 OFFCURVE",
"292 1288 OFFCURVE",
"325 1200 CURVE SMOOTH",
"357 1114 OFFCURVE",
"364 891 OFFCURVE",
"364 539 CURVE SMOOTH",
"364 167 OFFCURVE",
"357 -62 OFFCURVE",
"325 -148 CURVE SMOOTH",
"292 -237 OFFCURVE",
"233 -266 OFFCURVE",
"115 -266 CURVE",
"115 -389 LINE",
"297 -379 OFFCURVE",
"364 -351 OFFCURVE",
"433 -255 CURVE SMOOTH",
"515 -142 OFFCURVE",
"528 85 OFFCURVE",
"528 539 CURVE SMOOTH"
);
}
);
width = 748;
}
);
leftKerningGroup = bracketright;
leftMetricsKey = "=|parenleft";
widthMetricsKey = parenleft;
note = parenright;
rightKerningGroup = bracketright;
unicode = 0029;
},
{
color = 3;
glyphname = braceleft;
layers = (
{
layerId = "2F8B9CD4-7B7F-4ACC-ADF3-B6E0F7033A19";
paths = (
{
closed = 1;
nodes = (
"415 573 OFFCURVE",
"478 614 OFFCURVE",
"478 798 CURVE SMOOTH",
"478 1204 LINE SMOOTH",
"478 1314 OFFCURVE",
"516 1320 OFFCURVE",
"633 1320 CURVE",
"633 1441 LINE",
"413 1441 OFFCURVE",
"314 1397 OFFCURVE",
"314 1173 CURVE SMOOTH",
"314 834 LINE SMOOTH",
"314 663 OFFCURVE",
"310 590 OFFCURVE",
"140 590 CURVE",
"140 462 LINE",
"310 462 OFFCURVE",
"314 389 OFFCURVE",
"314 218 CURVE SMOOTH",
"314 -121 LINE SMOOTH",
"314 -343 OFFCURVE",
"411 -389 OFFCURVE",
"633 -389 CURVE",
"633 -268 LINE",
"515 -268 OFFCURVE",
"478 -260 OFFCURVE",
"478 -152 CURVE SMOOTH",
"478 254 LINE SMOOTH",
"478 438 OFFCURVE",
"415 483 OFFCURVE",
"312 528 CURVE"
);
}
);
width = 748;
}
);
leftKerningGroup = bracketleft;
note = braceleft;
rightKerningGroup = bracketleft;
unicode = 007B;
},
{
color = 3;
glyphname = braceright;
layers = (
{
background = {
paths = (
{
closed = 1;
nodes = (
"333 602 OFFCURVE",
"270 557 OFFCURVE",
"270 373 CURVE SMOOTH",
"270 -1 LINE SMOOTH",
"270 -109 OFFCURVE",
"233 -117 OFFCURVE",
"115 -117 CURVE",
"115 -238 LINE",
"337 -238 OFFCURVE",
"434 -192 OFFCURVE",
"434 30 CURVE SMOOTH",
"434 337 LINE SMOOTH",
"434 508 OFFCURVE",
"438 581 OFFCURVE",
"608 581 CURVE",
"608 709 LINE",
"438 709 OFFCURVE",
"434 782 OFFCURVE",
"434 953 CURVE SMOOTH",
"434 1260 LINE SMOOTH",
"434 1484 OFFCURVE",
"335 1528 OFFCURVE",
"115 1528 CURVE",
"115 1407 LINE",
"232 1407 OFFCURVE",
"270 1401 OFFCURVE",
"270 1291 CURVE SMOOTH",
"270 917 LINE SMOOTH",
"270 733 OFFCURVE",
"333 692 OFFCURVE",
"436 647 CURVE"
);
}
);
};
layerId = "2F8B9CD4-7B7F-4ACC-ADF3-B6E0F7033A19";
paths = (
{
closed = 1;
nodes = (
"333 483 OFFCURVE",
"270 438 OFFCURVE",
"270 254 CURVE SMOOTH",
"270 -152 LINE SMOOTH",
"270 -260 OFFCURVE",
"233 -268 OFFCURVE",
"115 -268 CURVE",
"115 -389 LINE",
"337 -389 OFFCURVE",
"434 -343 OFFCURVE",
"434 -121 CURVE SMOOTH",
"434 218 LINE SMOOTH",
"434 389 OFFCURVE",
"438 462 OFFCURVE",
"608 462 CURVE",
"608 590 LINE",
"438 590 OFFCURVE",
"434 663 OFFCURVE",
"434 834 CURVE SMOOTH",
"434 1173 LINE SMOOTH",
"434 1397 OFFCURVE",
"335 1441 OFFCURVE",
"115 1441 CURVE",
"115 1320 LINE",
"232 1320 OFFCURVE",
"270 1314 OFFCURVE",
"270 1204 CURVE SMOOTH",
"270 798 LINE SMOOTH",
"270 614 OFFCURVE",
"333 573 OFFCURVE",
"436 528 CURVE"
);
}
);
width = 748;
}
);
leftKerningGroup = bracketright;
leftMetricsKey = "=|braceleft";
widthMetricsKey = braceleft;
note = braceright;
rightKerningGroup = bracketright;
unicode = 007D;
},
{
color = 3;
glyphname = bracketleft;
layers = (
{
layerId = "2F8B9CD4-7B7F-4ACC-ADF3-B6E0F7033A19";
paths = (
{
closed = 1;
nodes = (
"570 -389 LINE",
"570 -269 LINE",
"384 -269 LINE",
"384 1321 LINE",
"570 1321 LINE",
"570 1441 LINE",
"220 1441 LINE",
"220 -389 LINE"
);
}
);
width = 685;
}
);
leftKerningGroup = bracketleft;
leftMetricsKey = H;
note = bracketleft;
rightKerningGroup = bracketleft;
unicode = 005B;
},
{
color = 3;
glyphname = bracketright;
layers = (
{
layerId = "2F8B9CD4-7B7F-4ACC-ADF3-B6E0F7033A19";
paths = (
{
closed = 1;
nodes = (
"465 1441 LINE",
"115 1441 LINE",
"115 1321 LINE",
"301 1321 LINE",
"301 -269 LINE",
"115 -269 LINE",
"115 -389 LINE",
"465 -389 LINE"
);
}
);
width = 685;
}
);
leftKerningGroup = bracketright;
leftMetricsKey = "=|bracketleft";
widthMetricsKey = bracketleft;
note = bracketright;
rightKerningGroup = bracketright;
unicode = 005D;
},
{
color = 3;
glyphname = quotesinglbase;
layers = (
{
layerId = "2F8B9CD4-7B7F-4ACC-ADF3-B6E0F7033A19";
paths = (
{
closed = 1;
nodes = (
"396 181 OFFCURVE",
"363 214 OFFCURVE",
"275 214 CURVE SMOOTH",
"188 214 OFFCURVE",
"150 181 OFFCURVE",
"150 89 CURVE SMOOTH",
"150 0 OFFCURVE",
"188 -22 OFFCURVE",
"257 -22 CURVE",
"250 -99 OFFCURVE",
"225 -148 OFFCURVE",
"170 -228 CURVE",
"252 -283 LINE",
"351 -190 OFFCURVE",
"396 -73 OFFCURVE",
"396 89 CURVE SMOOTH"
);
}
);
width = 546;
}
);
leftKerningGroup = period;
leftMetricsKey = "=period+10";
widthMetricsKey = "=period+20";
note = quotesinglbase;
rightKerningGroup = period;
unicode = 201A;
},
{
color = 3;
glyphname = quotedblbase;
layers = (
{
layerId = "2F8B9CD4-7B7F-4ACC-ADF3-B6E0F7033A19";
paths = (
{
closed = 1;
nodes = (
"396 181 OFFCURVE",
"363 214 OFFCURVE",
"275 214 CURVE SMOOTH",
"188 214 OFFCURVE",
"150 181 OFFCURVE",
"150 89 CURVE SMOOTH",
"150 0 OFFCURVE",
"188 -22 OFFCURVE",
"257 -22 CURVE",
"250 -99 OFFCURVE",
"225 -148 OFFCURVE",
"170 -228 CURVE",
"252 -283 LINE",
"351 -190 OFFCURVE",
"396 -73 OFFCURVE",
"396 89 CURVE SMOOTH"
);
},
{
closed = 1;
nodes = (
"715 181 OFFCURVE",
"682 214 OFFCURVE",
"594 214 CURVE SMOOTH",
"507 214 OFFCURVE",
"469 181 OFFCURVE",
"469 89 CURVE SMOOTH",
"469 0 OFFCURVE",
"507 -22 OFFCURVE",
"576 -22 CURVE",
"569 -99 OFFCURVE",
"544 -148 OFFCURVE",
"489 -228 CURVE",
"571 -283 LINE",
"670 -190 OFFCURVE",
"715 -73 OFFCURVE",
"715 89 CURVE SMOOTH"
);
}
);
width = 865;
}
);
leftKerningGroup = period;
leftMetricsKey = quotesinglbase;
note = quotedblbase;
rightKerningGroup = period;
rightMetricsKey = quotesinglbase;
unicode = 201E;
},
{
color = 3;
glyphname = quotedblleft;
layers = (
{
layerId = "2F8B9CD4-7B7F-4ACC-ADF3-B6E0F7033A19";
paths = (
{
closed = 1;
nodes = (
"469 1028 OFFCURVE",
"502 995 OFFCURVE",
"590 995 CURVE SMOOTH",
"677 995 OFFCURVE",
"715 1028 OFFCURVE",
"715 1120 CURVE SMOOTH",
"715 1209 OFFCURVE",
"677 1231 OFFCURVE",
"608 1231 CURVE",
"615 1308 OFFCURVE",
"640 1357 OFFCURVE",
"695 1437 CURVE",
"613 1492 LINE",
"514 1399 OFFCURVE",
"469 1282 OFFCURVE",
"469 1120 CURVE SMOOTH"
);
},
{
closed = 1;
nodes = (
"150 1028 OFFCURVE",
"183 995 OFFCURVE",
"271 995 CURVE SMOOTH",
"358 995 OFFCURVE",
"396 1028 OFFCURVE",
"396 1120 CURVE SMOOTH",
"396 1209 OFFCURVE",
"358 1231 OFFCURVE",
"289 1231 CURVE",
"296 1308 OFFCURVE",
"321 1357 OFFCURVE",
"376 1437 CURVE",
"294 1492 LINE",
"195 1399 OFFCURVE",
"150 1282 OFFCURVE",
"150 1120 CURVE SMOOTH"
);
}
);
width = 865;
}
);
leftKerningGroup = quotedblleft;
leftMetricsKey = quotesinglbase;
note = quotedblleft;
rightKerningGroup = quotedblleft;
rightMetricsKey = quotesinglbase;
unicode = 201C;
},
{
color = 3;
glyphname = quotedblright;
layers = (
{
layerId = "2F8B9CD4-7B7F-4ACC-ADF3-B6E0F7033A19";
paths = (
{
closed = 1;
nodes = (
"396 1432 OFFCURVE",
"363 1465 OFFCURVE",
"275 1465 CURVE SMOOTH",
"188 1465 OFFCURVE",
"150 1432 OFFCURVE",
"150 1340 CURVE SMOOTH",
"150 1251 OFFCURVE",
"188 1229 OFFCURVE",
"257 1229 CURVE",
"250 1152 OFFCURVE",
"225 1103 OFFCURVE",
"170 1023 CURVE",
"252 968 LINE",
"351 1061 OFFCURVE",
"396 1178 OFFCURVE",
"396 1340 CURVE SMOOTH"
);
},
{
closed = 1;
nodes = (
"715 1432 OFFCURVE",
"682 1465 OFFCURVE",
"594 1465 CURVE SMOOTH",
"507 1465 OFFCURVE",
"469 1432 OFFCURVE",
"469 1340 CURVE SMOOTH",
"469 1251 OFFCURVE",
"507 1229 OFFCURVE",
"576 1229 CURVE",
"569 1152 OFFCURVE",
"544 1103 OFFCURVE",
"489 1023 CURVE",
"571 968 LINE",
"670 1061 OFFCURVE",
"715 1178 OFFCURVE",
"715 1340 CURVE SMOOTH"
);
}
);
width = 865;
}
);
leftKerningGroup = quotedblright;
leftMetricsKey = quotesinglbase;
note = quotedblright;
rightKerningGroup = quotedblright;
rightMetricsKey = quotesinglbase;
unicode = 201D;
},
{
color = 3;
glyphname = quoteleft;
layers = (
{
layerId = "2F8B9CD4-7B7F-4ACC-ADF3-B6E0F7033A19";
paths = (
{
closed = 1;
nodes = (
"150 1028 OFFCURVE",
"183 995 OFFCURVE",
"271 995 CURVE SMOOTH",
"358 995 OFFCURVE",
"396 1028 OFFCURVE",
"396 1120 CURVE SMOOTH",
"396 1209 OFFCURVE",
"358 1231 OFFCURVE",
"289 1231 CURVE",
"296 1308 OFFCURVE",
"321 1357 OFFCURVE",
"376 1437 CURVE",
"294 1492 LINE",
"195 1399 OFFCURVE",
"150 1282 OFFCURVE",
"150 1120 CURVE SMOOTH"
);
}
);
width = 546;
}
);
leftKerningGroup = quotedblleft;
leftMetricsKey = quotesinglbase;
note = quoteleft;
rightKerningGroup = quotedblleft;
rightMetricsKey = quotesinglbase;
unicode = 2018;
},
{
color = 3;
glyphname = quoteright;
layers = (
{
layerId = "2F8B9CD4-7B7F-4ACC-ADF3-B6E0F7033A19";
paths = (
{
closed = 1;
nodes = (
"396 1432 OFFCURVE",
"363 1465 OFFCURVE",
"275 1465 CURVE SMOOTH",
"188 1465 OFFCURVE",
"150 1432 OFFCURVE",
"150 1340 CURVE SMOOTH",
"150 1251 OFFCURVE",
"188 1229 OFFCURVE",
"257 1229 CURVE",
"250 1152 OFFCURVE",
"225 1103 OFFCURVE",
"170 1023 CURVE",
"252 968 LINE",
"351 1061 OFFCURVE",
"396 1178 OFFCURVE",
"396 1340 CURVE SMOOTH"
);
}
);
width = 546;
}
);
leftKerningGroup = quotedblright;
leftMetricsKey = quotesinglbase;
note = quoteright;
rightKerningGroup = quotedblright;
rightMetricsKey = quotesinglbase;
unicode = 2019;
},
{
color = 3;
glyphname = guillemetleft;
layers = (
{
layerId = "2F8B9CD4-7B7F-4ACC-ADF3-B6E0F7033A19";
paths = (
{
closed = 1;
nodes = (
"100 455 LINE",
"400 110 LINE",
"505 200 LINE",
"242 502 LINE",
"505 804 LINE",
"400 894 LINE",
"100 549 LINE"
);
},
{
closed = 1;
nodes = (
"510 455 LINE",
"810 110 LINE",
"915 200 LINE",
"652 502 LINE",
"915 804 LINE",
"810 894 LINE",
"510 549 LINE"
);
}
);
width = 1015;
}
);
leftKerningGroup = guilleft;
note = guillemotleft;
rightKerningGroup = guilleft;
unicode = 00AB;
},
{
color = 3;
glyphname = guillemetright;
layers = (
{
layerId = "2F8B9CD4-7B7F-4ACC-ADF3-B6E0F7033A19";
paths = (
{
closed = 1;
nodes = (
"615 894 LINE",
"510 804 LINE",
"773 502 LINE",
"510 200 LINE",
"615 110 LINE",
"915 455 LINE",
"915 549 LINE"
);
},
{
closed = 1;
nodes = (
"205 894 LINE",
"100 804 LINE",
"363 502 LINE",
"100 200 LINE",
"205 110 LINE",
"505 455 LINE",
"505 549 LINE"
);
}
);
width = 1015;
}
);
leftKerningGroup = guilright;
note = guillemotright;
rightKerningGroup = guilright;
unicode = 00BB;
},
{
color = 3;
glyphname = guilsinglleft;
layers = (
{
background = {
paths = (
{
closed = 1;
nodes = (
"100 455 LINE",
"380 110 LINE",
"505 170 LINE",
"242 502 LINE",
"505 834 LINE",
"380 894 LINE",
"100 549 LINE"
);
}
);
};
layerId = "2F8B9CD4-7B7F-4ACC-ADF3-B6E0F7033A19";
paths = (
{
closed = 1;
nodes = (
"100 455 LINE",
"400 110 LINE",
"505 200 LINE",
"242 502 LINE",
"505 804 LINE",
"400 894 LINE",
"100 549 LINE"
);
}
);
width = 605;
}
);
leftKerningGroup = guilleft;
note = guilsinglleft;
rightKerningGroup = guilleft;
unicode = 2039;
},
{
color = 3;
glyphname = guilsinglright;
layers = (
{
layerId = "2F8B9CD4-7B7F-4ACC-ADF3-B6E0F7033A19";
paths = (
{
closed = 1;
nodes = (
"205 894 LINE",
"100 804 LINE",
"363 502 LINE",
"100 200 LINE",
"205 110 LINE",
"505 455 LINE",
"505 549 LINE"
);
}
);
width = 605;
}
);
leftKerningGroup = guilright;
note = guilsinglright;
rightKerningGroup = guilright;
unicode = 203A;
},
{
color = 3;
glyphname = quotedbl;
layers = (
{
background = {
paths = (
{
closed = 1;
nodes = (
"468 1452 LINE",
"470 1260 LINE",
"501 952 LINE",
"630 952 LINE",
"661 1260 LINE",
"663 1452 LINE"
);
},
{
closed = 1;
nodes = (
"128 1452 LINE",
"132 1260 LINE",
"163 952 LINE",
"292 952 LINE",
"321 1260 LINE",
"325 1452 LINE"
);
}
);
};
layerId = "2F8B9CD4-7B7F-4ACC-ADF3-B6E0F7033A19";
paths = (
{
closed = 1;
nodes = (
"326 1248 OFFCURVE",
"326 1336 CURVE SMOOTH",
"326 1424 OFFCURVE",
"298 1460 OFFCURVE",
"233 1460 CURVE SMOOTH",
"168 1460 OFFCURVE",
"140 1424 OFFCURVE",
"140 1336 CURVE SMOOTH",
"140 1248 OFFCURVE",
"178 928 OFFCURVE",
"233 928 CURVE SMOOTH",
"288 928 OFFCURVE"
);
},
{
closed = 1;
nodes = (
"626 1248 OFFCURVE",
"626 1336 CURVE SMOOTH",
"626 1424 OFFCURVE",
"598 1460 OFFCURVE",
"533 1460 CURVE SMOOTH",
"468 1460 OFFCURVE",
"440 1424 OFFCURVE",
"440 1336 CURVE SMOOTH",
"440 1248 OFFCURVE",
"478 928 OFFCURVE",
"533 928 CURVE SMOOTH",
"588 928 OFFCURVE"
);
}
);
width = 766;
}
);
leftKerningGroup = asterisk;
note = quotedbl;
rightKerningGroup = asterisk;
unicode = 0022;
},
{
color = 3;
glyphname = quotesingle;
layers = (
{
background = {
paths = (
{
closed = 1;
nodes = (
"130 1452 LINE",
"132 1260 LINE",
"163 952 LINE",
"292 952 LINE",
"323 1260 LINE",
"325 1452 LINE"
);
}
);
};
layerId = "2F8B9CD4-7B7F-4ACC-ADF3-B6E0F7033A19";
paths = (
{
closed = 1;
nodes = (
"326 1248 OFFCURVE",
"326 1336 CURVE SMOOTH",
"326 1424 OFFCURVE",
"298 1460 OFFCURVE",
"233 1460 CURVE SMOOTH",
"168 1460 OFFCURVE",
"140 1424 OFFCURVE",
"140 1336 CURVE SMOOTH",
"140 1248 OFFCURVE",
"178 928 OFFCURVE",
"233 928 CURVE SMOOTH",
"288 928 OFFCURVE"
);
}
);
width = 466;
}
);
leftKerningGroup = asterisk;
note = quotesingle;
rightKerningGroup = asterisk;
unicode = 0027;
},
{
glyphname = florin;
layers = (
{
layerId = "2F8B9CD4-7B7F-4ACC-ADF3-B6E0F7033A19";
paths = (
{
closed = 1;
nodes = (
"738 860 LINE",
"763 993 LINE",
"478 993 LINE",
"517 1219 LINE SMOOTH",
"543 1371 OFFCURVE",
"563 1415 OFFCURVE",
"718 1415 CURVE SMOOTH",
"757 1415 OFFCURVE",
"798 1412 OFFCURVE",
"837 1409 CURVE",
"859 1544 LINE",
"818 1547 OFFCURVE",
"775 1548 OFFCURVE",
"734 1548 CURVE SMOOTH",
"469 1548 OFFCURVE",
"401 1471 OFFCURVE",
"353 1204 CURVE SMOOTH",
"315 993 LINE",
"104 993 LINE",
"81 860 LINE",
"292 860 LINE",
"116 -139 LINE SMOOTH",
"90 -288 OFFCURVE",
"63 -344 OFFCURVE",
"-85 -344 CURVE SMOOTH",
"-124 -344 OFFCURVE",
"-165 -338 OFFCURVE",
"-204 -330 CURVE",
"-226 -461 LINE",
"-185 -472 OFFCURVE",
"-146 -477 OFFCURVE",
"-105 -477 CURVE SMOOTH",
"170 -477 OFFCURVE",
"230 -400 OFFCURVE",
"280 -125 CURVE SMOOTH",
"456 860 LINE"
);
}
);
width = 807;
}
);
note = florin;
unicode = 0192;
},
{
color = 3;
glyphname = at;
layers = (
{
background = {
paths = (
{
closed = 1;
nodes = (
"781 281 OFFCURVE",
"740 306 OFFCURVE",
"713 349 CURVE SMOOTH",
"690 385 OFFCURVE",
"681 434 OFFCURVE",
"681 487 CURVE SMOOTH",
"681 587 OFFCURVE",
"715 701 OFFCURVE",
"761 777 CURVE SMOOTH",
"813 863 OFFCURVE",
"897 893 OFFCURVE",
"956 893 CURVE SMOOTH",
"966 893 OFFCURVE",
"975 893 OFFCURVE",
"983 891 CURVE SMOOTH",
"1044 879 OFFCURVE",
"1076 856 OFFCURVE",
"1116 824 CURVE",
"1048 520 OFFCURVE",
"985 281 OFFCURVE",
"838 281 CURVE SMOOTH"
);
},
{
closed = 1;
nodes = (
"1264 993 OFFCURVE",
"1232 996 OFFCURVE",
"1213 996 CURVE SMOOTH",
"1190 996 OFFCURVE",
"1171 983 OFFCURVE",
"1148 932 CURVE",
"1084 992 OFFCURVE",
"1018 1028 OFFCURVE",
"925 1028 CURVE SMOOTH",
"732 1028 OFFCURVE",
"554 804 OFFCURVE",
"536 542 CURVE SMOOTH",
"535 525 OFFCURVE",
"534 509 OFFCURVE",
"534 493 CURVE SMOOTH",
"534 297 OFFCURVE",
"620 153 OFFCURVE",
"801 153 CURVE SMOOTH",
"952 153 OFFCURVE",
"1048 241 OFFCURVE",
"1104 396 CURVE",
"1104 256 OFFCURVE",
"1171 161 OFFCURVE",
"1326 161 CURVE SMOOTH",
"1441 161 OFFCURVE",
"1543 231 OFFCURVE",
"1615 329 CURVE SMOOTH",
"1734 491 OFFCURVE",
"1744 878 OFFCURVE",
"1599 1086 CURVE SMOOTH",
"1466 1278 OFFCURVE",
"1223 1379 OFFCURVE",
"978 1379 CURVE SMOOTH",
"512 1379 OFFCURVE",
"120 1014 OFFCURVE",
"120 536 CURVE SMOOTH",
"120 244 OFFCURVE",
"260 9 OFFCURVE",
"520 -106 CURVE SMOOTH",
"631 -155 OFFCURVE",
"752 -179 OFFCURVE",
"868 -179 CURVE SMOOTH",
"1017 -179 OFFCURVE",
"1154 -142 OFFCURVE",
"1275 -93 CURVE",
"1220 27 LINE",
"1124 -8 OFFCURVE",
"1012 -45 OFFCURVE",
"889 -45 CURVE SMOOTH",
"505 -45 OFFCURVE",
"265 176 OFFCURVE",
"265 550 CURVE SMOOTH",
"265 932 OFFCURVE",
"586 1246 OFFCURVE",
"968 1246 CURVE SMOOTH",
"1349 1246 OFFCURVE",
"1578 1044 OFFCURVE",
"1578 705 CURVE SMOOTH",
"1578 506 OFFCURVE",
"1502 289 OFFCURVE",
"1347 289 CURVE SMOOTH",
"1213 289 OFFCURVE",
"1194 395 OFFCURVE",
"1219 552 CURVE SMOOTH",
"1290 989 LINE"
);
}
);
};
layerId = "2F8B9CD4-7B7F-4ACC-ADF3-B6E0F7033A19";
paths = (
{
closed = 1;
nodes = (
"1130 1011 LINE",
"1047 507 LINE SMOOTH",
"1019 334 OFFCURVE",
"920 288 OFFCURVE",
"838 288 CURVE SMOOTH",
"740 288 OFFCURVE",
"681 348 OFFCURVE",
"681 497 CURVE SMOOTH",
"681 711 OFFCURVE",
"782 893 OFFCURVE",
"956 893 CURVE SMOOTH",
"1011 893 OFFCURVE",
"1069 891 OFFCURVE",
"1132 830 CURVE",
"1132 919 LINE",
"1086 1005 OFFCURVE",
"1014 1028 OFFCURVE",
"925 1028 CURVE SMOOTH",
"668 1028 OFFCURVE",
"514 776 OFFCURVE",
"514 493 CURVE SMOOTH",
"514 290 OFFCURVE",
"622 153 OFFCURVE",
"811 153 CURVE SMOOTH",
"945 153 OFFCURVE",
"1045 233 OFFCURVE",
"1104 356 CURVE",
"1113 254 OFFCURVE",
"1182 161 OFFCURVE",
"1326 161 CURVE SMOOTH",
"1544 161 OFFCURVE",
"1706 385 OFFCURVE",
"1706 685 CURVE SMOOTH",
"1706 1108 OFFCURVE",
"1421 1379 OFFCURVE",
"978 1379 CURVE SMOOTH",
"462 1379 OFFCURVE",
"120 1004 OFFCURVE",
"120 536 CURVE SMOOTH",
"120 116 OFFCURVE",
"409 -179 OFFCURVE",
"868 -179 CURVE SMOOTH",
"997 -179 OFFCURVE",
"1162 -151 OFFCURVE",
"1275 -83 CURVE",
"1220 37 LINE",
"1112 -24 OFFCURVE",
"984 -45 OFFCURVE",
"889 -45 CURVE SMOOTH",
"481 -45 OFFCURVE",
"265 180 OFFCURVE",
"265 550 CURVE SMOOTH",
"265 930 OFFCURVE",
"544 1246 OFFCURVE",
"968 1246 CURVE SMOOTH",
"1350 1246 OFFCURVE",
"1578 1043 OFFCURVE",
"1578 705 CURVE SMOOTH",
"1578 466 OFFCURVE",
"1480 289 OFFCURVE",
"1347 289 CURVE SMOOTH",
"1229 289 OFFCURVE",
"1189 370 OFFCURVE",
"1218 547 CURVE SMOOTH",
"1294 1011 LINE"
);
}
);
width = 1826;
}
);
note = at;
unicode = 0040;
},
{
color = 3;
glyphname = ampersand;
layers = (
{
background = {
paths = (
{
closed = 1;
nodes = (
"553 867 LINE SMOOTH",
"445 952 OFFCURVE",
"430 1021 OFFCURVE",
"430 1115 CURVE SMOOTH",
"430 1251 OFFCURVE",
"508 1328 OFFCURVE",
"663 1328 CURVE SMOOTH",
"830 1328 OFFCURVE",
"879 1264 OFFCURVE",
"898 1126 CURVE",
"1073 1126 LINE",
"1050 1365 OFFCURVE",
"941 1472 OFFCURVE",
"662 1472 CURVE SMOOTH",
"411 1472 OFFCURVE",
"252 1333 OFFCURVE",
"252 1111 CURVE SMOOTH",
"252 983 OFFCURVE",
"296 853 OFFCURVE",
"429 748 CURVE SMOOTH",
"1369 3 LINE",
"1475 137 LINE"
);
},
{
closed = 1;
nodes = (
"207 806 OFFCURVE",
"120 659 OFFCURVE",
"120 432 CURVE SMOOTH",
"120 117 OFFCURVE",
"302 -23 OFFCURVE",
"666 -23 CURVE SMOOTH",
"1031 -23 OFFCURVE",
"1214 117 OFFCURVE",
"1214 433 CURVE SMOOTH",
"1214 752 LINE",
"1053 752 LINE",
"1053 433 LINE SMOOTH",
"1053 189 OFFCURVE",
"925 121 OFFCURVE",
"667 121 CURVE SMOOTH",
"409 121 OFFCURVE",
"295 199 OFFCURVE",
"295 432 CURVE SMOOTH",
"295 654 OFFCURVE",
"361 729 OFFCURVE",
"560 796 CURVE",
"431 867 LINE"
);
}
);
};
guideLines = (
{
angle = 51.6013;
position = "{1369, 3}";
},
{
angle = -38.3987;
position = "{1484, 128}";
}
);
layerId = "2F8B9CD4-7B7F-4ACC-ADF3-B6E0F7033A19";
paths = (
{
closed = 1;
nodes = (
"1209 348 LINE",
"1212 374 OFFCURVE",
"1214 403 OFFCURVE",
"1214 433 CURVE SMOOTH",
"1214 752 LINE",
"1053 752 LINE",
"1053 471 LINE",
"553 867 LINE SMOOTH",
"445 952 OFFCURVE",
"430 1021 OFFCURVE",
"430 1115 CURVE SMOOTH",
"430 1251 OFFCURVE",
"508 1328 OFFCURVE",
"663 1328 CURVE SMOOTH",
"830 1328 OFFCURVE",
"879 1264 OFFCURVE",
"898 1126 CURVE",
"1073 1126 LINE",
"1050 1365 OFFCURVE",
"941 1472 OFFCURVE",
"662 1472 CURVE SMOOTH",
"411 1472 OFFCURVE",
"252 1333 OFFCURVE",
"252 1111 CURVE SMOOTH",
"252 1016 OFFCURVE",
"276 921 OFFCURVE",
"342 835 CURVE",
"184 762 OFFCURVE",
"120 626 OFFCURVE",
"120 432 CURVE SMOOTH",
"120 117 OFFCURVE",
"302 -23 OFFCURVE",
"666 -23 CURVE SMOOTH",
"909 -23 OFFCURVE",
"1072 39 OFFCURVE",
"1153 174 CURVE",
"1369 3 LINE",
"1475 137 LINE"
);
},
{
closed = 1;
nodes = (
"295 599 OFFCURVE",
"332 683 OFFCURVE",
"436 743 CURVE",
"1026 275 LINE",
"976 158 OFFCURVE",
"857 121 OFFCURVE",
"667 121 CURVE SMOOTH",
"409 121 OFFCURVE",
"295 199 OFFCURVE",
"295 432 CURVE SMOOTH"
);
}
);
width = 1475;
}
);
note = ampersand;
unicode = 0026;
},
{
color = 3;
glyphname = paragraph;
layers = (
{
layerId = "2F8B9CD4-7B7F-4ACC-ADF3-B6E0F7033A19";
paths = (
{
closed = 1;
nodes = (
"568 1300 LINE",
"831 1300 LINE",
"831 -235 LINE",
"971 -235 LINE",
"971 1300 LINE",
"1133 1300 LINE",
"1133 1440 LINE",
"467 1440 LINE SMOOTH",
"352 1440 OFFCURVE",
"256 1406 OFFCURVE",
"188 1347 CURVE SMOOTH",
"120 1288 OFFCURVE",
"80 1204 OFFCURVE",
"80 1103 CURVE SMOOTH",
"80 1008 OFFCURVE",
"115 930 OFFCURVE",
"176 872 CURVE SMOOTH",
"237 814 OFFCURVE",
"324 777 OFFCURVE",
"428 769 CURVE",
"428 -235 LINE",
"568 -235 LINE"
);
}
);
width = 1213;
}
);
note = paragraph;
unicode = 00B6;
},
{
color = 3;
glyphname = section;
layers = (
{
background = {
paths = (
{
closed = 1;
nodes = (
"788 450 LINE",
"931 474 OFFCURVE",
"996 563 OFFCURVE",
"996 698 CURVE SMOOTH",
"996 875 OFFCURVE",
"904 959 OFFCURVE",
"669 997 CURVE SMOOTH",
"503 1024 LINE SMOOTH",
"380 1044 OFFCURVE",
"329 1090 OFFCURVE",
"329 1182 CURVE SMOOTH",
"329 1301 OFFCURVE",
"398 1351 OFFCURVE",
"564 1351 CURVE SMOOTH",
"726 1351 OFFCURVE",
"786 1301 OFFCURVE",
"786 1174 CURVE",
"932 1174 LINE",
"932 1386 OFFCURVE",
"823 1471 OFFCURVE",
"564 1471 CURVE SMOOTH",
"306 1471 OFFCURVE",
"180 1362 OFFCURVE",
"180 1180 CURVE SMOOTH",
"180 1012 OFFCURVE",
"273 929 OFFCURVE",
"498 892 CURVE SMOOTH",
"664 865 LINE SMOOTH",
"796 844 OFFCURVE",
"854 790 OFFCURVE",
"854 696 CURVE SMOOTH",
"854 593 OFFCURVE",
"815 541 OFFCURVE",
"700 504 CURVE"
);
},
{
closed = 1;
nodes = (
"328 991 LINE",
"185 967 OFFCURVE",
"120 878 OFFCURVE",
"120 743 CURVE SMOOTH",
"120 566 OFFCURVE",
"212 482 OFFCURVE",
"447 444 CURVE SMOOTH",
"613 417 LINE SMOOTH",
"736 397 OFFCURVE",
"787 351 OFFCURVE",
"787 259 CURVE SMOOTH",
"787 140 OFFCURVE",
"718 90 OFFCURVE",
"552 90 CURVE SMOOTH",
"390 90 OFFCURVE",
"330 140 OFFCURVE",
"330 267 CURVE",
"184 267 LINE",
"184 55 OFFCURVE",
"293 -30 OFFCURVE",
"552 -30 CURVE SMOOTH",
"810 -30 OFFCURVE",
"936 79 OFFCURVE",
"936 261 CURVE SMOOTH",
"936 429 OFFCURVE",
"843 512 OFFCURVE",
"618 549 CURVE SMOOTH",
"452 576 LINE SMOOTH",
"320 597 OFFCURVE",
"262 651 OFFCURVE",
"262 745 CURVE SMOOTH",
"262 848 OFFCURVE",
"301 900 OFFCURVE",
"416 937 CURVE"
);
}
);
};
layerId = "2F8B9CD4-7B7F-4ACC-ADF3-B6E0F7033A19";
paths = (
{
closed = 1;
nodes = (
"120 566 OFFCURVE",
"212 482 OFFCURVE",
"447 444 CURVE SMOOTH",
"613 417 LINE SMOOTH",
"736 397 OFFCURVE",
"787 351 OFFCURVE",
"787 259 CURVE SMOOTH",
"787 140 OFFCURVE",
"718 90 OFFCURVE",
"552 90 CURVE SMOOTH",
"390 90 OFFCURVE",
"330 140 OFFCURVE",
"330 267 CURVE",
"184 267 LINE",
"184 55 OFFCURVE",
"293 -30 OFFCURVE",
"552 -30 CURVE SMOOTH",
"810 -30 OFFCURVE",
"936 79 OFFCURVE",
"936 261 CURVE SMOOTH",
"936 352 OFFCURVE",
"909 418 OFFCURVE",
"848 465 CURVE",
"949 502 OFFCURVE",
"996 584 OFFCURVE",
"996 698 CURVE SMOOTH",
"996 875 OFFCURVE",
"904 959 OFFCURVE",
"669 997 CURVE SMOOTH",
"503 1024 LINE SMOOTH",
"380 1044 OFFCURVE",
"329 1090 OFFCURVE",
"329 1182 CURVE SMOOTH",
"329 1301 OFFCURVE",
"398 1351 OFFCURVE",
"564 1351 CURVE SMOOTH",
"726 1351 OFFCURVE",
"786 1301 OFFCURVE",
"786 1174 CURVE",
"932 1174 LINE",
"932 1386 OFFCURVE",
"823 1471 OFFCURVE",
"564 1471 CURVE SMOOTH",
"306 1471 OFFCURVE",
"180 1362 OFFCURVE",
"180 1180 CURVE SMOOTH",
"180 1089 OFFCURVE",
"207 1023 OFFCURVE",
"268 976 CURVE",
"167 939 OFFCURVE",
"120 857 OFFCURVE",
"120 743 CURVE SMOOTH"
);
},
{
closed = 1;
nodes = (
"262 834 OFFCURVE",
"291 885 OFFCURVE",
"374 921 CURVE",
"410 909 OFFCURVE",
"451 900 OFFCURVE",
"498 892 CURVE SMOOTH",
"664 865 LINE SMOOTH",
"796 844 OFFCURVE",
"854 790 OFFCURVE",
"854 696 CURVE SMOOTH",
"854 607 OFFCURVE",
"825 556 OFFCURVE",
"742 520 CURVE",
"706 532 OFFCURVE",
"665 541 OFFCURVE",
"618 549 CURVE SMOOTH",
"452 576 LINE SMOOTH",
"320 597 OFFCURVE",
"262 651 OFFCURVE",
"262 745 CURVE SMOOTH"
);
}
);
width = 1116;
}
);
note = section;
unicode = 00A7;
},
{
color = 3;
glyphname = copyright;
layers = (
{
background = {
paths = (
{
closed = 1;
nodes = (
"1638 1165 OFFCURVE",
"1330 1465 OFFCURVE",
"868 1465 CURVE SMOOTH",
"410 1465 OFFCURVE",
"105 1162 OFFCURVE",
"105 709 CURVE SMOOTH",
"105 258 OFFCURVE",
"410 -43 OFFCURVE",
"868 -43 CURVE SMOOTH",
"1330 -43 OFFCURVE",
"1638 260 OFFCURVE",
"1638 714 CURVE SMOOTH"
);
},
{
closed = 1;
nodes = (
"1547 305 OFFCURVE",
"1279 35 OFFCURVE",
"873 35 CURVE SMOOTH",
"467 35 OFFCURVE",
"197 305 OFFCURVE",
"197 711 CURVE SMOOTH",
"197 1117 OFFCURVE",
"467 1389 OFFCURVE",
"873 1389 CURVE SMOOTH",
"1293 1388 OFFCURVE",
"1547 1117 OFFCURVE",
"1547 711 CURVE SMOOTH"
);
},
{
closed = 1;
nodes = (
"1126 391 OFFCURVE",
"1034 327 OFFCURVE",
"872 327 CURVE SMOOTH",
"668 327 OFFCURVE",
"587 432 OFFCURVE",
"587 702 CURVE SMOOTH",
"587 974 OFFCURVE",
"673 1080 OFFCURVE",
"891 1080 CURVE SMOOTH",
"1041 1080 OFFCURVE",
"1126 1016 OFFCURVE",
"1126 900 CURVE",
"1232 900 LINE",
"1233 1075 OFFCURVE",
"1110 1172 OFFCURVE",
"891 1172 CURVE SMOOTH",
"610 1172 OFFCURVE",
"475 1020 OFFCURVE",
"475 699 CURVE SMOOTH",
"475 382 OFFCURVE",
"603 235 OFFCURVE",
"876 235 CURVE SMOOTH",
"1107 235 OFFCURVE",
"1233 332 OFFCURVE",
"1232 508 CURVE",
"1126 508 LINE"
);
}
);
};
layerId = "2F8B9CD4-7B7F-4ACC-ADF3-B6E0F7033A19";
paths = (
{
closed = 1;
nodes = (
"1638 1165 OFFCURVE",
"1330 1465 OFFCURVE",
"868 1465 CURVE SMOOTH",
"410 1465 OFFCURVE",
"105 1162 OFFCURVE",
"105 709 CURVE SMOOTH",
"105 258 OFFCURVE",
"410 -43 OFFCURVE",
"868 -43 CURVE SMOOTH",
"1330 -43 OFFCURVE",
"1638 260 OFFCURVE",
"1638 714 CURVE SMOOTH"
);
},
{
closed = 1;
nodes = (
"1547 305 OFFCURVE",
"1279 35 OFFCURVE",
"873 35 CURVE SMOOTH",
"467 35 OFFCURVE",
"197 305 OFFCURVE",
"197 711 CURVE SMOOTH",
"197 1117 OFFCURVE",
"467 1389 OFFCURVE",
"873 1389 CURVE SMOOTH",
"1293 1388 OFFCURVE",
"1547 1117 OFFCURVE",
"1547 711 CURVE SMOOTH"
);
},
{
closed = 1;
nodes = (
"1121 417 OFFCURVE",
"1058 368 OFFCURVE",
"911 368 CURVE SMOOTH",
"692 368 OFFCURVE",
"617 453 OFFCURVE",
"617 713 CURVE SMOOTH",
"617 970 OFFCURVE",
"690 1056 OFFCURVE",
"903 1056 CURVE SMOOTH",
"1046 1056 OFFCURVE",
"1113 1005 OFFCURVE",
"1124 872 CURVE",
"1281 872 LINE",
"1277 1072 OFFCURVE",
"1151 1181 OFFCURVE",
"907 1181 CURVE SMOOTH",
"591 1181 OFFCURVE",
"460 1051 OFFCURVE",
"460 715 CURVE SMOOTH",
"460 379 OFFCURVE",
"590 243 OFFCURVE",
"906 243 CURVE SMOOTH",
"1168 243 OFFCURVE",
"1279 340 OFFCURVE",
"1281 552 CURVE",
"1124 552 LINE"
);
}
);
width = 1743;
}
);
note = copyright;
unicode = 00A9;
},
{
color = 3;
glyphname = registered;
layers = (
{
background = {
paths = (
{
closed = 1;
nodes = (
"678 266 LINE",
"678 664 LINE",
"857 664 LINE SMOOTH",
"996 664 OFFCURVE",
"1035 631 OFFCURVE",
"1064 498 CURVE SMOOTH",
"1114 266 LINE",
"1224 266 LINE",
"1172 494 LINE SMOOTH",
"1137 646 OFFCURVE",
"1140 691 OFFCURVE",
"978 718 CURVE",
"982 708 LINE",
"1138 728 OFFCURVE",
"1195 795 OFFCURVE",
"1195 913 CURVE SMOOTH",
"1195 1104 OFFCURVE",
"1117 1163 OFFCURVE",
"865 1163 CURVE SMOOTH",
"569 1163 LINE",
"569 266 LINE"
);
},
{
closed = 1;
nodes = (
"678 1071 LINE",
"863 1071 LINE SMOOTH",
"1036 1071 OFFCURVE",
"1090 1032 OFFCURVE",
"1090 913 CURVE SMOOTH",
"1090 800 OFFCURVE",
"998 754 OFFCURVE",
"857 754 CURVE SMOOTH",
"678 754 LINE"
);
},
{
closed = 1;
nodes = (
"1638 1165 OFFCURVE",
"1330 1465 OFFCURVE",
"868 1465 CURVE SMOOTH",
"410 1465 OFFCURVE",
"105 1162 OFFCURVE",
"105 709 CURVE SMOOTH",
"105 258 OFFCURVE",
"410 -43 OFFCURVE",
"868 -43 CURVE SMOOTH",
"1330 -43 OFFCURVE",
"1638 260 OFFCURVE",
"1638 714 CURVE SMOOTH"
);
},
{
closed = 1;
nodes = (
"1547 305 OFFCURVE",
"1279 35 OFFCURVE",
"873 35 CURVE SMOOTH",
"467 35 OFFCURVE",
"197 305 OFFCURVE",
"197 711 CURVE SMOOTH",
"197 1117 OFFCURVE",
"467 1389 OFFCURVE",
"873 1389 CURVE SMOOTH",
"1293 1388 OFFCURVE",
"1547 1117 OFFCURVE",
"1547 711 CURVE SMOOTH"
);
}
);
};
layerId = "2F8B9CD4-7B7F-4ACC-ADF3-B6E0F7033A19";
paths = (
{
closed = 1;
nodes = (
"1638 1165 OFFCURVE",
"1330 1465 OFFCURVE",
"868 1465 CURVE SMOOTH",
"410 1465 OFFCURVE",
"105 1162 OFFCURVE",
"105 709 CURVE SMOOTH",
"105 258 OFFCURVE",
"410 -43 OFFCURVE",
"868 -43 CURVE SMOOTH",
"1330 -43 OFFCURVE",
"1638 260 OFFCURVE",
"1638 714 CURVE SMOOTH"
);
},
{
closed = 1;
nodes = (
"1547 305 OFFCURVE",
"1279 35 OFFCURVE",
"873 35 CURVE SMOOTH",
"467 35 OFFCURVE",
"197 305 OFFCURVE",
"197 711 CURVE SMOOTH",
"197 1117 OFFCURVE",
"467 1389 OFFCURVE",
"873 1389 CURVE SMOOTH",
"1293 1388 OFFCURVE",
"1547 1117 OFFCURVE",
"1547 711 CURVE SMOOTH"
);
},
{
closed = 1;
nodes = (
"721 282 LINE",
"721 644 LINE",
"859 644 LINE SMOOTH",
"974 644 OFFCURVE",
"1001 621 OFFCURVE",
"1024 513 CURVE SMOOTH",
"1074 282 LINE",
"1235 282 LINE",
"1173 557 LINE SMOOTH",
"1144 687 OFFCURVE",
"1114 716 OFFCURVE",
"975 724 CURVE",
"988 709 LINE",
"1131 703 OFFCURVE",
"1203 781 OFFCURVE",
"1203 903 CURVE SMOOTH",
"1203 1080 OFFCURVE",
"1119 1150 OFFCURVE",
"877 1150 CURVE SMOOTH",
"562 1150 LINE",
"562 282 LINE"
);
},
{
closed = 1;
nodes = (
"721 1016 LINE",
"887 1016 LINE SMOOTH",
"1016 1016 OFFCURVE",
"1046 990 OFFCURVE",
"1046 897 CURVE SMOOTH",
"1046 809 OFFCURVE",
"995 778 OFFCURVE",
"882 778 CURVE SMOOTH",
"721 778 LINE"
);
}
);
width = 1743;
}
);
note = registered;
unicode = 00AE;
},
